<?xml version="1.0" encoding="UTF-8" standalone="no"?>
<!DOCTYPE svg PUBLIC "-//W3C//DTD SVG 1.1//EN"
 "http://www.w3.org/Graphics/SVG/1.1/DTD/svg11.dtd">
<!-- Generated by graphviz version 2.44.1 (20200629.0846)
 -->
<!-- Pages: 1 -->
<svg width="465pt" height="410pt"
 viewBox="0.00 0.00 464.50 410.00" xmlns="http://www.w3.org/2000/svg" xmlns:xlink="http://www.w3.org/1999/xlink">
<g id="graph0" class="graph" transform="scale(1 1) rotate(0) translate(4 406)">
<polygon fill="white" stroke="transparent" points="-4,4 -4,-406 460.5,-406 460.5,4 -4,4"/>
<!-- [root] ibm_is_instance.testacc_instance1 -->
<g id="node_0" class="node">
<title>[root] ibm_is_instance.testacc_instance1</title>
<polygon fill="none" stroke="black" points="0.5,-242.5 0.5,-257.5 83.5,-257.5 83.5,-242.5 0.5,-242.5"/>
<text text-anchor="start" x="8" y="-248.1" font-family="courier new" font-size="8.00">ibm_is_instance</text>
<polygon fill="none" stroke="black" points="0.5,-227.5 0.5,-242.5 83.5,-242.5 83.5,-227.5 0.5,-227.5"/>
<text text-anchor="start" x="3.5" y="-233.1" font-family="courier new" font-size="8.00">testacc_instance1</text>
<polygon fill="none" stroke="black" points="0.5,-212.5 0.5,-227.5 36.5,-227.5 36.5,-212.5 0.5,-212.5"/>
<text text-anchor="start" x="7" y="-218.1" font-family="courier new" font-size="8.00">state</text>
<polygon fill="none" stroke="black" points="36.5,-212.5 36.5,-227.5 50.5,-227.5 50.5,-212.5 36.5,-212.5"/>
<text text-anchor="start" x="41" y="-218.1" font-family="courier new" font-size="8.00">+</text>
<polygon fill="none" stroke="black" points="50.5,-212.5 50.5,-227.5 83.5,-227.5 83.5,-212.5 50.5,-212.5"/>
<text text-anchor="start" x="55.5" y="-218.1" font-family="courier new" font-size="8.00">apply</text>
<polygon fill="none" stroke="black" points="0.5,-197.5 0.5,-212.5 83.5,-212.5 83.5,-197.5 0.5,-197.5"/>
<text text-anchor="start" x="21.5" y="-203.1" font-family="courier new" font-size="8.00">74.04 USD</text>
<polygon fill="none" stroke="black" points="0.5,-182.5 0.5,-197.5 83.5,-197.5 83.5,-182.5 0.5,-182.5"/>
<text text-anchor="start" x="23.5" y="-188.1" font-family="courier new" font-size="8.00">controls</text>
</g>
<!-- [root] provider.ibm -->
<g id="node_6" class="node">
<title>[root] provider.ibm</title>
<polygon fill="none" stroke="black" points="202.5,-21 202.5,-36 245.5,-36 245.5,-21 202.5,-21"/>
<text text-anchor="start" x="205.5" y="-26.6" font-family="courier new" font-size="8.00">provider</text>
<polygon fill="none" stroke="black" points="202.5,-6 202.5,-21 245.5,-21 245.5,-6 202.5,-6"/>
<text text-anchor="start" x="217" y="-11.6" font-family="courier new" font-size="8.00">ibm</text>
<polygon fill="none" stroke="black" points="202.5,0 202.5,-6 245.5,-6 245.5,0 202.5,0"/>
</g>
<!-- [root] ibm_is_instance.testacc_instance1&#45;&gt;[root] provider.ibm -->
<g id="edge_0" class="edge">
<title>[root] ibm_is_instance.testacc_instance1&#45;&gt;[root] provider.ibm</title>
<path fill="none" stroke="black" d="M70.05,-182.89C94.4,-152.33 130.87,-108.09 165.5,-72 175.04,-62.06 186.08,-51.71 195.95,-42.83"/>
<polygon fill="black" stroke="black" points="198.42,-45.31 203.57,-36.05 193.77,-40.08 198.42,-45.31"/>
</g>
<!-- [root] ibm_is_lb.lb -->
<g id="node_1" class="node">
<title>[root] ibm_is_lb.lb</title>
<polygon fill="none" stroke="black" points="101.5,-242.5 101.5,-257.5 170.5,-257.5 170.5,-242.5 101.5,-242.5"/>
<text text-anchor="start" x="115.5" y="-248.1" font-family="courier new" font-size="8.00">ibm_is_lb</text>
<polygon fill="none" stroke="black" points="101.5,-227.5 101.5,-242.5 170.5,-242.5 170.5,-227.5 101.5,-227.5"/>
<text text-anchor="start" x="131" y="-233.1" font-family="courier new" font-size="8.00">lb</text>
<polygon fill="none" stroke="black" points="101.5,-212.5 101.5,-227.5 130.5,-227.5 130.5,-212.5 101.5,-212.5"/>
<text text-anchor="start" x="104.5" y="-218.1" font-family="courier new" font-size="8.00">state</text>
<polygon fill="none" stroke="black" points="130.5,-212.5 130.5,-227.5 141.5,-227.5 141.5,-212.5 130.5,-212.5"/>
<text text-anchor="start" x="133.5" y="-218.1" font-family="courier new" font-size="8.00">+</text>
<polygon fill="none" stroke="black" points="141.5,-212.5 141.5,-227.5 170.5,-227.5 170.5,-212.5 141.5,-212.5"/>
<text text-anchor="start" x="144.5" y="-218.1" font-family="courier new" font-size="8.00">apply</text>
<polygon fill="none" stroke="black" points="101.5,-197.5 101.5,-212.5 170.5,-212.5 170.5,-197.5 101.5,-197.5"/>
<text text-anchor="start" x="124.5" y="-203.1" font-family="courier new" font-size="8.00">0 USD</text>
<polygon fill="none" stroke="black" points="101.5,-182.5 101.5,-197.5 170.5,-197.5 170.5,-182.5 101.5,-182.5"/>
<text text-anchor="start" x="117.5" y="-188.1" font-family="courier new" font-size="8.00">controls</text>
</g>
<!-- [root] ibm_is_lb.lb&#45;&gt;[root] provider.ibm -->
<g id="edge_1" class="edge">
<title>[root] ibm_is_lb.lb&#45;&gt;[root] provider.ibm</title>
<path fill="none" stroke="black" d="M151.64,-182.73C169.06,-143.04 196.37,-80.82 211.82,-45.62"/>
<polygon fill="black" stroke="black" points="215.03,-47.01 215.84,-36.44 208.62,-44.19 215.03,-47.01"/>
</g>
<!-- [root] ibm_is_subnet.testacc_subnet -->
<g id="node_2" class="node">
<title>[root] ibm_is_subnet.testacc_subnet</title>
<polygon fill="none" stroke="black" points="276.5,-238.5 276.5,-253.5 346.5,-253.5 346.5,-238.5 276.5,-238.5"/>
<text text-anchor="start" x="282" y="-244.1" font-family="courier new" font-size="8.00">ibm_is_subnet</text>
<polygon fill="none" stroke="black" points="276.5,-223.5 276.5,-238.5 346.5,-238.5 346.5,-223.5 276.5,-223.5"/>
<text text-anchor="start" x="279.5" y="-229.1" font-family="courier new" font-size="8.00">testacc_subnet</text>
<polygon fill="none" stroke="black" points="276.5,-208.5 276.5,-223.5 305.5,-223.5 305.5,-208.5 276.5,-208.5"/>
<text text-anchor="start" x="279.5" y="-214.1" font-family="courier new" font-size="8.00">state</text>
<polygon fill="none" stroke="black" points="305.5,-208.5 305.5,-223.5 316.5,-223.5 316.5,-208.5 305.5,-208.5"/>
<text text-anchor="start" x="308.5" y="-214.1" font-family="courier new" font-size="8.00">+</text>
<polygon fill="none" stroke="black" points="316.5,-208.5 316.5,-223.5 346.5,-223.5 346.5,-208.5 316.5,-208.5"/>
<text text-anchor="start" x="320" y="-214.1" font-family="courier new" font-size="8.00">apply</text>
<polygon fill="none" stroke="black" points="276.5,-202.5 276.5,-208.5 346.5,-208.5 346.5,-202.5 276.5,-202.5"/>
<polygon fill="none" stroke="black" points="276.5,-187.5 276.5,-202.5 346.5,-202.5 346.5,-187.5 276.5,-187.5"/>
<text text-anchor="start" x="293" y="-193.1" font-family="courier new" font-size="8.00">controls</text>
</g>
<!-- [root] ibm_is_vpc.testacc_vpc -->
<g id="node_4" class="node">
<title>[root] ibm_is_vpc.testacc_vpc</title>
<polygon fill="none" stroke="black" points="264.5,-131.5 264.5,-146.5 333.5,-146.5 333.5,-131.5 264.5,-131.5"/>
<text text-anchor="start" x="276" y="-137.1" font-family="courier new" font-size="8.00">ibm_is_vpc</text>
<polygon fill="none" stroke="black" points="264.5,-116.5 264.5,-131.5 333.5,-131.5 333.5,-116.5 264.5,-116.5"/>
<text text-anchor="start" x="274" y="-122.1" font-family="courier new" font-size="8.00">testacc_vpc</text>
<polygon fill="none" stroke="black" points="264.5,-101.5 264.5,-116.5 293.5,-116.5 293.5,-101.5 264.5,-101.5"/>
<text text-anchor="start" x="267.5" y="-107.1" font-family="courier new" font-size="8.00">state</text>
<polygon fill="none" stroke="black" points="293.5,-101.5 293.5,-116.5 304.5,-116.5 304.5,-101.5 293.5,-101.5"/>
<text text-anchor="start" x="296.5" y="-107.1" font-family="courier new" font-size="8.00">+</text>
<polygon fill="none" stroke="black" points="304.5,-101.5 304.5,-116.5 333.5,-116.5 333.5,-101.5 304.5,-101.5"/>
<text text-anchor="start" x="307.5" y="-107.1" font-family="courier new" font-size="8.00">apply</text>
<polygon fill="none" stroke="black" points="264.5,-86.5 264.5,-101.5 333.5,-101.5 333.5,-86.5 264.5,-86.5"/>
<text text-anchor="start" x="287.5" y="-92.1" font-family="courier new" font-size="8.00">0 USD</text>
<polygon fill="none" stroke="black" points="264.5,-71.5 264.5,-86.5 333.5,-86.5 333.5,-71.5 264.5,-71.5"/>
<text text-anchor="start" x="280.5" y="-77.1" font-family="courier new" font-size="8.00">controls</text>
</g>
<!-- [root] ibm_is_subnet.testacc_subnet&#45;&gt;[root] ibm_is_vpc.testacc_vpc -->
<g id="edge_2" class="edge">
<title>[root] ibm_is_subnet.testacc_subnet&#45;&gt;[root] ibm_is_vpc.testacc_vpc</title>
<path fill="none" stroke="black" d="M307.67,-187.39C306.55,-177.97 305.29,-167.47 304.09,-157.33"/>
<polygon fill="black" stroke="black" points="307.56,-156.88 302.9,-147.36 300.61,-157.71 307.56,-156.88"/>
</g>
<!-- [root] ibm_is_volume.testacc_volume -->
<g id="node_3" class="node">
<title>[root] ibm_is_volume.testacc_volume</title>
<polygon fill="none" stroke="black" points="188.5,-242.5 188.5,-257.5 258.5,-257.5 258.5,-242.5 188.5,-242.5"/>
<text text-anchor="start" x="194" y="-248.1" font-family="courier new" font-size="8.00">ibm_is_volume</text>
<polygon fill="none" stroke="black" points="188.5,-227.5 188.5,-242.5 258.5,-242.5 258.5,-227.5 188.5,-227.5"/>
<text text-anchor="start" x="191.5" y="-233.1" font-family="courier new" font-size="8.00">testacc_volume</text>
<polygon fill="none" stroke="black" points="188.5,-212.5 188.5,-227.5 217.5,-227.5 217.5,-212.5 188.5,-212.5"/>
<text text-anchor="start" x="191.5" y="-218.1" font-family="courier new" font-size="8.00">state</text>
<polygon fill="none" stroke="black" points="217.5,-212.5 217.5,-227.5 228.5,-227.5 228.5,-212.5 217.5,-212.5"/>
<text text-anchor="start" x="220.5" y="-218.1" font-family="courier new" font-size="8.00">+</text>
<polygon fill="none" stroke="black" points="228.5,-212.5 228.5,-227.5 258.5,-227.5 258.5,-212.5 228.5,-212.5"/>
<text text-anchor="start" x="232" y="-218.1" font-family="courier new" font-size="8.00">apply</text>
<polygon fill="none" stroke="black" points="188.5,-197.5 188.5,-212.5 258.5,-212.5 258.5,-197.5 188.5,-197.5"/>
<text text-anchor="start" x="212" y="-203.1" font-family="courier new" font-size="8.00">0 USD</text>
<polygon fill="none" stroke="black" points="188.5,-182.5 188.5,-197.5 258.5,-197.5 258.5,-182.5 188.5,-182.5"/>
<text text-anchor="start" x="205" y="-188.1" font-family="courier new" font-size="8.00">controls</text>
</g>
<!-- [root] ibm_is_volume.testacc_volume&#45;&gt;[root] provider.ibm -->
<g id="edge_3" class="edge">
<title>[root] ibm_is_volume.testacc_volume&#45;&gt;[root] provider.ibm</title>
<path fill="none" stroke="black" d="M223.5,-182.73C223.5,-143.38 223.5,-81.88 223.5,-46.52"/>
<polygon fill="black" stroke="black" points="227,-46.44 223.5,-36.44 220,-46.44 227,-46.44"/>
</g>
<!-- [root] ibm_is_vpc.testacc_vpc&#45;&gt;[root] provider.ibm -->
<g id="edge_4" class="edge">
<title>[root] ibm_is_vpc.testacc_vpc&#45;&gt;[root] provider.ibm</title>
<path fill="none" stroke="black" d="M267.78,-71.84C259.93,-62.47 251.67,-52.62 244.44,-43.99"/>
<polygon fill="black" stroke="black" points="246.98,-41.57 237.87,-36.15 241.61,-46.06 246.98,-41.57"/>
</g>
<!-- [root] ibm_is_vpn_gateway.testacc_vpn_gateway -->
<g id="node_5" class="node">
<title>[root] ibm_is_vpn_gateway.testacc_vpn_gateway</title>
<polygon fill="none" stroke="black" points="364.5,-242.5 364.5,-257.5 456.5,-257.5 456.5,-242.5 364.5,-242.5"/>
<text text-anchor="start" x="369.5" y="-248.1" font-family="courier new" font-size="8.00">ibm_is_vpn_gateway</text>
<polygon fill="none" stroke="black" points="364.5,-227.5 364.5,-242.5 456.5,-242.5 456.5,-227.5 364.5,-227.5"/>
<text text-anchor="start" x="367.5" y="-233.1" font-family="courier new" font-size="8.00">testacc_vpn_gateway</text>
<polygon fill="none" stroke="black" points="364.5,-212.5 364.5,-227.5 404.5,-227.5 404.5,-212.5 364.5,-212.5"/>
<text text-anchor="start" x="373" y="-218.1" font-family="courier new" font-size="8.00">state</text>
<polygon fill="none" stroke="black" points="404.5,-212.5 404.5,-227.5 421.5,-227.5 421.5,-212.5 404.5,-212.5"/>
<text text-anchor="start" x="410.5" y="-218.1" font-family="courier new" font-size="8.00">+</text>
<polygon fill="none" stroke="black" points="421.5,-212.5 421.5,-227.5 456.5,-227.5 456.5,-212.5 421.5,-212.5"/>
<text text-anchor="start" x="427.5" y="-218.1" font-family="courier new" font-size="8.00">apply</text>
<polygon fill="none" stroke="black" points="364.5,-197.5 364.5,-212.5 456.5,-212.5 456.5,-197.5 364.5,-197.5"/>
<text text-anchor="start" x="399" y="-203.1" font-family="courier new" font-size="8.00">1 USD</text>
<polygon fill="none" stroke="black" points="364.5,-182.5 364.5,-197.5 456.5,-197.5 456.5,-182.5 364.5,-182.5"/>
<text text-anchor="start" x="392" y="-188.1" font-family="courier new" font-size="8.00">controls</text>
</g>
<!-- [root] ibm_is_vpn_gateway.testacc_vpn_gateway&#45;&gt;[root] provider.ibm -->
<g id="edge_5" class="edge">
<title>[root] ibm_is_vpn_gateway.testacc_vpn_gateway&#45;&gt;[root] provider.ibm</title>
<path fill="none" stroke="black" d="M401.24,-182.78C391.31,-150.03 372.62,-102.65 341.5,-72 319.04,-49.88 285.73,-36.09 260.23,-28.13"/>
<polygon fill="black" stroke="black" points="261.11,-24.74 250.53,-25.27 259.13,-31.46 261.11,-24.74"/>
</g>
<!-- [root] meta.count&#45;boundary (EachMode fixup) -->
<g id="node_7" class="node">
<title>[root] meta.count&#45;boundary (EachMode fixup)</title>
<polygon fill="none" stroke="black" points="148.5,-315 148.5,-330 218.5,-330 218.5,-315 148.5,-315"/>
<text text-anchor="start" x="174" y="-320.6" font-family="courier new" font-size="8.00">meta</text>
<polygon fill="none" stroke="black" points="148.5,-300 148.5,-315 218.5,-315 218.5,-300 148.5,-300"/>
<text text-anchor="start" x="151.5" y="-305.6" font-family="courier new" font-size="8.00">count&#45;boundary</text>
<polygon fill="none" stroke="black" points="148.5,-294 148.5,-300 218.5,-300 218.5,-294 148.5,-294"/>
</g>
<!-- [root] meta.count&#45;boundary (EachMode fixup)&#45;&gt;[root] ibm_is_instance.testacc_instance1 -->
<g id="edge_6" class="edge">
<title>[root] meta.count&#45;boundary (EachMode fixup)&#45;&gt;[root] ibm_is_instance.testacc_instance1</title>
<path fill="none" stroke="black" d="M151.91,-293.91C133.92,-283.91 111.12,-270.76 91.5,-258 91.41,-257.94 91.33,-257.89 91.24,-257.83"/>
<polygon fill="black" stroke="black" points="93.26,-254.97 83.01,-252.31 89.37,-260.79 93.26,-254.97"/>
</g>
<!-- [root] meta.count&#45;boundary (EachMode fixup)&#45;&gt;[root] ibm_is_lb.lb -->
<g id="edge_7" class="edge">
<title>[root] meta.count&#45;boundary (EachMode fixup)&#45;&gt;[root] ibm_is_lb.lb</title>
<path fill="none" stroke="black" d="M174.25,-293.74C170.16,-286.12 165.14,-276.76 160.08,-267.34"/>
<polygon fill="black" stroke="black" points="163.07,-265.5 155.26,-258.34 156.9,-268.81 163.07,-265.5"/>
</g>
<!-- [root] meta.count&#45;boundary (EachMode fixup)&#45;&gt;[root] ibm_is_subnet.testacc_subnet -->
<g id="edge_8" class="edge">
<title>[root] meta.count&#45;boundary (EachMode fixup)&#45;&gt;[root] ibm_is_subnet.testacc_subnet</title>
<path fill="none" stroke="black" d="M212.49,-293.99C228.96,-284.01 249.77,-270.86 267.5,-258 267.68,-257.87 267.86,-257.74 268.04,-257.61"/>
<polygon fill="black" stroke="black" points="270.4,-260.21 276.27,-251.39 266.18,-254.62 270.4,-260.21"/>
</g>
<!-- [root] meta.count&#45;boundary (EachMode fixup)&#45;&gt;[root] ibm_is_volume.testacc_volume -->
<g id="edge_9" class="edge">
<title>[root] meta.count&#45;boundary (EachMode fixup)&#45;&gt;[root] ibm_is_volume.testacc_volume</title>
<path fill="none" stroke="black" d="M191.21,-293.74C194.58,-286.2 198.72,-276.96 202.88,-267.63"/>
<polygon fill="black" stroke="black" points="206.15,-268.9 207.04,-258.34 199.76,-266.04 206.15,-268.9"/>
</g>
<!-- [root] meta.count&#45;boundary (EachMode fixup)&#45;&gt;[root] ibm_is_vpn_gateway.testacc_vpn_gateway -->
<g id="edge_10" class="edge">
<title>[root] meta.count&#45;boundary (EachMode fixup)&#45;&gt;[root] ibm_is_vpn_gateway.testacc_vpn_gateway</title>
<path fill="none" stroke="black" d="M218.94,-296.98C221.82,-295.94 224.7,-294.93 227.5,-294 280.72,-276.28 299.84,-281.96 355.08,-257.75"/>
<polygon fill="black" stroke="black" points="356.6,-260.91 364.27,-253.6 353.72,-254.53 356.6,-260.91"/>
</g>
<!-- [root] provider.ibm (close) -->
<g id="node_8" class="node">
<title>[root] provider.ibm (close)</title>
<polygon fill="none" stroke="black" points="242.5,-315 242.5,-330 285.5,-330 285.5,-315 242.5,-315"/>
<text text-anchor="start" x="245.5" y="-320.6" font-family="courier new" font-size="8.00">provider</text>
<polygon fill="none" stroke="black" points="242.5,-300 242.5,-315 285.5,-315 285.5,-300 242.5,-300"/>
<text text-anchor="start" x="257" y="-305.6" font-family="courier new" font-size="8.00">ibm</text>
<polygon fill="none" stroke="black" points="242.5,-294 242.5,-300 285.5,-300 285.5,-294 242.5,-294"/>
</g>
<!-- [root] provider.ibm (close)&#45;&gt;[root] ibm_is_instance.testacc_instance1 -->
<g id="edge_11" class="edge">
<title>[root] provider.ibm (close)&#45;&gt;[root] ibm_is_instance.testacc_instance1</title>
<path fill="none" stroke="black" d="M236.2,-297.48C233.3,-296.23 230.36,-295.04 227.5,-294 171.63,-273.61 150.07,-283.77 92.28,-257.83"/>
<polygon fill="black" stroke="black" points="93.63,-254.59 83.08,-253.54 90.67,-260.94 93.63,-254.59"/>
</g>
<!-- [root] provider.ibm (close)&#45;&gt;[root] ibm_is_lb.lb -->
<g id="edge_12" class="edge">
<title>[root] provider.ibm (close)&#45;&gt;[root] ibm_is_lb.lb</title>
<path fill="none" stroke="black" d="M236.44,-295.15C219.68,-285.04 197.92,-271.37 179.5,-258 179.12,-257.72 178.74,-257.44 178.35,-257.16"/>
<polygon fill="black" stroke="black" points="180.32,-254.26 170.24,-251.01 176.09,-259.84 180.32,-254.26"/>
</g>
<!-- [root] provider.ibm (close)&#45;&gt;[root] ibm_is_subnet.testacc_subnet -->
<g id="edge_13" class="edge">
<title>[root] provider.ibm (close)&#45;&gt;[root] ibm_is_subnet.testacc_subnet</title>
<path fill="none" stroke="black" d="M272.75,-293.74C277.52,-284.85 283.56,-273.6 289.44,-262.64"/>
<polygon fill="black" stroke="black" points="292.66,-264.03 294.31,-253.56 286.5,-260.72 292.66,-264.03"/>
</g>
<!-- [root] provider.ibm (close)&#45;&gt;[root] ibm_is_volume.testacc_volume -->
<g id="edge_14" class="edge">
<title>[root] provider.ibm (close)&#45;&gt;[root] ibm_is_volume.testacc_volume</title>
<path fill="none" stroke="black" d="M255.79,-293.74C252.42,-286.2 248.28,-276.96 244.12,-267.63"/>
<polygon fill="black" stroke="black" points="247.24,-266.04 239.96,-258.34 240.85,-268.9 247.24,-266.04"/>
</g>
<!-- [root] provider.ibm (close)&#45;&gt;[root] ibm_is_vpn_gateway.testacc_vpn_gateway -->
<g id="edge_15" class="edge">
<title>[root] provider.ibm (close)&#45;&gt;[root] ibm_is_vpn_gateway.testacc_vpn_gateway</title>
<path fill="none" stroke="black" d="M290.74,-295.91C309.19,-285.54 334.03,-271.29 355.5,-258 355.59,-257.94 355.68,-257.89 355.77,-257.83"/>
<polygon fill="black" stroke="black" points="357.83,-260.67 364.42,-252.38 354.1,-254.75 357.83,-260.67"/>
</g>
<!-- [root] root -->
<g id="node_9" class="node">
<title>[root] root</title>
<polygon fill="none" stroke="black" points="195.5,-384 195.5,-399 251.5,-399 251.5,-384 195.5,-384"/>
<text text-anchor="start" x="198.5" y="-389.6" font-family="courier new" font-size="8.00">[root] root</text>
<polygon fill="none" stroke="black" points="195.5,-369 195.5,-384 251.5,-384 251.5,-369 195.5,-369"/>
<text text-anchor="start" x="200.5" y="-374.6" font-family="courier new" font-size="8.00">150.07 USD</text>
</g>
<!-- [root] root&#45;&gt;[root] meta.count&#45;boundary (EachMode fixup) -->
<g id="edge_16" class="edge">
<title>[root] root&#45;&gt;[root] meta.count&#45;boundary (EachMode fixup)</title>
<path fill="none" stroke="black" d="M213.61,-365.7C209.01,-357.64 203.44,-347.89 198.35,-338.98"/>
<polygon fill="black" stroke="black" points="201.27,-337.05 193.27,-330.1 195.2,-340.52 201.27,-337.05"/>
</g>
<!-- [root] root&#45;&gt;[root] provider.ibm (close) -->
<g id="edge_17" class="edge">
<title>[root] root&#45;&gt;[root] provider.ibm (close)</title>
<path fill="none" stroke="black" d="M233.39,-365.7C237.99,-357.64 243.56,-347.89 248.65,-338.98"/>
<polygon fill="black" stroke="black" points="251.8,-340.52 253.73,-330.1 245.73,-337.05 251.8,-340.52"/>
</g>
</g>
</svg>
