<?xml version="1.0" encoding="UTF-8" standalone="no"?>
<!DOCTYPE svg PUBLIC "-//W3C//DTD SVG 1.1//EN"
 "http://www.w3.org/Graphics/SVG/1.1/DTD/svg11.dtd">
<!-- Generated by graphviz version 2.44.1 (20200629.0846)
 -->
<!-- Pages: 1 -->
<svg width="320pt" height="612pt"
 viewBox="0.00 0.00 320.00 612.00" xmlns="http://www.w3.org/2000/svg" xmlns:xlink="http://www.w3.org/1999/xlink">
<g id="graph0" class="graph" transform="scale(1 1) rotate(0) translate(4 608)">
<polygon fill="white" stroke="transparent" points="-4,4 -4,-608 316,-608 316,4 -4,4"/>
<g id="clust2" class="cluster">
<title>cluster[root] meta.count&#45;boundary (EachMode fixup)_var_</title>
</g>
<g id="clust3" class="cluster">
<title>cluster[root] output.web_dns_name_var_</title>
</g>
<g id="clust4" class="cluster">
<title>cluster[root] ibm_resource_group.web_group_var_</title>
</g>
<!-- [root] ibm_cis.web_domain -->
<g id="node_0" class="node">
<title>[root] ibm_cis.web_domain</title>
<polygon fill="none" stroke="black" points="33,-241 33,-256 102,-256 102,-241 33,-241"/>
<text text-anchor="start" x="51.5" y="-246.6" font-family="courier new" font-size="8.00">ibm_cis</text>
<polygon fill="none" stroke="black" points="33,-226 33,-241 102,-241 102,-226 33,-226"/>
<text text-anchor="start" x="44.5" y="-231.6" font-family="courier new" font-size="8.00">web_domain</text>
<polygon fill="none" stroke="black" points="33,-211 33,-226 62,-226 62,-211 33,-211"/>
<text text-anchor="start" x="36" y="-216.6" font-family="courier new" font-size="8.00">state</text>
<polygon fill="none" stroke="black" points="62,-211 62,-226 73,-226 73,-211 62,-211"/>
<text text-anchor="start" x="65" y="-216.6" font-family="courier new" font-size="8.00">+</text>
<polygon fill="none" stroke="black" points="73,-211 73,-226 102,-226 102,-211 73,-211"/>
<text text-anchor="start" x="76" y="-216.6" font-family="courier new" font-size="8.00">apply</text>
<polygon fill="none" stroke="black" points="33,-205 33,-211 102,-211 102,-205 33,-205"/>
<polygon fill="none" stroke="black" points="33,-190 33,-205 102,-205 102,-190 33,-190"/>
<text text-anchor="start" x="49" y="-195.6" font-family="courier new" font-size="8.00">controls</text>
</g>
<!-- [root] ibm_resource_group.web_group -->
<g id="node_3" class="node">
<title>[root] ibm_resource_group.web_group</title>
<polygon fill="none" stroke="black" points="23,-139 23,-154 111,-154 111,-139 23,-139"/>
<text text-anchor="start" x="26" y="-144.6" font-family="courier new" font-size="8.00">ibm_resource_group</text>
<polygon fill="none" stroke="black" points="23,-124 23,-139 111,-139 111,-124 23,-124"/>
<text text-anchor="start" x="46.5" y="-129.6" font-family="courier new" font-size="8.00">web_group</text>
<polygon fill="none" stroke="black" points="23,-109 23,-124 61,-124 61,-109 23,-109"/>
<text text-anchor="start" x="30.5" y="-114.6" font-family="courier new" font-size="8.00">state</text>
<polygon fill="none" stroke="black" points="61,-109 61,-124 77,-124 77,-109 61,-109"/>
<text text-anchor="start" x="66.5" y="-114.6" font-family="courier new" font-size="8.00">+</text>
<polygon fill="none" stroke="black" points="77,-109 77,-124 111,-124 111,-109 77,-109"/>
<text text-anchor="start" x="82.5" y="-114.6" font-family="courier new" font-size="8.00">apply</text>
<polygon fill="none" stroke="black" points="23,-103 23,-109 111,-109 111,-103 23,-103"/>
<polygon fill="none" stroke="black" points="23,-88 23,-103 111,-103 111,-88 23,-88"/>
<text text-anchor="start" x="48.5" y="-93.6" font-family="courier new" font-size="8.00">controls</text>
</g>
<!-- [root] ibm_cis.web_domain&#45;&gt;[root] ibm_resource_group.web_group -->
<g id="edge_0" class="edge">
<title>[root] ibm_cis.web_domain&#45;&gt;[root] ibm_resource_group.web_group</title>
<path fill="none" stroke="black" d="M67,-189.81C67,-181.69 67,-172.85 67,-164.32"/>
<polygon fill="black" stroke="black" points="70.5,-164.13 67,-154.13 63.5,-164.13 70.5,-164.13"/>
</g>
<!-- [root] ibm_cis_domain.web_domain -->
<g id="node_1" class="node">
<title>[root] ibm_cis_domain.web_domain</title>
<polygon fill="none" stroke="black" points="32,-343 32,-358 102,-358 102,-343 32,-343"/>
<text text-anchor="start" x="35" y="-348.6" font-family="courier new" font-size="8.00">ibm_cis_domain</text>
<polygon fill="none" stroke="black" points="32,-328 32,-343 102,-343 102,-328 32,-328"/>
<text text-anchor="start" x="44" y="-333.6" font-family="courier new" font-size="8.00">web_domain</text>
<polygon fill="none" stroke="black" points="32,-313 32,-328 61,-328 61,-313 32,-313"/>
<text text-anchor="start" x="35" y="-318.6" font-family="courier new" font-size="8.00">state</text>
<polygon fill="none" stroke="black" points="61,-313 61,-328 72,-328 72,-313 61,-313"/>
<text text-anchor="start" x="64" y="-318.6" font-family="courier new" font-size="8.00">+</text>
<polygon fill="none" stroke="black" points="72,-313 72,-328 102,-328 102,-313 72,-313"/>
<text text-anchor="start" x="75.5" y="-318.6" font-family="courier new" font-size="8.00">apply</text>
<polygon fill="none" stroke="black" points="32,-307 32,-313 102,-313 102,-307 32,-307"/>
<polygon fill="none" stroke="black" points="32,-292 32,-307 102,-307 102,-292 32,-292"/>
<text text-anchor="start" x="48.5" y="-297.6" font-family="courier new" font-size="8.00">controls</text>
</g>
<!-- [root] ibm_cis_domain.web_domain&#45;&gt;[root] ibm_cis.web_domain -->
<g id="edge_1" class="edge">
<title>[root] ibm_cis_domain.web_domain&#45;&gt;[root] ibm_cis.web_domain</title>
<path fill="none" stroke="black" d="M67,-291.81C67,-283.69 67,-274.85 67,-266.32"/>
<polygon fill="black" stroke="black" points="70.5,-266.13 67,-256.13 63.5,-266.13 70.5,-266.13"/>
</g>
<!-- [root] var.domain -->
<g id="node_9" class="node">
<title>[root] var.domain</title>
<polygon fill="none" stroke="black" points="163,-226 163,-241 197,-241 197,-226 163,-226"/>
<text text-anchor="start" x="173" y="-231.6" font-family="courier new" font-size="8.00">var</text>
<polygon fill="none" stroke="black" points="163,-211 163,-226 197,-226 197,-211 163,-211"/>
<text text-anchor="start" x="166" y="-216.6" font-family="courier new" font-size="8.00">domain</text>
<polygon fill="none" stroke="black" points="163,-205 163,-211 197,-211 197,-205 163,-205"/>
</g>
<!-- [root] ibm_cis_domain.web_domain&#45;&gt;[root] var.domain -->
<g id="edge_2" class="edge">
<title>[root] ibm_cis_domain.web_domain&#45;&gt;[root] var.domain</title>
<path fill="none" stroke="black" d="M102.13,-292.91C118.58,-278.36 137.85,-261.3 153.1,-247.8"/>
<polygon fill="black" stroke="black" points="155.51,-250.34 160.68,-241.1 150.87,-245.1 155.51,-250.34"/>
</g>
<!-- [root] ibm_cis_domain_settings.web_domain -->
<g id="node_2" class="node">
<title>[root] ibm_cis_domain_settings.web_domain</title>
<polygon fill="none" stroke="black" points="2,-445 2,-460 112,-460 112,-445 2,-445"/>
<text text-anchor="start" x="5" y="-450.6" font-family="courier new" font-size="8.00">ibm_cis_domain_settings</text>
<polygon fill="none" stroke="black" points="2,-430 2,-445 112,-445 112,-430 2,-430"/>
<text text-anchor="start" x="34" y="-435.6" font-family="courier new" font-size="8.00">web_domain</text>
<polygon fill="none" stroke="black" points="2,-415 2,-430 51,-430 51,-415 2,-415"/>
<text text-anchor="start" x="15" y="-420.6" font-family="courier new" font-size="8.00">state</text>
<polygon fill="none" stroke="black" points="51,-415 51,-430 72,-430 72,-415 51,-415"/>
<text text-anchor="start" x="59" y="-420.6" font-family="courier new" font-size="8.00">+</text>
<polygon fill="none" stroke="black" points="72,-415 72,-430 112,-430 112,-415 72,-415"/>
<text text-anchor="start" x="80.5" y="-420.6" font-family="courier new" font-size="8.00">apply</text>
<polygon fill="none" stroke="black" points="2,-409 2,-415 112,-415 112,-409 2,-409"/>
<polygon fill="none" stroke="black" points="2,-394 2,-409 112,-409 112,-394 2,-394"/>
<text text-anchor="start" x="38.5" y="-399.6" font-family="courier new" font-size="8.00">controls</text>
</g>
<!-- [root] ibm_cis_domain_settings.web_domain&#45;&gt;[root] ibm_cis_domain.web_domain -->
<g id="edge_3" class="edge">
<title>[root] ibm_cis_domain_settings.web_domain&#45;&gt;[root] ibm_cis_domain.web_domain</title>
<path fill="none" stroke="black" d="M60.22,-393.81C61.03,-385.69 61.91,-376.85 62.77,-368.32"/>
<polygon fill="black" stroke="black" points="66.27,-368.43 63.79,-358.13 59.31,-367.73 66.27,-368.43"/>
</g>
<!-- [root] provider.ibm -->
<g id="node_5" class="node">
<title>[root] provider.ibm</title>
<polygon fill="none" stroke="black" points="6,-37 6,-52 49,-52 49,-37 6,-37"/>
<text text-anchor="start" x="9" y="-42.6" font-family="courier new" font-size="8.00">provider</text>
<polygon fill="none" stroke="black" points="6,-22 6,-37 49,-37 49,-22 6,-22"/>
<text text-anchor="start" x="20.5" y="-27.6" font-family="courier new" font-size="8.00">ibm</text>
<polygon fill="none" stroke="black" points="6,-16 6,-22 49,-22 49,-16 6,-16"/>
</g>
<!-- [root] ibm_resource_group.web_group&#45;&gt;[root] provider.ibm -->
<g id="edge_4" class="edge">
<title>[root] ibm_resource_group.web_group&#45;&gt;[root] provider.ibm</title>
<path fill="none" stroke="black" d="M51.88,-87.87C47.81,-79.21 43.45,-69.95 39.54,-61.64"/>
<polygon fill="black" stroke="black" points="42.62,-59.96 35.19,-52.41 36.28,-62.94 42.62,-59.96"/>
</g>
<!-- [root] var.resource_group -->
<g id="node_10" class="node">
<title>[root] var.resource_group</title>
<polygon fill="none" stroke="black" points="72,-37 72,-52 142,-52 142,-37 72,-37"/>
<text text-anchor="start" x="100" y="-42.6" font-family="courier new" font-size="8.00">var</text>
<polygon fill="none" stroke="black" points="72,-22 72,-37 142,-37 142,-22 72,-22"/>
<text text-anchor="start" x="75" y="-27.6" font-family="courier new" font-size="8.00">resource_group</text>
<polygon fill="none" stroke="black" points="72,-16 72,-22 142,-22 142,-16 72,-16"/>
</g>
<!-- [root] ibm_resource_group.web_group&#45;&gt;[root] var.resource_group -->
<g id="edge_5" class="edge">
<title>[root] ibm_resource_group.web_group&#45;&gt;[root] var.resource_group</title>
<path fill="none" stroke="black" d="M82.12,-87.87C86.19,-79.21 90.55,-69.95 94.46,-61.64"/>
<polygon fill="black" stroke="black" points="97.72,-62.94 98.81,-52.41 91.38,-59.96 97.72,-62.94"/>
</g>
<!-- [root] output.web_dns_name -->
<g id="node_4" class="node">
<title>[root] output.web_dns_name</title>
<polygon fill="none" stroke="black" points="205,-430 205,-445 266,-445 266,-430 205,-430"/>
<text text-anchor="start" x="221.5" y="-435.6" font-family="courier new" font-size="8.00">output</text>
<polygon fill="none" stroke="black" points="205,-415 205,-430 266,-430 266,-415 205,-415"/>
<text text-anchor="start" x="208" y="-420.6" font-family="courier new" font-size="8.00">web_dns_name</text>
<polygon fill="none" stroke="black" points="205,-409 205,-415 266,-415 266,-409 205,-409"/>
</g>
<!-- [root] output.web_dns_name&#45;&gt;[root] var.domain -->
<g id="edge_11" class="edge">
<title>[root] output.web_dns_name&#45;&gt;[root] var.domain</title>
<path fill="none" stroke="black" d="M230.31,-408.78C220.73,-373.6 198.85,-293.24 187.36,-251.04"/>
<polygon fill="black" stroke="black" points="190.68,-249.91 184.68,-241.18 183.93,-251.75 190.68,-249.91"/>
</g>
<!-- [root] var.dns_name -->
<g id="node_8" class="node">
<title>[root] var.dns_name</title>
<polygon fill="none" stroke="black" points="248,-328 248,-343 291,-343 291,-328 248,-328"/>
<text text-anchor="start" x="262.5" y="-333.6" font-family="courier new" font-size="8.00">var</text>
<polygon fill="none" stroke="black" points="248,-313 248,-328 291,-328 291,-313 248,-313"/>
<text text-anchor="start" x="251" y="-318.6" font-family="courier new" font-size="8.00">dns_name</text>
<polygon fill="none" stroke="black" points="248,-307 248,-313 291,-313 291,-307 248,-307"/>
</g>
<!-- [root] output.web_dns_name&#45;&gt;[root] var.dns_name -->
<g id="edge_10" class="edge">
<title>[root] output.web_dns_name&#45;&gt;[root] var.dns_name</title>
<path fill="none" stroke="black" d="M240.92,-408.58C246.14,-393.24 253.82,-370.65 259.83,-352.97"/>
<polygon fill="black" stroke="black" points="263.24,-353.81 263.15,-343.22 256.61,-351.56 263.24,-353.81"/>
</g>
<!-- [root] meta.count&#45;boundary (EachMode fixup) -->
<g id="node_11" class="node">
<title>[root] meta.count&#45;boundary (EachMode fixup)</title>
<polygon fill="none" stroke="black" points="117,-517 117,-532 187,-532 187,-517 117,-517"/>
<text text-anchor="start" x="142.5" y="-522.6" font-family="courier new" font-size="8.00">meta</text>
<polygon fill="none" stroke="black" points="117,-502 117,-517 187,-517 187,-502 117,-502"/>
<text text-anchor="start" x="120" y="-507.6" font-family="courier new" font-size="8.00">count&#45;boundary</text>
<polygon fill="none" stroke="black" points="117,-496 117,-502 187,-502 187,-496 117,-496"/>
</g>
<!-- [root] meta.count&#45;boundary (EachMode fixup)&#45;&gt;[root] ibm_cis_domain_settings.web_domain -->
<g id="edge_6" class="edge">
<title>[root] meta.count&#45;boundary (EachMode fixup)&#45;&gt;[root] ibm_cis_domain_settings.web_domain</title>
<path fill="none" stroke="black" d="M132.78,-495.8C123.52,-487.52 112.02,-477.23 100.8,-467.19"/>
<polygon fill="black" stroke="black" points="102.89,-464.36 93.11,-460.31 98.22,-469.58 102.89,-464.36"/>
</g>
<!-- [root] meta.count&#45;boundary (EachMode fixup)&#45;&gt;[root] output.web_dns_name -->
<g id="edge_7" class="edge">
<title>[root] meta.count&#45;boundary (EachMode fixup)&#45;&gt;[root] output.web_dns_name</title>
<path fill="none" stroke="black" d="M168.8,-495.8C180.95,-483.36 197.54,-466.36 211.07,-452.5"/>
<polygon fill="black" stroke="black" points="213.75,-454.78 218.23,-445.18 208.74,-449.88 213.75,-454.78"/>
</g>
<!-- [root] var.datacenter1 -->
<g id="node_6" class="node">
<title>[root] var.datacenter1</title>
<polygon fill="none" stroke="black" points="130,-430 130,-445 186,-445 186,-430 130,-430"/>
<text text-anchor="start" x="151" y="-435.6" font-family="courier new" font-size="8.00">var</text>
<polygon fill="none" stroke="black" points="130,-415 130,-430 186,-430 186,-415 130,-415"/>
<text text-anchor="start" x="133" y="-420.6" font-family="courier new" font-size="8.00">datacenter1</text>
<polygon fill="none" stroke="black" points="130,-409 130,-415 186,-415 186,-409 130,-409"/>
</g>
<!-- [root] meta.count&#45;boundary (EachMode fixup)&#45;&gt;[root] var.datacenter1 -->
<g id="edge_8" class="edge">
<title>[root] meta.count&#45;boundary (EachMode fixup)&#45;&gt;[root] var.datacenter1</title>
<path fill="none" stroke="black" d="M153.21,-495.8C154.04,-484.16 155.14,-468.55 156.08,-455.24"/>
<polygon fill="black" stroke="black" points="159.57,-455.4 156.79,-445.18 152.59,-454.9 159.57,-455.4"/>
</g>
<!-- [root] provider.ibm (close) -->
<g id="node_12" class="node">
<title>[root] provider.ibm (close)</title>
<polygon fill="none" stroke="black" points="46,-517 46,-532 89,-532 89,-517 46,-517"/>
<text text-anchor="start" x="49" y="-522.6" font-family="courier new" font-size="8.00">provider</text>
<polygon fill="none" stroke="black" points="46,-502 46,-517 89,-517 89,-502 46,-502"/>
<text text-anchor="start" x="60.5" y="-507.6" font-family="courier new" font-size="8.00">ibm</text>
<polygon fill="none" stroke="black" points="46,-496 46,-502 89,-502 89,-496 46,-496"/>
</g>
<!-- [root] provider.ibm (close)&#45;&gt;[root] ibm_cis_domain_settings.web_domain -->
<g id="edge_12" class="edge">
<title>[root] provider.ibm (close)&#45;&gt;[root] ibm_cis_domain_settings.web_domain</title>
<path fill="none" stroke="black" d="M64.98,-495.8C64.11,-488.4 63.05,-479.39 61.99,-470.38"/>
<polygon fill="black" stroke="black" points="65.45,-469.83 60.8,-460.31 58.49,-470.65 65.45,-469.83"/>
</g>
<!-- [root] root -->
<g id="node_13" class="node">
<title>[root] root</title>
<polygon fill="none" stroke="black" points="140,-604 74,-604 74,-568 140,-568 140,-604"/>
<text text-anchor="middle" x="107" y="-584.1" font-family="courier new" font-size="8.00">[root] root</text>
</g>
<!-- [root] root&#45;&gt;[root] meta.count&#45;boundary (EachMode fixup) -->
<g id="edge_13" class="edge">
<title>[root] root&#45;&gt;[root] meta.count&#45;boundary (EachMode fixup)</title>
<path fill="none" stroke="black" d="M118.12,-567.7C123.36,-559.56 129.7,-549.69 135.48,-540.7"/>
<polygon fill="black" stroke="black" points="138.54,-542.41 141,-532.1 132.65,-538.62 138.54,-542.41"/>
</g>
<!-- [root] root&#45;&gt;[root] provider.ibm (close) -->
<g id="edge_14" class="edge">
<title>[root] root&#45;&gt;[root] provider.ibm (close)</title>
<path fill="none" stroke="black" d="M97.11,-567.7C92.51,-559.64 86.94,-549.89 81.85,-540.98"/>
<polygon fill="black" stroke="black" points="84.77,-539.05 76.77,-532.1 78.7,-542.52 84.77,-539.05"/>
</g>
<!-- [root] var.datacenter2 -->
<g id="node_7" class="node">
<title>[root] var.datacenter2</title>
<polygon fill="none" stroke="black" points="130,-328 130,-343 186,-343 186,-328 130,-328"/>
<text text-anchor="start" x="151" y="-333.6" font-family="courier new" font-size="8.00">var</text>
<polygon fill="none" stroke="black" points="130,-313 130,-328 186,-328 186,-313 130,-313"/>
<text text-anchor="start" x="133" y="-318.6" font-family="courier new" font-size="8.00">datacenter2</text>
<polygon fill="none" stroke="black" points="130,-307 130,-313 186,-313 186,-307 130,-307"/>
</g>
<!-- [root] var.datacenter1&#45;&gt;[root] var.datacenter2 -->
<g id="edge_15" class="edge">
<title>[root] var.datacenter1&#45;&gt;[root] var.datacenter2</title>
<path fill="none" stroke="black" stroke-dasharray="5,2" d="M158,-408.58C158,-390.23 158,-361.5 158,-343.22"/>
</g>
</g>
</svg>
