<?xml version="1.0" encoding="UTF-8" standalone="no"?>
<!DOCTYPE svg PUBLIC "-//W3C//DTD SVG 1.1//EN"
 "http://www.w3.org/Graphics/SVG/1.1/DTD/svg11.dtd">
<!-- Generated by graphviz version 2.40.1 (20161225.0304)
 -->
<!-- Title: %3 Pages: 1 -->
<svg width="364pt" height="476pt"
 viewBox="0.00 0.00 363.50 476.00" xmlns="http://www.w3.org/2000/svg" xmlns:xlink="http://www.w3.org/1999/xlink">
<g id="graph0" class="graph" transform="scale(1 1) rotate(0) translate(4 472)">
<title>%3</title>
<polygon fill="#ffffff" stroke="transparent" points="-4,4 -4,-472 359.5,-472 359.5,4 -4,4"/>
<!-- [root] aws_iam_role.default -->
<g id="node_0" class="node">
<title>[root] aws_iam_role.default</title>
<polygon fill="none" stroke="#000000" points="77.5,-162 77.5,-177 140.5,-177 140.5,-162 77.5,-162"/>
<text text-anchor="start" x="80.1953" y="-167.6" font-family="courier new" font-size="8.00" fill="#000000">aws_iam_role</text>
<polygon fill="none" stroke="#000000" points="77.5,-147 77.5,-162 140.5,-162 140.5,-147 77.5,-147"/>
<text text-anchor="start" x="92.1973" y="-152.6" font-family="courier new" font-size="8.00" fill="#000000">default</text>
</g>
<!-- [root] provider.aws -->
<g id="node_4" class="node">
<title>[root] provider.aws</title>
<polygon fill="none" stroke="#000000" points="86.5,-90 86.5,-105 130.5,-105 130.5,-90 86.5,-90"/>
<text text-anchor="start" x="89.2969" y="-95.6" font-family="courier new" font-size="8.00" fill="#000000">provider</text>
<polygon fill="none" stroke="#000000" points="86.5,-75 86.5,-90 130.5,-90 130.5,-75 86.5,-75"/>
<text text-anchor="start" x="101.2988" y="-80.6" font-family="courier new" font-size="8.00" fill="#000000">aws</text>
</g>
<!-- [root] aws_iam_role.default&#45;&gt;[root] provider.aws -->
<g id="edge_0" class="edge">
<title>[root] aws_iam_role.default&#45;&gt;[root] provider.aws</title>
<path fill="none" stroke="#000000" d="M108.5,-143.8314C108.5,-136.131 108.5,-126.9743 108.5,-118.4166"/>
<polygon fill="#000000" stroke="#000000" points="112.0001,-118.4132 108.5,-108.4133 105.0001,-118.4133 112.0001,-118.4132"/>
</g>
<!-- [root] aws_iam_role_policy.default -->
<g id="node_1" class="node">
<title>[root] aws_iam_role_policy.default</title>
<polygon fill="none" stroke="#000000" points=".5,-306 .5,-321 97.5,-321 97.5,-306 .5,-306"/>
<text text-anchor="start" x="3.3926" y="-311.6" font-family="courier new" font-size="8.00" fill="#000000">aws_iam_role_policy</text>
<polygon fill="none" stroke="#000000" points=".5,-291 .5,-306 97.5,-306 97.5,-291 .5,-291"/>
<text text-anchor="start" x="32.1973" y="-296.6" font-family="courier new" font-size="8.00" fill="#000000">default</text>
</g>
<!-- [root] aws_iam_role_policy.default&#45;&gt;[root] aws_iam_role.default -->
<g id="edge_1" class="edge">
<title>[root] aws_iam_role_policy.default&#45;&gt;[root] aws_iam_role.default</title>
<path fill="none" stroke="#000000" d="M56.099,-287.7623C66.4231,-262.9846 84.9703,-218.4714 97.0025,-189.5939"/>
<polygon fill="#000000" stroke="#000000" points="100.3472,-190.6666 100.9627,-180.0896 93.8857,-187.9742 100.3472,-190.6666"/>
</g>
<!-- [root] aws_lambda_function.default -->
<g id="node_2" class="node">
<title>[root] aws_lambda_function.default</title>
<polygon fill="none" stroke="#000000" points="120.5,-234 120.5,-249 217.5,-249 217.5,-234 120.5,-234"/>
<text text-anchor="start" x="123.3926" y="-239.6" font-family="courier new" font-size="8.00" fill="#000000">aws_lambda_function</text>
<polygon fill="none" stroke="#000000" points="120.5,-219 120.5,-234 217.5,-234 217.5,-219 120.5,-219"/>
<text text-anchor="start" x="152.1973" y="-224.6" font-family="courier new" font-size="8.00" fill="#000000">default</text>
</g>
<!-- [root] aws_lambda_function.default&#45;&gt;[root] aws_iam_role.default -->
<g id="edge_2" class="edge">
<title>[root] aws_lambda_function.default&#45;&gt;[root] aws_iam_role.default</title>
<path fill="none" stroke="#000000" d="M153.3595,-215.8314C146.3783,-207.454 137.9609,-197.3531 130.3124,-188.1749"/>
<polygon fill="#000000" stroke="#000000" points="132.9351,-185.8548 123.8444,-180.4133 127.5575,-190.3362 132.9351,-185.8548"/>
</g>
<!-- [root] aws_lambda_permission.default -->
<g id="node_3" class="node">
<title>[root] aws_lambda_permission.default</title>
<polygon fill="none" stroke="#000000" points="115.5,-306 115.5,-321 221.5,-321 221.5,-306 115.5,-306"/>
<text text-anchor="start" x="118.0918" y="-311.6" font-family="courier new" font-size="8.00" fill="#000000">aws_lambda_permission</text>
<polygon fill="none" stroke="#000000" points="115.5,-291 115.5,-306 221.5,-306 221.5,-291 115.5,-291"/>
<text text-anchor="start" x="151.6973" y="-296.6" font-family="courier new" font-size="8.00" fill="#000000">default</text>
</g>
<!-- [root] aws_lambda_permission.default&#45;&gt;[root] aws_lambda_function.default -->
<g id="edge_3" class="edge">
<title>[root] aws_lambda_permission.default&#45;&gt;[root] aws_lambda_function.default</title>
<path fill="none" stroke="#000000" d="M168.5,-287.8314C168.5,-280.131 168.5,-270.9743 168.5,-262.4166"/>
<polygon fill="#000000" stroke="#000000" points="172.0001,-262.4132 168.5,-252.4133 165.0001,-262.4133 172.0001,-262.4132"/>
</g>
<!-- [root] var.aws_region -->
<g id="node_8" class="node">
<title>[root] var.aws_region</title>
<polygon fill="none" stroke="#000000" points="81.5,-18 81.5,-33 135.5,-33 135.5,-18 81.5,-18"/>
<text text-anchor="start" x="101.2988" y="-23.6" font-family="courier new" font-size="8.00" fill="#000000">var</text>
<polygon fill="none" stroke="#000000" points="81.5,-3 81.5,-18 135.5,-18 135.5,-3 81.5,-3"/>
<text text-anchor="start" x="84.4961" y="-8.6" font-family="courier new" font-size="8.00" fill="#000000">aws_region</text>
</g>
<!-- [root] provider.aws&#45;&gt;[root] var.aws_region -->
<g id="edge_10" class="edge">
<title>[root] provider.aws&#45;&gt;[root] var.aws_region</title>
<path fill="none" stroke="#000000" d="M108.5,-71.8314C108.5,-64.131 108.5,-54.9743 108.5,-46.4166"/>
<polygon fill="#000000" stroke="#000000" points="112.0001,-46.4132 108.5,-36.4133 105.0001,-46.4133 112.0001,-46.4132"/>
</g>
<!-- [root] meta.count&#45;boundary (count boundary fixup) -->
<g id="node_5" class="node">
<title>[root] meta.count&#45;boundary (count boundary fixup)</title>
<polygon fill="none" stroke="#000000" points="132.5,-378 132.5,-393 205.5,-393 205.5,-378 132.5,-378"/>
<text text-anchor="start" x="159.3984" y="-383.6" font-family="courier new" font-size="8.00" fill="#000000">meta</text>
<polygon fill="none" stroke="#000000" points="132.5,-363 132.5,-378 205.5,-378 205.5,-363 132.5,-363"/>
<text text-anchor="start" x="135.3945" y="-368.6" font-family="courier new" font-size="8.00" fill="#000000">count&#45;boundary</text>
</g>
<!-- [root] meta.count&#45;boundary (count boundary fixup)&#45;&gt;[root] aws_iam_role_policy.default -->
<g id="edge_4" class="edge">
<title>[root] meta.count&#45;boundary (count boundary fixup)&#45;&gt;[root] aws_iam_role_policy.default</title>
<path fill="none" stroke="#000000" d="M138.2189,-359.8314C122.8702,-350.6221 104.0502,-339.3301 87.6177,-329.4706"/>
<polygon fill="#000000" stroke="#000000" points="89.1471,-326.3066 78.7714,-324.1628 85.5456,-332.3091 89.1471,-326.3066"/>
</g>
<!-- [root] meta.count&#45;boundary (count boundary fixup)&#45;&gt;[root] aws_lambda_permission.default -->
<g id="edge_5" class="edge">
<title>[root] meta.count&#45;boundary (count boundary fixup)&#45;&gt;[root] aws_lambda_permission.default</title>
<path fill="none" stroke="#000000" d="M168.5,-359.8314C168.5,-352.131 168.5,-342.9743 168.5,-334.4166"/>
<polygon fill="#000000" stroke="#000000" points="172.0001,-334.4132 168.5,-324.4133 165.0001,-334.4133 172.0001,-334.4132"/>
</g>
<!-- [root] output.aws_lambda_function_arn -->
<g id="node_6" class="node">
<title>[root] output.aws_lambda_function_arn</title>
<polygon fill="none" stroke="#000000" points="239.5,-306 239.5,-321 355.5,-321 355.5,-306 239.5,-306"/>
<text text-anchor="start" x="283.0977" y="-311.6" font-family="courier new" font-size="8.00" fill="#000000">output</text>
<polygon fill="none" stroke="#000000" points="239.5,-291 239.5,-306 355.5,-306 355.5,-291 239.5,-291"/>
<text text-anchor="start" x="242.291" y="-296.6" font-family="courier new" font-size="8.00" fill="#000000">aws_lambda_function_arn</text>
</g>
<!-- [root] meta.count&#45;boundary (count boundary fixup)&#45;&gt;[root] output.aws_lambda_function_arn -->
<g id="edge_6" class="edge">
<title>[root] meta.count&#45;boundary (count boundary fixup)&#45;&gt;[root] output.aws_lambda_function_arn</title>
<path fill="none" stroke="#000000" d="M201.0521,-359.8314C217.7048,-350.5368 238.1585,-339.1208 255.9385,-329.1971"/>
<polygon fill="#000000" stroke="#000000" points="257.9321,-332.0927 264.9583,-324.1628 254.5205,-325.9803 257.9321,-332.0927"/>
</g>
<!-- [root] output.aws_lambda_function_arn&#45;&gt;[root] aws_lambda_function.default -->
<g id="edge_7" class="edge">
<title>[root] output.aws_lambda_function_arn&#45;&gt;[root] aws_lambda_function.default</title>
<path fill="none" stroke="#000000" d="M264.9479,-287.8314C248.2952,-278.5368 227.8415,-267.1208 210.0615,-257.1971"/>
<polygon fill="#000000" stroke="#000000" points="211.4795,-253.9803 201.0417,-252.1628 208.0679,-260.0927 211.4795,-253.9803"/>
</g>
<!-- [root] provider.aws (close) -->
<g id="node_7" class="node">
<title>[root] provider.aws (close)</title>
<polygon fill="none" stroke="#000000" points="64.5,-378 64.5,-393 108.5,-393 108.5,-378 64.5,-378"/>
<text text-anchor="start" x="67.2969" y="-383.6" font-family="courier new" font-size="8.00" fill="#000000">provider</text>
<polygon fill="none" stroke="#000000" points="64.5,-363 64.5,-378 108.5,-378 108.5,-363 64.5,-363"/>
<text text-anchor="start" x="79.2988" y="-368.6" font-family="courier new" font-size="8.00" fill="#000000">aws</text>
</g>
<!-- [root] provider.aws (close)&#45;&gt;[root] aws_iam_role_policy.default -->
<g id="edge_8" class="edge">
<title>[root] provider.aws (close)&#45;&gt;[root] aws_iam_role_policy.default</title>
<path fill="none" stroke="#000000" d="M76.911,-359.8314C72.6683,-351.7925 67.5879,-342.1666 62.904,-333.2918"/>
<polygon fill="#000000" stroke="#000000" points="65.9811,-331.6235 58.2181,-324.4133 59.7904,-334.8908 65.9811,-331.6235"/>
</g>
<!-- [root] provider.aws (close)&#45;&gt;[root] aws_lambda_permission.default -->
<g id="edge_9" class="edge">
<title>[root] provider.aws (close)&#45;&gt;[root] aws_lambda_permission.default</title>
<path fill="none" stroke="#000000" d="M107.1921,-359.8314C117.1948,-351.0485 129.355,-340.3712 140.1999,-330.8489"/>
<polygon fill="#000000" stroke="#000000" points="142.6094,-333.3909 147.8146,-324.1628 137.9908,-328.1308 142.6094,-333.3909"/>
</g>
<!-- [root] root -->
<g id="node_9" class="node">
<title>[root] root</title>
<polygon fill="none" stroke="#000000" points="161.8089,-468 93.1911,-468 93.1911,-432 161.8089,-432 161.8089,-468"/>
<text text-anchor="middle" x="127.5" y="-448.1313" font-family="courier new" font-size="8.00" fill="#000000">[root] root</text>
</g>
<!-- [root] root&#45;&gt;[root] meta.count&#45;boundary (count boundary fixup) -->
<g id="edge_11" class="edge">
<title>[root] root&#45;&gt;[root] meta.count&#45;boundary (count boundary fixup)</title>
<path fill="none" stroke="#000000" d="M137.846,-431.8314C142.4237,-423.7925 147.9052,-414.1666 152.9588,-405.2918"/>
<polygon fill="#000000" stroke="#000000" points="156.1077,-406.8351 158.0147,-396.4133 150.0248,-403.3712 156.1077,-406.8351"/>
</g>
<!-- [root] root&#45;&gt;[root] provider.aws (close) -->
<g id="edge_12" class="edge">
<title>[root] root&#45;&gt;[root] provider.aws (close)</title>
<path fill="none" stroke="#000000" d="M117.154,-431.8314C112.5763,-423.7925 107.0948,-414.1666 102.0412,-405.2918"/>
<polygon fill="#000000" stroke="#000000" points="104.9752,-403.3712 96.9853,-396.4133 98.8923,-406.8351 104.9752,-403.3712"/>
</g>
</g>
</svg>
