<svg xmlns="http://www.w3.org/2000/svg" xmlns:xlink="http://www.w3.org/1999/xlink" width="364pt" height="476pt" viewBox="0 0 363.5 476"><g id="graph0" class="graph" transform="scale(1 1) rotate(0) translate(4 472)"><title>%3</title><polygon fill="#fff" stroke="transparent" points="-4 4 -4 -472 359.5 -472 359.5 4 -4 4"/><g id="node_0" class="node"><title>[root] aws_iam_role.default</title><polygon fill="none" stroke="#000" points="77.5 -162 77.5 -177 140.5 -177 140.5 -162 77.5 -162"/><text x="80.195" y="-167.6" fill="#000" font-family="courier new" font-size="8" text-anchor="start">aws_iam_role</text><polygon fill="none" stroke="#000" points="77.5 -147 77.5 -162 140.5 -162 140.5 -147 77.5 -147"/><text x="92.197" y="-152.6" fill="#000" font-family="courier new" font-size="8" text-anchor="start">default</text></g><g id="node_4" class="node"><title>[root] provider.aws</title><polygon fill="none" stroke="#000" points="86.5 -90 86.5 -105 130.5 -105 130.5 -90 86.5 -90"/><text x="89.297" y="-95.6" fill="#000" font-family="courier new" font-size="8" text-anchor="start">provider</text><polygon fill="none" stroke="#000" points="86.5 -75 86.5 -90 130.5 -90 130.5 -75 86.5 -75"/><text x="101.299" y="-80.6" fill="#000" font-family="courier new" font-size="8" text-anchor="start">aws</text></g><g id="edge_0" class="edge"><title>[root] aws_iam_role.default-&gt;[root] provider.aws</title><path fill="none" stroke="#000" d="M108.5,-143.8314C108.5,-136.131 108.5,-126.9743 108.5,-118.4166"/><polygon fill="#000" stroke="#000" points="112 -118.413 108.5 -108.413 105 -118.413 112 -118.413"/></g><g id="node_1" class="node"><title>[root] aws_iam_role_policy.default</title><polygon fill="none" stroke="#000" points=".5 -306 .5 -321 97.5 -321 97.5 -306 .5 -306"/><text x="3.393" y="-311.6" fill="#000" font-family="courier new" font-size="8" text-anchor="start">aws_iam_role_policy</text><polygon fill="none" stroke="#000" points=".5 -291 .5 -306 97.5 -306 97.5 -291 .5 -291"/><text x="32.197" y="-296.6" fill="#000" font-family="courier new" font-size="8" text-anchor="start">default</text></g><g id="edge_1" class="edge"><title>[root] aws_iam_role_policy.default-&gt;[root] aws_iam_role.default</title><path fill="none" stroke="#000" d="M56.099,-287.7623C66.4231,-262.9846 84.9703,-218.4714 97.0025,-189.5939"/><polygon fill="#000" stroke="#000" points="100.347 -190.667 100.963 -180.09 93.886 -187.974 100.347 -190.667"/></g><g id="node_2" class="node"><title>[root] aws_lambda_function.default</title><polygon fill="none" stroke="#000" points="120.5 -234 120.5 -249 217.5 -249 217.5 -234 120.5 -234"/><text x="123.393" y="-239.6" fill="#000" font-family="courier new" font-size="8" text-anchor="start">aws_lambda_function</text><polygon fill="none" stroke="#000" points="120.5 -219 120.5 -234 217.5 -234 217.5 -219 120.5 -219"/><text x="152.197" y="-224.6" fill="#000" font-family="courier new" font-size="8" text-anchor="start">default</text></g><g id="edge_2" class="edge"><title>[root] aws_lambda_function.default-&gt;[root] aws_iam_role.default</title><path fill="none" stroke="#000" d="M153.3595,-215.8314C146.3783,-207.454 137.9609,-197.3531 130.3124,-188.1749"/><polygon fill="#000" stroke="#000" points="132.935 -185.855 123.844 -180.413 127.558 -190.336 132.935 -185.855"/></g><g id="node_3" class="node"><title>[root] aws_lambda_permission.default</title><polygon fill="none" stroke="#000" points="115.5 -306 115.5 -321 221.5 -321 221.5 -306 115.5 -306"/><text x="118.092" y="-311.6" fill="#000" font-family="courier new" font-size="8" text-anchor="start">aws_lambda_permission</text><polygon fill="none" stroke="#000" points="115.5 -291 115.5 -306 221.5 -306 221.5 -291 115.5 -291"/><text x="151.697" y="-296.6" fill="#000" font-family="courier new" font-size="8" text-anchor="start">default</text></g><g id="edge_3" class="edge"><title>[root] aws_lambda_permission.default-&gt;[root] aws_lambda_function.default</title><path fill="none" stroke="#000" d="M168.5,-287.8314C168.5,-280.131 168.5,-270.9743 168.5,-262.4166"/><polygon fill="#000" stroke="#000" points="172 -262.413 168.5 -252.413 165 -262.413 172 -262.413"/></g><g id="node_8" class="node"><title>[root] var.aws_region</title><polygon fill="none" stroke="#000" points="81.5 -18 81.5 -33 135.5 -33 135.5 -18 81.5 -18"/><text x="101.299" y="-23.6" fill="#000" font-family="courier new" font-size="8" text-anchor="start">var</text><polygon fill="none" stroke="#000" points="81.5 -3 81.5 -18 135.5 -18 135.5 -3 81.5 -3"/><text x="84.496" y="-8.6" fill="#000" font-family="courier new" font-size="8" text-anchor="start">aws_region</text></g><g id="edge_10" class="edge"><title>[root] provider.aws-&gt;[root] var.aws_region</title><path fill="none" stroke="#000" d="M108.5,-71.8314C108.5,-64.131 108.5,-54.9743 108.5,-46.4166"/><polygon fill="#000" stroke="#000" points="112 -46.413 108.5 -36.413 105 -46.413 112 -46.413"/></g><g id="node_5" class="node"><title>[root] meta.count-boundary (count boundary fixup)</title><polygon fill="none" stroke="#000" points="132.5 -378 132.5 -393 205.5 -393 205.5 -378 132.5 -378"/><text x="159.398" y="-383.6" fill="#000" font-family="courier new" font-size="8" text-anchor="start">meta</text><polygon fill="none" stroke="#000" points="132.5 -363 132.5 -378 205.5 -378 205.5 -363 132.5 -363"/><text x="135.394" y="-368.6" fill="#000" font-family="courier new" font-size="8" text-anchor="start">count-boundary</text></g><g id="edge_4" class="edge"><title>[root] meta.count-boundary (count boundary fixup)-&gt;[root] aws_iam_role_policy.default</title><path fill="none" stroke="#000" d="M138.2189,-359.8314C122.8702,-350.6221 104.0502,-339.3301 87.6177,-329.4706"/><polygon fill="#000" stroke="#000" points="89.147 -326.307 78.771 -324.163 85.546 -332.309 89.147 -326.307"/></g><g id="edge_5" class="edge"><title>[root] meta.count-boundary (count boundary fixup)-&gt;[root] aws_lambda_permission.default</title><path fill="none" stroke="#000" d="M168.5,-359.8314C168.5,-352.131 168.5,-342.9743 168.5,-334.4166"/><polygon fill="#000" stroke="#000" points="172 -334.413 168.5 -324.413 165 -334.413 172 -334.413"/></g><g id="node_6" class="node"><title>[root] output.aws_lambda_function_arn</title><polygon fill="none" stroke="#000" points="239.5 -306 239.5 -321 355.5 -321 355.5 -306 239.5 -306"/><text x="283.098" y="-311.6" fill="#000" font-family="courier new" font-size="8" text-anchor="start">output</text><polygon fill="none" stroke="#000" points="239.5 -291 239.5 -306 355.5 -306 355.5 -291 239.5 -291"/><text x="242.291" y="-296.6" fill="#000" font-family="courier new" font-size="8" text-anchor="start">aws_lambda_function_arn</text></g><g id="edge_6" class="edge"><title>[root] meta.count-boundary (count boundary fixup)-&gt;[root] output.aws_lambda_function_arn</title><path fill="none" stroke="#000" d="M201.0521,-359.8314C217.7048,-350.5368 238.1585,-339.1208 255.9385,-329.1971"/><polygon fill="#000" stroke="#000" points="257.932 -332.093 264.958 -324.163 254.52 -325.98 257.932 -332.093"/></g><g id="edge_7" class="edge"><title>[root] output.aws_lambda_function_arn-&gt;[root] aws_lambda_function.default</title><path fill="none" stroke="#000" d="M264.9479,-287.8314C248.2952,-278.5368 227.8415,-267.1208 210.0615,-257.1971"/><polygon fill="#000" stroke="#000" points="211.48 -253.98 201.042 -252.163 208.068 -260.093 211.48 -253.98"/></g><g id="node_7" class="node"><title>[root] provider.aws (close)</title><polygon fill="none" stroke="#000" points="64.5 -378 64.5 -393 108.5 -393 108.5 -378 64.5 -378"/><text x="67.297" y="-383.6" fill="#000" font-family="courier new" font-size="8" text-anchor="start">provider</text><polygon fill="none" stroke="#000" points="64.5 -363 64.5 -378 108.5 -378 108.5 -363 64.5 -363"/><text x="79.299" y="-368.6" fill="#000" font-family="courier new" font-size="8" text-anchor="start">aws</text></g><g id="edge_8" class="edge"><title>[root] provider.aws (close)-&gt;[root] aws_iam_role_policy.default</title><path fill="none" stroke="#000" d="M76.911,-359.8314C72.6683,-351.7925 67.5879,-342.1666 62.904,-333.2918"/><polygon fill="#000" stroke="#000" points="65.981 -331.623 58.218 -324.413 59.79 -334.891 65.981 -331.623"/></g><g id="edge_9" class="edge"><title>[root] provider.aws (close)-&gt;[root] aws_lambda_permission.default</title><path fill="none" stroke="#000" d="M107.1921,-359.8314C117.1948,-351.0485 129.355,-340.3712 140.1999,-330.8489"/><polygon fill="#000" stroke="#000" points="142.609 -333.391 147.815 -324.163 137.991 -328.131 142.609 -333.391"/></g><g id="node_9" class="node"><title>[root] root</title><polygon fill="none" stroke="#000" points="161.809 -468 93.191 -468 93.191 -432 161.809 -432 161.809 -468"/><text x="127.5" y="-448.131" fill="#000" font-family="courier new" font-size="8" text-anchor="middle">[root] root</text></g><g id="edge_11" class="edge"><title>[root] root-&gt;[root] meta.count-boundary (count boundary fixup)</title><path fill="none" stroke="#000" d="M137.846,-431.8314C142.4237,-423.7925 147.9052,-414.1666 152.9588,-405.2918"/><polygon fill="#000" stroke="#000" points="156.108 -406.835 158.015 -396.413 150.025 -403.371 156.108 -406.835"/></g><g id="edge_12" class="edge"><title>[root] root-&gt;[root] provider.aws (close)</title><path fill="none" stroke="#000" d="M117.154,-431.8314C112.5763,-423.7925 107.0948,-414.1666 102.0412,-405.2918"/><polygon fill="#000" stroke="#000" points="104.975 -403.371 96.985 -396.413 98.892 -406.835 104.975 -403.371"/></g></g></svg>