<svg xmlns="http://www.w3.org/2000/svg" xmlns:xlink="http://www.w3.org/1999/xlink" width="1073pt" height="404pt" viewBox="0 0 1073.31 404"><g id="graph0" class="graph" transform="scale(1 1) rotate(0) translate(4 400)"><title>%3</title><polygon fill="#fff" stroke="transparent" points="-4 4 -4 -400 1069.311 -400 1069.311 4 -4 4"/><g id="node_0" class="node"><title>[root] digitalocean_domain.mywebserver</title><polygon fill="none" stroke="#000" points=".5 -162 .5 -177 97.5 -177 97.5 -162 .5 -162"/><text x="3.393" y="-167.6" fill="#000" font-family="courier new" font-size="8" text-anchor="start">digitalocean_domain</text><polygon fill="none" stroke="#000" points=".5 -147 .5 -162 97.5 -162 97.5 -147 .5 -147"/><text x="22.596" y="-152.6" fill="#000" font-family="courier new" font-size="8" text-anchor="start">mywebserver</text></g><g id="node_1" class="node"><title>[root] digitalocean_droplet.mywebserver</title><polygon fill="none" stroke="#000" points="127.5 -90 127.5 -105 229.5 -105 229.5 -90 127.5 -90"/><text x="130.492" y="-95.6" fill="#000" font-family="courier new" font-size="8" text-anchor="start">digitalocean_droplet</text><polygon fill="none" stroke="#000" points="127.5 -75 127.5 -90 229.5 -90 229.5 -75 127.5 -75"/><text x="152.096" y="-80.6" fill="#000" font-family="courier new" font-size="8" text-anchor="start">mywebserver</text></g><g id="edge_0" class="edge"><title>[root] digitalocean_domain.mywebserver-&gt;[root] digitalocean_droplet.mywebserver</title><path fill="none" stroke="#000" d="M81.3045,-143.8314C98.0862,-134.5368 118.6985,-123.1208 136.6163,-113.1971"/><polygon fill="#000" stroke="#000" points="138.654 -116.07 145.706 -108.163 135.262 -109.946 138.654 -116.07"/></g><g id="node_3" class="node"><title>[root] provider.digitalocean</title><polygon fill="none" stroke="#000" points="70.5 -18 70.5 -33 133.5 -33 133.5 -18 70.5 -18"/><text x="82.797" y="-23.6" fill="#000" font-family="courier new" font-size="8" text-anchor="start">provider</text><polygon fill="none" stroke="#000" points="70.5 -3 70.5 -18 133.5 -18 133.5 -3 70.5 -3"/><text x="73.195" y="-8.6" fill="#000" font-family="courier new" font-size="8" text-anchor="start">digitalocean</text></g><g id="edge_1" class="edge"><title>[root] digitalocean_droplet.mywebserver-&gt;[root] provider.digitalocean</title><path fill="none" stroke="#000" d="M159.0696,-71.8314C149.768,-63.1337 138.4796,-52.5783 128.3714,-43.1265"/><polygon fill="#000" stroke="#000" points="130.619 -40.436 120.924 -36.163 125.838 -45.549 130.619 -40.436"/></g><g id="node_4" class="node"><title>[root] var.do_ams3</title><polygon fill="none" stroke="#000" points="159.5 -18 159.5 -33 198.5 -33 198.5 -18 159.5 -18"/><text x="171.799" y="-23.6" fill="#000" font-family="courier new" font-size="8" text-anchor="start">var</text><polygon fill="none" stroke="#000" points="159.5 -3 159.5 -18 198.5 -18 198.5 -3 159.5 -3"/><text x="162.197" y="-8.6" fill="#000" font-family="courier new" font-size="8" text-anchor="start">do_ams3</text></g><g id="edge_2" class="edge"><title>[root] digitalocean_droplet.mywebserver-&gt;[root] var.do_ams3</title><path fill="none" stroke="#000" d="M178.5,-71.8314C178.5,-64.131 178.5,-54.9743 178.5,-46.4166"/><polygon fill="#000" stroke="#000" points="182 -46.413 178.5 -36.413 175 -46.413 182 -46.413"/></g><g id="node_5" class="node"><title>[root] var.ubuntu</title><polygon fill="none" stroke="#000" points="233.5 -18 233.5 -33 267.5 -33 267.5 -18 233.5 -18"/><text x="243.299" y="-23.6" fill="#000" font-family="courier new" font-size="8" text-anchor="start">var</text><polygon fill="none" stroke="#000" points="233.5 -3 233.5 -18 267.5 -18 267.5 -3 233.5 -3"/><text x="236.098" y="-8.6" fill="#000" font-family="courier new" font-size="8" text-anchor="start">ubuntu</text></g><g id="edge_3" class="edge"><title>[root] digitalocean_droplet.mywebserver-&gt;[root] var.ubuntu</title><path fill="none" stroke="#000" d="M196.6686,-71.8314C205.2152,-63.2848 215.5557,-52.9443 224.8802,-43.6198"/><polygon fill="#000" stroke="#000" points="227.49 -45.959 232.087 -36.413 222.541 -41.01 227.49 -45.959"/></g><g id="node_2" class="node"><title>[root] digitalocean_record.mywebserver</title><polygon fill="none" stroke="#000" points="8.5 -234 8.5 -249 105.5 -249 105.5 -234 8.5 -234"/><text x="11.393" y="-239.6" fill="#000" font-family="courier new" font-size="8" text-anchor="start">digitalocean_record</text><polygon fill="none" stroke="#000" points="8.5 -219 8.5 -234 105.5 -234 105.5 -219 8.5 -219"/><text x="30.596" y="-224.6" fill="#000" font-family="courier new" font-size="8" text-anchor="start">mywebserver</text></g><g id="edge_4" class="edge"><title>[root] digitalocean_record.mywebserver-&gt;[root] digitalocean_domain.mywebserver</title><path fill="none" stroke="#000" d="M54.4813,-215.8314C53.6257,-208.131 52.6083,-198.9743 51.6574,-190.4166"/><polygon fill="#000" stroke="#000" points="55.129 -189.966 50.546 -180.413 48.172 -190.739 55.129 -189.966"/></g><g id="node_6" class="node"><title>[root] meta.count-boundary (count boundary fixup)</title><polygon fill="none" stroke="#000" points="478.5 -306 478.5 -321 551.5 -321 551.5 -306 478.5 -306"/><text x="505.398" y="-311.6" fill="#000" font-family="courier new" font-size="8" text-anchor="start">meta</text><polygon fill="none" stroke="#000" points="478.5 -291 478.5 -306 551.5 -306 551.5 -291 478.5 -291"/><text x="481.394" y="-296.6" fill="#000" font-family="courier new" font-size="8" text-anchor="start">count-boundary</text></g><g id="edge_5" class="edge"><title>[root] meta.count-boundary (count boundary fixup)-&gt;[root] digitalocean_record.mywebserver</title><path fill="none" stroke="#000" d="M477.9877,-302.7631C407.9418,-296.1671 250.0601,-279.43 119.5,-252 118.0389,-251.693 116.562,-251.3702 115.0748,-251.034"/><polygon fill="#000" stroke="#000" points="115.709 -247.587 105.168 -248.646 114.069 -254.392 115.709 -247.587"/></g><g id="node_7" class="node"><title>[root] output.Name</title><polygon fill="none" stroke="#000" points="125.5 -162 125.5 -177 159.5 -177 159.5 -162 125.5 -162"/><text x="128.098" y="-167.6" fill="#000" font-family="courier new" font-size="8" text-anchor="start">output</text><polygon fill="none" stroke="#000" points="125.5 -147 125.5 -162 159.5 -162 159.5 -147 125.5 -147"/><text x="132.898" y="-152.6" fill="#000" font-family="courier new" font-size="8" text-anchor="start">Name</text></g><g id="edge_6" class="edge"><title>[root] meta.count-boundary (count boundary fixup)-&gt;[root] output.Name</title><path fill="none" stroke="#000" d="M477.7425,-304.5195C400.6082,-300.7197 225.2033,-288.2297 179.5,-252 160.5602,-236.9861 151.2339,-210.6459 146.6912,-190.3274"/><polygon fill="#000" stroke="#000" points="150.091 -189.479 144.726 -180.343 143.223 -190.831 150.091 -189.479"/></g><g id="node_8" class="node"><title>[root] output.Public ip</title><polygon fill="none" stroke="#000" points="197.5 -162 197.5 -177 231.5 -177 231.5 -162 197.5 -162"/><text x="200.098" y="-167.6" fill="#000" font-family="courier new" font-size="8" text-anchor="start">output</text><polygon fill="none" stroke="#000" points="197.5 -147 197.5 -162 231.5 -162 231.5 -147 197.5 -147"/><text x="200.098" y="-152.6" fill="#000" font-family="courier new" font-size="8" text-anchor="start">Public</text></g><g id="edge_7" class="edge"><title>[root] meta.count-boundary (count boundary fixup)-&gt;[root] output.Public ip</title><path fill="none" stroke="#000" d="M477.7206,-302.5317C396.7858,-294.529 208.9531,-273.7831 190.5,-252 175.6113,-234.4244 184.7213,-208.5439 195.7332,-189.0417"/><polygon fill="#000" stroke="#000" points="198.833 -190.681 201.02 -180.314 192.845 -187.054 198.833 -190.681"/></g><g id="node_9" class="node"><title>[root] var.centos</title><polygon fill="none" stroke="#000" points="209.5 -234 209.5 -249 243.5 -249 243.5 -234 209.5 -234"/><text x="219.299" y="-239.6" fill="#000" font-family="courier new" font-size="8" text-anchor="start">var</text><polygon fill="none" stroke="#000" points="209.5 -219 209.5 -234 243.5 -234 243.5 -219 209.5 -219"/><text x="212.098" y="-224.6" fill="#000" font-family="courier new" font-size="8" text-anchor="start">centos</text></g><g id="edge_8" class="edge"><title>[root] meta.count-boundary (count boundary fixup)-&gt;[root] var.centos</title><path fill="none" stroke="#000" d="M477.8229,-301.1122C429.9966,-294.0998 343.874,-279.2836 263.479,-251.8963"/><polygon fill="#000" stroke="#000" points="264.301 -248.476 253.706 -248.494 261.999 -255.087 264.301 -248.476"/></g><g id="node_10" class="node"><title>[root] var.coreos</title><polygon fill="none" stroke="#000" points="281.5 -234 281.5 -249 315.5 -249 315.5 -234 281.5 -234"/><text x="291.299" y="-239.6" fill="#000" font-family="courier new" font-size="8" text-anchor="start">var</text><polygon fill="none" stroke="#000" points="281.5 -219 281.5 -234 315.5 -234 315.5 -219 281.5 -219"/><text x="284.098" y="-224.6" fill="#000" font-family="courier new" font-size="8" text-anchor="start">coreos</text></g><g id="edge_9" class="edge"><title>[root] meta.count-boundary (count boundary fixup)-&gt;[root] var.coreos</title><path fill="none" stroke="#000" d="M477.6726,-296.9433C442.8568,-287.9454 389.1505,-272.94 335.1639,-251.9573"/><polygon fill="#000" stroke="#000" points="336.382 -248.675 325.795 -248.256 333.809 -255.185 336.382 -248.675"/></g><g id="node_11" class="node"><title>[root] var.do_ams2</title><polygon fill="none" stroke="#000" points="351.5 -234 351.5 -249 390.5 -249 390.5 -234 351.5 -234"/><text x="363.799" y="-239.6" fill="#000" font-family="courier new" font-size="8" text-anchor="start">var</text><polygon fill="none" stroke="#000" points="351.5 -219 351.5 -234 390.5 -234 390.5 -219 351.5 -219"/><text x="354.197" y="-224.6" fill="#000" font-family="courier new" font-size="8" text-anchor="start">do_ams2</text></g><g id="edge_10" class="edge"><title>[root] meta.count-boundary (count boundary fixup)-&gt;[root] var.do_ams2</title><path fill="none" stroke="#000" d="M478.1627,-287.8314C456.2917,-276.8959 428.5472,-263.0236 406.7008,-252.1004"/><polygon fill="#000" stroke="#000" points="408.243 -248.958 397.733 -247.617 405.112 -255.219 408.243 -248.958"/></g><g id="node_12" class="node"><title>[root] var.do_blr1</title><polygon fill="none" stroke="#000" points="423.5 -234 423.5 -249 462.5 -249 462.5 -234 423.5 -234"/><text x="435.799" y="-239.6" fill="#000" font-family="courier new" font-size="8" text-anchor="start">var</text><polygon fill="none" stroke="#000" points="423.5 -219 423.5 -234 462.5 -234 462.5 -219 423.5 -219"/><text x="426.197" y="-224.6" fill="#000" font-family="courier new" font-size="8" text-anchor="start">do_blr1</text></g><g id="edge_11" class="edge"><title>[root] meta.count-boundary (count boundary fixup)-&gt;[root] var.do_blr1</title><path fill="none" stroke="#000" d="M496.3314,-287.8314C487.7848,-279.2848 477.4443,-268.9443 468.1198,-259.6198"/><polygon fill="#000" stroke="#000" points="470.459 -257.01 460.913 -252.413 465.51 -261.959 470.459 -257.01"/></g><g id="node_13" class="node"><title>[root] var.do_fra1</title><polygon fill="none" stroke="#000" points="495.5 -234 495.5 -249 534.5 -249 534.5 -234 495.5 -234"/><text x="507.799" y="-239.6" fill="#000" font-family="courier new" font-size="8" text-anchor="start">var</text><polygon fill="none" stroke="#000" points="495.5 -219 495.5 -234 534.5 -234 534.5 -219 495.5 -219"/><text x="498.197" y="-224.6" fill="#000" font-family="courier new" font-size="8" text-anchor="start">do_fra1</text></g><g id="edge_12" class="edge"><title>[root] meta.count-boundary (count boundary fixup)-&gt;[root] var.do_fra1</title><path fill="none" stroke="#000" d="M514.5,-287.8314C514.5,-280.131 514.5,-270.9743 514.5,-262.4166"/><polygon fill="#000" stroke="#000" points="518 -262.413 514.5 -252.413 511 -262.413 518 -262.413"/></g><g id="node_14" class="node"><title>[root] var.do_lon1</title><polygon fill="none" stroke="#000" points="567.5 -234 567.5 -249 606.5 -249 606.5 -234 567.5 -234"/><text x="579.799" y="-239.6" fill="#000" font-family="courier new" font-size="8" text-anchor="start">var</text><polygon fill="none" stroke="#000" points="567.5 -219 567.5 -234 606.5 -234 606.5 -219 567.5 -219"/><text x="570.197" y="-224.6" fill="#000" font-family="courier new" font-size="8" text-anchor="start">do_lon1</text></g><g id="edge_13" class="edge"><title>[root] meta.count-boundary (count boundary fixup)-&gt;[root] var.do_lon1</title><path fill="none" stroke="#000" d="M532.6686,-287.8314C541.2152,-279.2848 551.5557,-268.9443 560.8802,-259.6198"/><polygon fill="#000" stroke="#000" points="563.49 -261.959 568.087 -252.413 558.541 -257.01 563.49 -261.959"/></g><g id="node_15" class="node"><title>[root] var.do_nyc1</title><polygon fill="none" stroke="#000" points="639.5 -234 639.5 -249 678.5 -249 678.5 -234 639.5 -234"/><text x="651.799" y="-239.6" fill="#000" font-family="courier new" font-size="8" text-anchor="start">var</text><polygon fill="none" stroke="#000" points="639.5 -219 639.5 -234 678.5 -234 678.5 -219 639.5 -219"/><text x="642.197" y="-224.6" fill="#000" font-family="courier new" font-size="8" text-anchor="start">do_nyc1</text></g><g id="edge_14" class="edge"><title>[root] meta.count-boundary (count boundary fixup)-&gt;[root] var.do_nyc1</title><path fill="none" stroke="#000" d="M550.8373,-287.8314C572.7083,-276.8959 600.4528,-263.0236 622.2992,-252.1004"/><polygon fill="#000" stroke="#000" points="623.888 -255.219 631.267 -247.617 620.757 -248.958 623.888 -255.219"/></g><g id="node_16" class="node"><title>[root] var.do_nyc2</title><polygon fill="none" stroke="#000" points="711.5 -234 711.5 -249 750.5 -249 750.5 -234 711.5 -234"/><text x="723.799" y="-239.6" fill="#000" font-family="courier new" font-size="8" text-anchor="start">var</text><polygon fill="none" stroke="#000" points="711.5 -219 711.5 -234 750.5 -234 750.5 -219 711.5 -219"/><text x="714.197" y="-224.6" fill="#000" font-family="courier new" font-size="8" text-anchor="start">do_nyc2</text></g><g id="edge_15" class="edge"><title>[root] meta.count-boundary (count boundary fixup)-&gt;[root] var.do_nyc2</title><path fill="none" stroke="#000" d="M551.3274,-296.9433C586.1432,-287.9454 639.8495,-272.94 693.8361,-251.9573"/><polygon fill="#000" stroke="#000" points="695.191 -255.185 703.205 -248.256 692.618 -248.675 695.191 -255.185"/></g><g id="node_17" class="node"><title>[root] var.do_nyc3</title><polygon fill="none" stroke="#000" points="783.5 -234 783.5 -249 822.5 -249 822.5 -234 783.5 -234"/><text x="795.799" y="-239.6" fill="#000" font-family="courier new" font-size="8" text-anchor="start">var</text><polygon fill="none" stroke="#000" points="783.5 -219 783.5 -234 822.5 -234 822.5 -219 783.5 -219"/><text x="786.197" y="-224.6" fill="#000" font-family="courier new" font-size="8" text-anchor="start">do_nyc3</text></g><g id="edge_16" class="edge"><title>[root] meta.count-boundary (count boundary fixup)-&gt;[root] var.do_nyc3</title><path fill="none" stroke="#000" d="M551.1771,-301.1122C599.0034,-294.0998 685.126,-279.2836 765.521,-251.8963"/><polygon fill="#000" stroke="#000" points="767.001 -255.087 775.294 -248.494 764.699 -248.476 767.001 -255.087"/></g><g id="node_18" class="node"><title>[root] var.do_sfo1</title><polygon fill="none" stroke="#000" points="855.5 -234 855.5 -249 894.5 -249 894.5 -234 855.5 -234"/><text x="867.799" y="-239.6" fill="#000" font-family="courier new" font-size="8" text-anchor="start">var</text><polygon fill="none" stroke="#000" points="855.5 -219 855.5 -234 894.5 -234 894.5 -219 855.5 -219"/><text x="858.197" y="-224.6" fill="#000" font-family="courier new" font-size="8" text-anchor="start">do_sfo1</text></g><g id="edge_17" class="edge"><title>[root] meta.count-boundary (count boundary fixup)-&gt;[root] var.do_sfo1</title><path fill="none" stroke="#000" d="M551.3013,-303.453C610.5128,-298.591 730.3426,-285.593 837.6597,-251.7527"/><polygon fill="#000" stroke="#000" points="838.897 -255.031 847.34 -248.631 836.749 -248.369 838.897 -255.031"/></g><g id="node_19" class="node"><title>[root] var.do_sgp1</title><polygon fill="none" stroke="#000" points="927.5 -234 927.5 -249 966.5 -249 966.5 -234 927.5 -234"/><text x="939.799" y="-239.6" fill="#000" font-family="courier new" font-size="8" text-anchor="start">var</text><polygon fill="none" stroke="#000" points="927.5 -219 927.5 -234 966.5 -234 966.5 -219 927.5 -219"/><text x="930.197" y="-224.6" fill="#000" font-family="courier new" font-size="8" text-anchor="start">do_sgp1</text></g><g id="edge_18" class="edge"><title>[root] meta.count-boundary (count boundary fixup)-&gt;[root] var.do_sgp1</title><path fill="none" stroke="#000" d="M551.1213,-304.9901C620.3711,-302.238 774.9163,-292.0657 909.6999,-251.6809"/><polygon fill="#000" stroke="#000" points="910.831 -254.995 919.369 -248.721 908.782 -248.302 910.831 -254.995"/></g><g id="node_20" class="node"><title>[root] var.do_tor1</title><polygon fill="none" stroke="#000" points="999.5 -234 999.5 -249 1038.5 -249 1038.5 -234 999.5 -234"/><text x="1011.799" y="-239.6" fill="#000" font-family="courier new" font-size="8" text-anchor="start">var</text><polygon fill="none" stroke="#000" points="999.5 -219 999.5 -234 1038.5 -234 1038.5 -219 999.5 -219"/><text x="1002.197" y="-224.6" fill="#000" font-family="courier new" font-size="8" text-anchor="start">do_tor1</text></g><g id="edge_19" class="edge"><title>[root] meta.count-boundary (count boundary fixup)-&gt;[root] var.do_tor1</title><path fill="none" stroke="#000" d="M551.1475,-303.4257C643.4208,-296.6899 884.3242,-277.4645 981.6114,-251.5585"/><polygon fill="#000" stroke="#000" points="982.724 -254.881 991.388 -248.783 980.812 -248.147 982.724 -254.881"/></g><g id="edge_20" class="edge"><title>[root] output.Name-&gt;[root] digitalocean_droplet.mywebserver</title><path fill="none" stroke="#000" d="M151.5843,-143.8314C155.5615,-135.8771 160.3155,-126.369 164.7139,-117.5723"/><polygon fill="#000" stroke="#000" points="167.952 -118.923 169.293 -108.413 161.691 -115.792 167.952 -118.923"/></g><g id="edge_21" class="edge"><title>[root] output.Public ip-&gt;[root] digitalocean_droplet.mywebserver</title><path fill="none" stroke="#000" d="M205.4157,-143.8314C201.4385,-135.8771 196.6845,-126.369 192.2861,-117.5723"/><polygon fill="#000" stroke="#000" points="195.309 -115.792 187.707 -108.413 189.048 -118.923 195.309 -115.792"/></g><g id="node_21" class="node"><title>[root] provider.digitalocean (close)</title><polygon fill="none" stroke="#000" points="211.5 -306 211.5 -321 274.5 -321 274.5 -306 211.5 -306"/><text x="223.797" y="-311.6" fill="#000" font-family="courier new" font-size="8" text-anchor="start">provider</text><polygon fill="none" stroke="#000" points="211.5 -291 211.5 -306 274.5 -306 274.5 -291 211.5 -291"/><text x="214.195" y="-296.6" fill="#000" font-family="courier new" font-size="8" text-anchor="start">digitalocean</text></g><g id="edge_22" class="edge"><title>[root] provider.digitalocean (close)-&gt;[root] digitalocean_record.mywebserver</title><path fill="none" stroke="#000" d="M210.9476,-293.7862C184.1779,-283.4237 145.1133,-268.3019 112.9705,-255.8596"/><polygon fill="#000" stroke="#000" points="113.828 -252.438 103.239 -252.092 111.301 -258.966 113.828 -252.438"/></g><g id="node_22" class="node"><title>[root] provisioner.remote-exec (close)</title><polygon fill="none" stroke="#000" points="806.5 -306 806.5 -321 864.5 -321 864.5 -306 806.5 -306"/><text x="809.096" y="-311.6" fill="#000" font-family="courier new" font-size="8" text-anchor="start">provisioner</text><polygon fill="none" stroke="#000" points="806.5 -291 806.5 -306 864.5 -306 864.5 -291 806.5 -291"/><text x="809.096" y="-296.6" fill="#000" font-family="courier new" font-size="8" text-anchor="start">remote-exec</text></g><g id="edge_23" class="edge"><title>[root] provisioner.remote-exec (close)-&gt;[root] digitalocean_droplet.mywebserver</title><path fill="none" stroke="#000" d="M864.6822,-304.2902C936.0527,-299.0878 1109.6819,-279.6869 1054.5,-216 1000.9333,-154.1772 430.2988,-108.0191 239.9232,-94.2451"/><polygon fill="#000" stroke="#000" points="240.032 -90.744 229.807 -93.518 239.53 -97.726 240.032 -90.744"/></g><g id="node_23" class="node"><title>[root] root</title><polygon fill="none" stroke="#000" points="548.809 -396 480.191 -396 480.191 -360 548.809 -360 548.809 -396"/><text x="514.5" y="-376.131" fill="#000" font-family="courier new" font-size="8" text-anchor="middle">[root] root</text></g><g id="edge_24" class="edge"><title>[root] root-&gt;[root] meta.count-boundary (count boundary fixup)</title><path fill="none" stroke="#000" d="M514.5,-359.8314C514.5,-352.131 514.5,-342.9743 514.5,-334.4166"/><polygon fill="#000" stroke="#000" points="518 -334.413 514.5 -324.413 511 -334.413 518 -334.413"/></g><g id="edge_25" class="edge"><title>[root] root-&gt;[root] provider.digitalocean (close)</title><path fill="none" stroke="#000" d="M480.051,-368.8812C430.0927,-355.6569 337.6587,-331.1891 284.0102,-316.988"/><polygon fill="#000" stroke="#000" points="284.705 -313.551 274.142 -314.376 282.914 -320.318 284.705 -313.551"/></g><g id="edge_26" class="edge"><title>[root] root-&gt;[root] provisioner.remote-exec (close)</title><path fill="none" stroke="#000" d="M548.8526,-370.2947C608.91,-356.8239 732.6272,-329.0743 796.0761,-314.8427"/><polygon fill="#000" stroke="#000" points="797.1 -318.2 806.091 -312.596 795.567 -311.37 797.1 -318.2"/></g></g></svg>