<?xml version="1.0" encoding="UTF-8" standalone="no"?>
<!DOCTYPE svg PUBLIC "-//W3C//DTD SVG 1.1//EN"
 "http://www.w3.org/Graphics/SVG/1.1/DTD/svg11.dtd">
<!-- Generated by graphviz version 2.43.0 (0)
 -->
<!-- Title: %3 Pages: 1 -->
<svg width="165pt" height="348pt"
 viewBox="0.00 0.00 164.50 348.00" xmlns="http://www.w3.org/2000/svg" xmlns:xlink="http://www.w3.org/1999/xlink">
<g id="graph0" class="graph" transform="scale(1 1) rotate(0) translate(4 344)">
<title>%3</title>
<polygon fill="white" stroke="transparent" points="-4,4 -4,-344 160.5,-344 160.5,4 -4,4"/>
<g id="clust2" class="cluster">
<title>cluster[root] ibm_container_vpc_cluster.k8s_cluster_var_</title>
</g>
<!-- [root] ibm_container_vpc_cluster.k8s_cluster -->
<g id="node_0" class="node">
<title>[root] ibm_container_vpc_cluster.k8s_cluster</title>
<polygon fill="none" stroke="black" points="14.5,-178 14.5,-193 140.5,-193 140.5,-178 14.5,-178"/>
<text text-anchor="start" x="17.49" y="-183.6" font-family="courier new" font-size="8.00">ibm_container_vpc_cluster</text>
<polygon fill="none" stroke="black" points="14.5,-163 14.5,-178 140.5,-178 140.5,-163 14.5,-163"/>
<text text-anchor="start" x="51.1" y="-168.6" font-family="courier new" font-size="8.00">k8s_cluster</text>
</g>
<!-- [root] provider.ibm -->
<g id="node_1" class="node">
<title>[root] provider.ibm</title>
<polygon fill="none" stroke="black" points="19.5,-106 19.5,-121 63.5,-121 63.5,-106 19.5,-106"/>
<text text-anchor="start" x="22.3" y="-111.6" font-family="courier new" font-size="8.00">provider</text>
<polygon fill="none" stroke="black" points="19.5,-91 19.5,-106 63.5,-106 63.5,-91 19.5,-91"/>
<text text-anchor="start" x="34.3" y="-96.6" font-family="courier new" font-size="8.00">ibm</text>
</g>
<!-- [root] ibm_container_vpc_cluster.k8s_cluster&#45;&gt;[root] provider.ibm -->
<g id="edge_0" class="edge">
<title>[root] ibm_container_vpc_cluster.k8s_cluster&#45;&gt;[root] provider.ibm</title>
<path fill="none" stroke="black" d="M68.6,-159.7C64.5,-151.73 59.55,-142.1 55.01,-133.26"/>
<polygon fill="black" stroke="black" points="57.98,-131.4 50.3,-124.1 51.76,-134.6 57.98,-131.4"/>
</g>
<!-- [root] var.subnets -->
<g id="node_2" class="node">
<title>[root] var.subnets</title>
<polygon fill="none" stroke="black" points="94.5,-106 94.5,-121 133.5,-121 133.5,-106 94.5,-106"/>
<text text-anchor="start" x="106.8" y="-111.6" font-family="courier new" font-size="8.00">var</text>
<polygon fill="none" stroke="black" points="94.5,-91 94.5,-106 133.5,-106 133.5,-91 94.5,-91"/>
<text text-anchor="start" x="97.2" y="-96.6" font-family="courier new" font-size="8.00">subnets</text>
</g>
<!-- [root] ibm_container_vpc_cluster.k8s_cluster&#45;&gt;[root] var.subnets -->
<g id="edge_1" class="edge">
<title>[root] ibm_container_vpc_cluster.k8s_cluster&#45;&gt;[root] var.subnets</title>
<path fill="none" stroke="black" d="M86.4,-159.7C90.5,-151.73 95.45,-142.1 99.99,-133.26"/>
<polygon fill="black" stroke="black" points="103.24,-134.6 104.7,-124.1 97.02,-131.4 103.24,-134.6"/>
</g>
<!-- [root] meta.count&#45;boundary (EachMode fixup) -->
<g id="node_4" class="node">
<title>[root] meta.count&#45;boundary (EachMode fixup)</title>
<polygon fill="none" stroke="black" points="0.5,-250 0.5,-265 73.5,-265 73.5,-250 0.5,-250"/>
<text text-anchor="start" x="27.4" y="-255.6" font-family="courier new" font-size="8.00">meta</text>
<polygon fill="none" stroke="black" points="0.5,-235 0.5,-250 73.5,-250 73.5,-235 0.5,-235"/>
<text text-anchor="start" x="3.39" y="-240.6" font-family="courier new" font-size="8.00">count&#45;boundary</text>
</g>
<!-- [root] meta.count&#45;boundary (EachMode fixup)&#45;&gt;[root] ibm_container_vpc_cluster.k8s_cluster -->
<g id="edge_3" class="edge">
<title>[root] meta.count&#45;boundary (EachMode fixup)&#45;&gt;[root] ibm_container_vpc_cluster.k8s_cluster</title>
<path fill="none" stroke="black" d="M46.63,-231.7C51.35,-223.64 57.06,-213.89 62.28,-204.98"/>
<polygon fill="black" stroke="black" points="65.45,-206.5 67.48,-196.1 59.41,-202.96 65.45,-206.5"/>
</g>
<!-- [root] provider.ibm (close) -->
<g id="node_5" class="node">
<title>[root] provider.ibm (close)</title>
<polygon fill="none" stroke="black" points="96.5,-250 96.5,-265 140.5,-265 140.5,-250 96.5,-250"/>
<text text-anchor="start" x="99.3" y="-255.6" font-family="courier new" font-size="8.00">provider</text>
<polygon fill="none" stroke="black" points="96.5,-235 96.5,-250 140.5,-250 140.5,-235 96.5,-235"/>
<text text-anchor="start" x="111.3" y="-240.6" font-family="courier new" font-size="8.00">ibm</text>
</g>
<!-- [root] provider.ibm (close)&#45;&gt;[root] ibm_container_vpc_cluster.k8s_cluster -->
<g id="edge_4" class="edge">
<title>[root] provider.ibm (close)&#45;&gt;[root] ibm_container_vpc_cluster.k8s_cluster</title>
<path fill="none" stroke="black" d="M108.37,-231.7C103.65,-223.64 97.94,-213.89 92.72,-204.98"/>
<polygon fill="black" stroke="black" points="95.59,-202.96 87.52,-196.1 89.55,-206.5 95.59,-202.96"/>
</g>
<!-- [root] root -->
<g id="node_6" class="node">
<title>[root] root</title>
<polygon fill="none" stroke="black" points="111.81,-340 43.19,-340 43.19,-304 111.81,-304 111.81,-340"/>
<text text-anchor="middle" x="77.5" y="-320.13" font-family="courier new" font-size="8.00">[root] root</text>
</g>
<!-- [root] root&#45;&gt;[root] meta.count&#45;boundary (EachMode fixup) -->
<g id="edge_5" class="edge">
<title>[root] root&#45;&gt;[root] meta.count&#45;boundary (EachMode fixup)</title>
<path fill="none" stroke="black" d="M67.37,-303.7C62.65,-295.64 56.94,-285.89 51.72,-276.98"/>
<polygon fill="black" stroke="black" points="54.59,-274.96 46.52,-268.1 48.55,-278.5 54.59,-274.96"/>
</g>
<!-- [root] root&#45;&gt;[root] provider.ibm (close) -->
<g id="edge_6" class="edge">
<title>[root] root&#45;&gt;[root] provider.ibm (close)</title>
<path fill="none" stroke="black" d="M87.63,-303.7C92.35,-295.64 98.06,-285.89 103.28,-276.98"/>
<polygon fill="black" stroke="black" points="106.45,-278.5 108.48,-268.1 100.41,-274.96 106.45,-278.5"/>
</g>
<!-- [root] var.vpc -->
<g id="node_3" class="node">
<title>[root] var.vpc</title>
<polygon fill="none" stroke="black" points="103.5,-34 103.5,-49 123.5,-49 123.5,-34 103.5,-34"/>
<text text-anchor="start" x="106.3" y="-39.6" font-family="courier new" font-size="8.00">var</text>
<polygon fill="none" stroke="black" points="103.5,-19 103.5,-34 123.5,-34 123.5,-19 103.5,-19"/>
<text text-anchor="start" x="106.3" y="-24.6" font-family="courier new" font-size="8.00">vpc</text>
</g>
<!-- [root] var.subnets&#45;&gt;[root] var.vpc -->
<g id="edge_7" class="edge">
<title>[root] var.subnets&#45;&gt;[root] var.vpc</title>
<path fill="none" stroke="black" stroke-dasharray="5,2" d="M113.5,-87.7C113.5,-76.85 113.5,-62.92 113.5,-52.1"/>
</g>
</g>
</svg>
