<?xml version="1.0" encoding="UTF-8" standalone="no"?>
<!DOCTYPE svg PUBLIC "-//W3C//DTD SVG 1.1//EN"
 "http://www.w3.org/Graphics/SVG/1.1/DTD/svg11.dtd">
<!-- Generated by graphviz version 2.43.0 (0)
 -->
<!-- Title: %3 Pages: 1 -->
<svg width="169pt" height="348pt"
 viewBox="0.00 0.00 168.50 348.00" xmlns="http://www.w3.org/2000/svg" xmlns:xlink="http://www.w3.org/1999/xlink">
<g id="graph0" class="graph" transform="scale(1 1) rotate(0) translate(4 344)">
<title>%3</title>
<polygon fill="white" stroke="transparent" points="-4,4 -4,-344 164.5,-344 164.5,4 -4,4"/>
<g id="clust2" class="cluster">
<title>cluster[root] ibm_container_vpc_cluster.k8s_cluster_var_</title>
</g>
<!-- [root] ibm_container_vpc_cluster.k8s_cluster -->
<g id="node_0" class="node">
<title>[root] ibm_container_vpc_cluster.k8s_cluster</title>
<polygon fill="none" stroke="black" points="2.5,-178 2.5,-193 128.5,-193 128.5,-178 2.5,-178"/>
<text text-anchor="start" x="5.49" y="-183.6" font-family="courier new" font-size="8.00">ibm_container_vpc_cluster</text>
<polygon fill="none" stroke="black" points="128.5,-163 128.5,-193 134.5,-193 134.5,-163 128.5,-163"/>
<polygon fill="none" stroke="black" points="134.5,-163 134.5,-193 154.5,-193 154.5,-163 134.5,-163"/>
<text text-anchor="start" x="137.3" y="-176.13" font-family="courier new" font-size="8.00">&#45;/+</text>
<polygon fill="none" stroke="black" points="154.5,-163 154.5,-193 160.5,-193 160.5,-163 154.5,-163"/>
<polygon fill="none" stroke="black" points="2.5,-163 2.5,-178 128.5,-178 128.5,-163 2.5,-163"/>
<text text-anchor="start" x="39.1" y="-168.6" font-family="courier new" font-size="8.00">k8s_cluster</text>
</g>
<!-- [root] provider.ibm -->
<g id="node_1" class="node">
<title>[root] provider.ibm</title>
<polygon fill="none" stroke="black" points="20.5,-106 20.5,-121 64.5,-121 64.5,-106 20.5,-106"/>
<text text-anchor="start" x="23.3" y="-111.6" font-family="courier new" font-size="8.00">provider</text>
<polygon fill="none" stroke="black" points="64.5,-91 64.5,-121 70.5,-121 70.5,-91 64.5,-91"/>
<polygon fill="none" stroke="black" points="20.5,-91 20.5,-106 64.5,-106 64.5,-91 20.5,-91"/>
<text text-anchor="start" x="35.3" y="-96.6" font-family="courier new" font-size="8.00">ibm</text>
</g>
<!-- [root] ibm_container_vpc_cluster.k8s_cluster&#45;&gt;[root] provider.ibm -->
<g id="edge_0" class="edge">
<title>[root] ibm_container_vpc_cluster.k8s_cluster&#45;&gt;[root] provider.ibm</title>
<path fill="none" stroke="black" d="M72.6,-159.7C68.5,-151.73 63.55,-142.1 59.01,-133.26"/>
<polygon fill="black" stroke="black" points="61.98,-131.4 54.3,-124.1 55.76,-134.6 61.98,-131.4"/>
</g>
<!-- [root] var.subnets -->
<g id="node_2" class="node">
<title>[root] var.subnets</title>
<polygon fill="none" stroke="black" points="95.5,-106 95.5,-121 134.5,-121 134.5,-106 95.5,-106"/>
<text text-anchor="start" x="107.8" y="-111.6" font-family="courier new" font-size="8.00">var</text>
<polygon fill="none" stroke="black" points="134.5,-91 134.5,-121 140.5,-121 140.5,-91 134.5,-91"/>
<polygon fill="none" stroke="black" points="95.5,-91 95.5,-106 134.5,-106 134.5,-91 95.5,-91"/>
<text text-anchor="start" x="98.2" y="-96.6" font-family="courier new" font-size="8.00">subnets</text>
</g>
<!-- [root] ibm_container_vpc_cluster.k8s_cluster&#45;&gt;[root] var.subnets -->
<g id="edge_1" class="edge">
<title>[root] ibm_container_vpc_cluster.k8s_cluster&#45;&gt;[root] var.subnets</title>
<path fill="none" stroke="black" d="M90.4,-159.7C94.5,-151.73 99.45,-142.1 103.99,-133.26"/>
<polygon fill="black" stroke="black" points="107.24,-134.6 108.7,-124.1 101.02,-131.4 107.24,-134.6"/>
</g>
<!-- [root] meta.count&#45;boundary (EachMode fixup) -->
<g id="node_4" class="node">
<title>[root] meta.count&#45;boundary (EachMode fixup)</title>
<polygon fill="none" stroke="black" points="0.5,-250 0.5,-265 73.5,-265 73.5,-250 0.5,-250"/>
<text text-anchor="start" x="27.4" y="-255.6" font-family="courier new" font-size="8.00">meta</text>
<polygon fill="none" stroke="black" points="73.5,-235 73.5,-265 79.5,-265 79.5,-235 73.5,-235"/>
<polygon fill="none" stroke="black" points="0.5,-235 0.5,-250 73.5,-250 73.5,-235 0.5,-235"/>
<text text-anchor="start" x="3.39" y="-240.6" font-family="courier new" font-size="8.00">count&#45;boundary</text>
</g>
<!-- [root] meta.count&#45;boundary (EachMode fixup)&#45;&gt;[root] ibm_container_vpc_cluster.k8s_cluster -->
<g id="edge_3" class="edge">
<title>[root] meta.count&#45;boundary (EachMode fixup)&#45;&gt;[root] ibm_container_vpc_cluster.k8s_cluster</title>
<path fill="none" stroke="black" d="M49.88,-231.7C54.76,-223.56 60.69,-213.69 66.08,-204.7"/>
<polygon fill="black" stroke="black" points="69.09,-206.48 71.24,-196.1 63.09,-202.88 69.09,-206.48"/>
</g>
<!-- [root] provider.ibm (close) -->
<g id="node_5" class="node">
<title>[root] provider.ibm (close)</title>
<polygon fill="none" stroke="black" points="99.5,-250 99.5,-265 143.5,-265 143.5,-250 99.5,-250"/>
<text text-anchor="start" x="102.3" y="-255.6" font-family="courier new" font-size="8.00">provider</text>
<polygon fill="none" stroke="black" points="143.5,-235 143.5,-265 149.5,-265 149.5,-235 143.5,-235"/>
<polygon fill="none" stroke="black" points="99.5,-235 99.5,-250 143.5,-250 143.5,-235 99.5,-235"/>
<text text-anchor="start" x="114.3" y="-240.6" font-family="courier new" font-size="8.00">ibm</text>
</g>
<!-- [root] provider.ibm (close)&#45;&gt;[root] ibm_container_vpc_cluster.k8s_cluster -->
<g id="edge_4" class="edge">
<title>[root] provider.ibm (close)&#45;&gt;[root] ibm_container_vpc_cluster.k8s_cluster</title>
<path fill="none" stroke="black" d="M113.87,-231.7C108.87,-223.56 102.81,-213.69 97.29,-204.7"/>
<polygon fill="black" stroke="black" points="100.22,-202.79 92.01,-196.1 94.26,-206.46 100.22,-202.79"/>
</g>
<!-- [root] root -->
<g id="node_6" class="node">
<title>[root] root</title>
<polygon fill="none" stroke="black" points="115.81,-340 47.19,-340 47.19,-304 115.81,-304 115.81,-340"/>
<text text-anchor="middle" x="81.5" y="-320.13" font-family="courier new" font-size="8.00">[root] root</text>
</g>
<!-- [root] root&#45;&gt;[root] meta.count&#45;boundary (EachMode fixup) -->
<g id="edge_5" class="edge">
<title>[root] root&#45;&gt;[root] meta.count&#45;boundary (EachMode fixup)</title>
<path fill="none" stroke="black" d="M71.12,-303.7C66.24,-295.56 60.31,-285.69 54.92,-276.7"/>
<polygon fill="black" stroke="black" points="57.91,-274.88 49.76,-268.1 51.91,-278.48 57.91,-274.88"/>
</g>
<!-- [root] root&#45;&gt;[root] provider.ibm (close) -->
<g id="edge_6" class="edge">
<title>[root] root&#45;&gt;[root] provider.ibm (close)</title>
<path fill="none" stroke="black" d="M92.13,-303.7C97.13,-295.56 103.19,-285.69 108.71,-276.7"/>
<polygon fill="black" stroke="black" points="111.74,-278.46 113.99,-268.1 105.78,-274.79 111.74,-278.46"/>
</g>
<!-- [root] var.vpc -->
<g id="node_3" class="node">
<title>[root] var.vpc</title>
<polygon fill="none" stroke="black" points="104.5,-34 104.5,-49 124.5,-49 124.5,-34 104.5,-34"/>
<text text-anchor="start" x="107.3" y="-39.6" font-family="courier new" font-size="8.00">var</text>
<polygon fill="none" stroke="black" points="124.5,-19 124.5,-49 130.5,-49 130.5,-19 124.5,-19"/>
<polygon fill="none" stroke="black" points="104.5,-19 104.5,-34 124.5,-34 124.5,-19 104.5,-19"/>
<text text-anchor="start" x="107.3" y="-24.6" font-family="courier new" font-size="8.00">vpc</text>
</g>
<!-- [root] var.subnets&#45;&gt;[root] var.vpc -->
<g id="edge_7" class="edge">
<title>[root] var.subnets&#45;&gt;[root] var.vpc</title>
<path fill="none" stroke="black" stroke-dasharray="5,2" d="M117.5,-87.7C117.5,-76.85 117.5,-62.92 117.5,-52.1"/>
</g>
</g>
</svg>
