<?xml version="1.0" encoding="UTF-8" standalone="no"?>
<!DOCTYPE svg PUBLIC "-//W3C//DTD SVG 1.1//EN"
 "http://www.w3.org/Graphics/SVG/1.1/DTD/svg11.dtd">
<!-- Generated by graphviz version 2.40.1 (20161225.0304)
 -->
<!-- Title: %3 Pages: 1 -->
<svg width="1073pt" height="404pt"
 viewBox="0.00 0.00 1073.31 404.00" xmlns="http://www.w3.org/2000/svg" xmlns:xlink="http://www.w3.org/1999/xlink">
<g id="graph0" class="graph" transform="scale(1 1) rotate(0) translate(4 400)">
<title>%3</title>
<polygon fill="#ffffff" stroke="transparent" points="-4,4 -4,-400 1069.3113,-400 1069.3113,4 -4,4"/>
<!-- [root] digitalocean_domain.mywebserver -->
<g id="node_0" class="node">
<title>[root] digitalocean_domain.mywebserver</title>
<polygon fill="none" stroke="#000000" points=".5,-162 .5,-177 97.5,-177 97.5,-162 .5,-162"/>
<text text-anchor="start" x="3.3926" y="-167.6" font-family="courier new" font-size="8.00" fill="#000000">digitalocean_domain</text>
<polygon fill="none" stroke="#000000" points=".5,-147 .5,-162 97.5,-162 97.5,-147 .5,-147"/>
<text text-anchor="start" x="22.5957" y="-152.6" font-family="courier new" font-size="8.00" fill="#000000">mywebserver</text>
</g>
<!-- [root] digitalocean_droplet.mywebserver -->
<g id="node_1" class="node">
<title>[root] digitalocean_droplet.mywebserver</title>
<polygon fill="none" stroke="#000000" points="127.5,-90 127.5,-105 229.5,-105 229.5,-90 127.5,-90"/>
<text text-anchor="start" x="130.4922" y="-95.6" font-family="courier new" font-size="8.00" fill="#000000">digitalocean_droplet</text>
<polygon fill="none" stroke="#000000" points="127.5,-75 127.5,-90 229.5,-90 229.5,-75 127.5,-75"/>
<text text-anchor="start" x="152.0957" y="-80.6" font-family="courier new" font-size="8.00" fill="#000000">mywebserver</text>
</g>
<!-- [root] digitalocean_domain.mywebserver&#45;&gt;[root] digitalocean_droplet.mywebserver -->
<g id="edge_0" class="edge">
<title>[root] digitalocean_domain.mywebserver&#45;&gt;[root] digitalocean_droplet.mywebserver</title>
<path fill="none" stroke="#000000" d="M81.3045,-143.8314C98.0862,-134.5368 118.6985,-123.1208 136.6163,-113.1971"/>
<polygon fill="#000000" stroke="#000000" points="138.6538,-116.0696 145.706,-108.1628 135.2623,-109.9461 138.6538,-116.0696"/>
</g>
<!-- [root] provider.digitalocean -->
<g id="node_3" class="node">
<title>[root] provider.digitalocean</title>
<polygon fill="none" stroke="#000000" points="70.5,-18 70.5,-33 133.5,-33 133.5,-18 70.5,-18"/>
<text text-anchor="start" x="82.7969" y="-23.6" font-family="courier new" font-size="8.00" fill="#000000">provider</text>
<polygon fill="none" stroke="#000000" points="70.5,-3 70.5,-18 133.5,-18 133.5,-3 70.5,-3"/>
<text text-anchor="start" x="73.1953" y="-8.6" font-family="courier new" font-size="8.00" fill="#000000">digitalocean</text>
</g>
<!-- [root] digitalocean_droplet.mywebserver&#45;&gt;[root] provider.digitalocean -->
<g id="edge_1" class="edge">
<title>[root] digitalocean_droplet.mywebserver&#45;&gt;[root] provider.digitalocean</title>
<path fill="none" stroke="#000000" d="M159.0696,-71.8314C149.768,-63.1337 138.4796,-52.5783 128.3714,-43.1265"/>
<polygon fill="#000000" stroke="#000000" points="130.6189,-40.4363 120.9241,-36.1628 125.8379,-45.5493 130.6189,-40.4363"/>
</g>
<!-- [root] var.do_ams3 -->
<g id="node_4" class="node">
<title>[root] var.do_ams3</title>
<polygon fill="none" stroke="#000000" points="159.5,-18 159.5,-33 198.5,-33 198.5,-18 159.5,-18"/>
<text text-anchor="start" x="171.7988" y="-23.6" font-family="courier new" font-size="8.00" fill="#000000">var</text>
<polygon fill="none" stroke="#000000" points="159.5,-3 159.5,-18 198.5,-18 198.5,-3 159.5,-3"/>
<text text-anchor="start" x="162.1973" y="-8.6" font-family="courier new" font-size="8.00" fill="#000000">do_ams3</text>
</g>
<!-- [root] digitalocean_droplet.mywebserver&#45;&gt;[root] var.do_ams3 -->
<g id="edge_2" class="edge">
<title>[root] digitalocean_droplet.mywebserver&#45;&gt;[root] var.do_ams3</title>
<path fill="none" stroke="#000000" d="M178.5,-71.8314C178.5,-64.131 178.5,-54.9743 178.5,-46.4166"/>
<polygon fill="#000000" stroke="#000000" points="182.0001,-46.4132 178.5,-36.4133 175.0001,-46.4133 182.0001,-46.4132"/>
</g>
<!-- [root] var.ubuntu -->
<g id="node_5" class="node">
<title>[root] var.ubuntu</title>
<polygon fill="none" stroke="#000000" points="233.5,-18 233.5,-33 267.5,-33 267.5,-18 233.5,-18"/>
<text text-anchor="start" x="243.2988" y="-23.6" font-family="courier new" font-size="8.00" fill="#000000">var</text>
<polygon fill="none" stroke="#000000" points="233.5,-3 233.5,-18 267.5,-18 267.5,-3 233.5,-3"/>
<text text-anchor="start" x="236.0977" y="-8.6" font-family="courier new" font-size="8.00" fill="#000000">ubuntu</text>
</g>
<!-- [root] digitalocean_droplet.mywebserver&#45;&gt;[root] var.ubuntu -->
<g id="edge_3" class="edge">
<title>[root] digitalocean_droplet.mywebserver&#45;&gt;[root] var.ubuntu</title>
<path fill="none" stroke="#000000" d="M196.6686,-71.8314C205.2152,-63.2848 215.5557,-52.9443 224.8802,-43.6198"/>
<polygon fill="#000000" stroke="#000000" points="227.4905,-45.9592 232.0867,-36.4133 222.5408,-41.0095 227.4905,-45.9592"/>
</g>
<!-- [root] digitalocean_record.mywebserver -->
<g id="node_2" class="node">
<title>[root] digitalocean_record.mywebserver</title>
<polygon fill="none" stroke="#000000" points="8.5,-234 8.5,-249 105.5,-249 105.5,-234 8.5,-234"/>
<text text-anchor="start" x="11.3926" y="-239.6" font-family="courier new" font-size="8.00" fill="#000000">digitalocean_record</text>
<polygon fill="none" stroke="#000000" points="8.5,-219 8.5,-234 105.5,-234 105.5,-219 8.5,-219"/>
<text text-anchor="start" x="30.5957" y="-224.6" font-family="courier new" font-size="8.00" fill="#000000">mywebserver</text>
</g>
<!-- [root] digitalocean_record.mywebserver&#45;&gt;[root] digitalocean_domain.mywebserver -->
<g id="edge_4" class="edge">
<title>[root] digitalocean_record.mywebserver&#45;&gt;[root] digitalocean_domain.mywebserver</title>
<path fill="none" stroke="#000000" d="M54.4813,-215.8314C53.6257,-208.131 52.6083,-198.9743 51.6574,-190.4166"/>
<polygon fill="#000000" stroke="#000000" points="55.1289,-189.9656 50.5459,-180.4133 48.1717,-190.7386 55.1289,-189.9656"/>
</g>
<!-- [root] meta.count&#45;boundary (count boundary fixup) -->
<g id="node_6" class="node">
<title>[root] meta.count&#45;boundary (count boundary fixup)</title>
<polygon fill="none" stroke="#000000" points="478.5,-306 478.5,-321 551.5,-321 551.5,-306 478.5,-306"/>
<text text-anchor="start" x="505.3984" y="-311.6" font-family="courier new" font-size="8.00" fill="#000000">meta</text>
<polygon fill="none" stroke="#000000" points="478.5,-291 478.5,-306 551.5,-306 551.5,-291 478.5,-291"/>
<text text-anchor="start" x="481.3945" y="-296.6" font-family="courier new" font-size="8.00" fill="#000000">count&#45;boundary</text>
</g>
<!-- [root] meta.count&#45;boundary (count boundary fixup)&#45;&gt;[root] digitalocean_record.mywebserver -->
<g id="edge_5" class="edge">
<title>[root] meta.count&#45;boundary (count boundary fixup)&#45;&gt;[root] digitalocean_record.mywebserver</title>
<path fill="none" stroke="#000000" d="M477.9877,-302.7631C407.9418,-296.1671 250.0601,-279.43 119.5,-252 118.0389,-251.693 116.562,-251.3702 115.0748,-251.034"/>
<polygon fill="#000000" stroke="#000000" points="115.7093,-247.5868 105.1676,-248.6462 114.0691,-254.3919 115.7093,-247.5868"/>
</g>
<!-- [root] output.Name -->
<g id="node_7" class="node">
<title>[root] output.Name</title>
<polygon fill="none" stroke="#000000" points="125.5,-162 125.5,-177 159.5,-177 159.5,-162 125.5,-162"/>
<text text-anchor="start" x="128.0977" y="-167.6" font-family="courier new" font-size="8.00" fill="#000000">output</text>
<polygon fill="none" stroke="#000000" points="125.5,-147 125.5,-162 159.5,-162 159.5,-147 125.5,-147"/>
<text text-anchor="start" x="132.8984" y="-152.6" font-family="courier new" font-size="8.00" fill="#000000">Name</text>
</g>
<!-- [root] meta.count&#45;boundary (count boundary fixup)&#45;&gt;[root] output.Name -->
<g id="edge_6" class="edge">
<title>[root] meta.count&#45;boundary (count boundary fixup)&#45;&gt;[root] output.Name</title>
<path fill="none" stroke="#000000" d="M477.7425,-304.5195C400.6082,-300.7197 225.2033,-288.2297 179.5,-252 160.5602,-236.9861 151.2339,-210.6459 146.6912,-190.3274"/>
<polygon fill="#000000" stroke="#000000" points="150.0914,-189.4787 144.7261,-180.3429 143.2231,-190.8305 150.0914,-189.4787"/>
</g>
<!-- [root] output.Public ip -->
<g id="node_8" class="node">
<title>[root] output.Public ip</title>
<polygon fill="none" stroke="#000000" points="197.5,-162 197.5,-177 231.5,-177 231.5,-162 197.5,-162"/>
<text text-anchor="start" x="200.0977" y="-167.6" font-family="courier new" font-size="8.00" fill="#000000">output</text>
<polygon fill="none" stroke="#000000" points="197.5,-147 197.5,-162 231.5,-162 231.5,-147 197.5,-147"/>
<text text-anchor="start" x="200.0977" y="-152.6" font-family="courier new" font-size="8.00" fill="#000000">Public</text>
</g>
<!-- [root] meta.count&#45;boundary (count boundary fixup)&#45;&gt;[root] output.Public ip -->
<g id="edge_7" class="edge">
<title>[root] meta.count&#45;boundary (count boundary fixup)&#45;&gt;[root] output.Public ip</title>
<path fill="none" stroke="#000000" d="M477.7206,-302.5317C396.7858,-294.529 208.9531,-273.7831 190.5,-252 175.6113,-234.4244 184.7213,-208.5439 195.7332,-189.0417"/>
<polygon fill="#000000" stroke="#000000" points="198.8325,-190.6806 201.0204,-180.3141 192.8454,-187.0536 198.8325,-190.6806"/>
</g>
<!-- [root] var.centos -->
<g id="node_9" class="node">
<title>[root] var.centos</title>
<polygon fill="none" stroke="#000000" points="209.5,-234 209.5,-249 243.5,-249 243.5,-234 209.5,-234"/>
<text text-anchor="start" x="219.2988" y="-239.6" font-family="courier new" font-size="8.00" fill="#000000">var</text>
<polygon fill="none" stroke="#000000" points="209.5,-219 209.5,-234 243.5,-234 243.5,-219 209.5,-219"/>
<text text-anchor="start" x="212.0977" y="-224.6" font-family="courier new" font-size="8.00" fill="#000000">centos</text>
</g>
<!-- [root] meta.count&#45;boundary (count boundary fixup)&#45;&gt;[root] var.centos -->
<g id="edge_8" class="edge">
<title>[root] meta.count&#45;boundary (count boundary fixup)&#45;&gt;[root] var.centos</title>
<path fill="none" stroke="#000000" d="M477.8229,-301.1122C429.9966,-294.0998 343.874,-279.2836 263.479,-251.8963"/>
<polygon fill="#000000" stroke="#000000" points="264.301,-248.4765 253.7061,-248.4938 261.9993,-255.0873 264.301,-248.4765"/>
</g>
<!-- [root] var.coreos -->
<g id="node_10" class="node">
<title>[root] var.coreos</title>
<polygon fill="none" stroke="#000000" points="281.5,-234 281.5,-249 315.5,-249 315.5,-234 281.5,-234"/>
<text text-anchor="start" x="291.2988" y="-239.6" font-family="courier new" font-size="8.00" fill="#000000">var</text>
<polygon fill="none" stroke="#000000" points="281.5,-219 281.5,-234 315.5,-234 315.5,-219 281.5,-219"/>
<text text-anchor="start" x="284.0977" y="-224.6" font-family="courier new" font-size="8.00" fill="#000000">coreos</text>
</g>
<!-- [root] meta.count&#45;boundary (count boundary fixup)&#45;&gt;[root] var.coreos -->
<g id="edge_9" class="edge">
<title>[root] meta.count&#45;boundary (count boundary fixup)&#45;&gt;[root] var.coreos</title>
<path fill="none" stroke="#000000" d="M477.6726,-296.9433C442.8568,-287.9454 389.1505,-272.94 335.1639,-251.9573"/>
<polygon fill="#000000" stroke="#000000" points="336.3816,-248.6752 325.7951,-248.2557 333.8093,-255.1855 336.3816,-248.6752"/>
</g>
<!-- [root] var.do_ams2 -->
<g id="node_11" class="node">
<title>[root] var.do_ams2</title>
<polygon fill="none" stroke="#000000" points="351.5,-234 351.5,-249 390.5,-249 390.5,-234 351.5,-234"/>
<text text-anchor="start" x="363.7988" y="-239.6" font-family="courier new" font-size="8.00" fill="#000000">var</text>
<polygon fill="none" stroke="#000000" points="351.5,-219 351.5,-234 390.5,-234 390.5,-219 351.5,-219"/>
<text text-anchor="start" x="354.1973" y="-224.6" font-family="courier new" font-size="8.00" fill="#000000">do_ams2</text>
</g>
<!-- [root] meta.count&#45;boundary (count boundary fixup)&#45;&gt;[root] var.do_ams2 -->
<g id="edge_10" class="edge">
<title>[root] meta.count&#45;boundary (count boundary fixup)&#45;&gt;[root] var.do_ams2</title>
<path fill="none" stroke="#000000" d="M478.1627,-287.8314C456.2917,-276.8959 428.5472,-263.0236 406.7008,-252.1004"/>
<polygon fill="#000000" stroke="#000000" points="408.243,-248.9584 397.7334,-247.6167 405.1124,-255.2194 408.243,-248.9584"/>
</g>
<!-- [root] var.do_blr1 -->
<g id="node_12" class="node">
<title>[root] var.do_blr1</title>
<polygon fill="none" stroke="#000000" points="423.5,-234 423.5,-249 462.5,-249 462.5,-234 423.5,-234"/>
<text text-anchor="start" x="435.7988" y="-239.6" font-family="courier new" font-size="8.00" fill="#000000">var</text>
<polygon fill="none" stroke="#000000" points="423.5,-219 423.5,-234 462.5,-234 462.5,-219 423.5,-219"/>
<text text-anchor="start" x="426.1973" y="-224.6" font-family="courier new" font-size="8.00" fill="#000000">do_blr1</text>
</g>
<!-- [root] meta.count&#45;boundary (count boundary fixup)&#45;&gt;[root] var.do_blr1 -->
<g id="edge_11" class="edge">
<title>[root] meta.count&#45;boundary (count boundary fixup)&#45;&gt;[root] var.do_blr1</title>
<path fill="none" stroke="#000000" d="M496.3314,-287.8314C487.7848,-279.2848 477.4443,-268.9443 468.1198,-259.6198"/>
<polygon fill="#000000" stroke="#000000" points="470.4592,-257.0095 460.9133,-252.4133 465.5095,-261.9592 470.4592,-257.0095"/>
</g>
<!-- [root] var.do_fra1 -->
<g id="node_13" class="node">
<title>[root] var.do_fra1</title>
<polygon fill="none" stroke="#000000" points="495.5,-234 495.5,-249 534.5,-249 534.5,-234 495.5,-234"/>
<text text-anchor="start" x="507.7988" y="-239.6" font-family="courier new" font-size="8.00" fill="#000000">var</text>
<polygon fill="none" stroke="#000000" points="495.5,-219 495.5,-234 534.5,-234 534.5,-219 495.5,-219"/>
<text text-anchor="start" x="498.1973" y="-224.6" font-family="courier new" font-size="8.00" fill="#000000">do_fra1</text>
</g>
<!-- [root] meta.count&#45;boundary (count boundary fixup)&#45;&gt;[root] var.do_fra1 -->
<g id="edge_12" class="edge">
<title>[root] meta.count&#45;boundary (count boundary fixup)&#45;&gt;[root] var.do_fra1</title>
<path fill="none" stroke="#000000" d="M514.5,-287.8314C514.5,-280.131 514.5,-270.9743 514.5,-262.4166"/>
<polygon fill="#000000" stroke="#000000" points="518.0001,-262.4132 514.5,-252.4133 511.0001,-262.4133 518.0001,-262.4132"/>
</g>
<!-- [root] var.do_lon1 -->
<g id="node_14" class="node">
<title>[root] var.do_lon1</title>
<polygon fill="none" stroke="#000000" points="567.5,-234 567.5,-249 606.5,-249 606.5,-234 567.5,-234"/>
<text text-anchor="start" x="579.7988" y="-239.6" font-family="courier new" font-size="8.00" fill="#000000">var</text>
<polygon fill="none" stroke="#000000" points="567.5,-219 567.5,-234 606.5,-234 606.5,-219 567.5,-219"/>
<text text-anchor="start" x="570.1973" y="-224.6" font-family="courier new" font-size="8.00" fill="#000000">do_lon1</text>
</g>
<!-- [root] meta.count&#45;boundary (count boundary fixup)&#45;&gt;[root] var.do_lon1 -->
<g id="edge_13" class="edge">
<title>[root] meta.count&#45;boundary (count boundary fixup)&#45;&gt;[root] var.do_lon1</title>
<path fill="none" stroke="#000000" d="M532.6686,-287.8314C541.2152,-279.2848 551.5557,-268.9443 560.8802,-259.6198"/>
<polygon fill="#000000" stroke="#000000" points="563.4905,-261.9592 568.0867,-252.4133 558.5408,-257.0095 563.4905,-261.9592"/>
</g>
<!-- [root] var.do_nyc1 -->
<g id="node_15" class="node">
<title>[root] var.do_nyc1</title>
<polygon fill="none" stroke="#000000" points="639.5,-234 639.5,-249 678.5,-249 678.5,-234 639.5,-234"/>
<text text-anchor="start" x="651.7988" y="-239.6" font-family="courier new" font-size="8.00" fill="#000000">var</text>
<polygon fill="none" stroke="#000000" points="639.5,-219 639.5,-234 678.5,-234 678.5,-219 639.5,-219"/>
<text text-anchor="start" x="642.1973" y="-224.6" font-family="courier new" font-size="8.00" fill="#000000">do_nyc1</text>
</g>
<!-- [root] meta.count&#45;boundary (count boundary fixup)&#45;&gt;[root] var.do_nyc1 -->
<g id="edge_14" class="edge">
<title>[root] meta.count&#45;boundary (count boundary fixup)&#45;&gt;[root] var.do_nyc1</title>
<path fill="none" stroke="#000000" d="M550.8373,-287.8314C572.7083,-276.8959 600.4528,-263.0236 622.2992,-252.1004"/>
<polygon fill="#000000" stroke="#000000" points="623.8876,-255.2194 631.2666,-247.6167 620.757,-248.9584 623.8876,-255.2194"/>
</g>
<!-- [root] var.do_nyc2 -->
<g id="node_16" class="node">
<title>[root] var.do_nyc2</title>
<polygon fill="none" stroke="#000000" points="711.5,-234 711.5,-249 750.5,-249 750.5,-234 711.5,-234"/>
<text text-anchor="start" x="723.7988" y="-239.6" font-family="courier new" font-size="8.00" fill="#000000">var</text>
<polygon fill="none" stroke="#000000" points="711.5,-219 711.5,-234 750.5,-234 750.5,-219 711.5,-219"/>
<text text-anchor="start" x="714.1973" y="-224.6" font-family="courier new" font-size="8.00" fill="#000000">do_nyc2</text>
</g>
<!-- [root] meta.count&#45;boundary (count boundary fixup)&#45;&gt;[root] var.do_nyc2 -->
<g id="edge_15" class="edge">
<title>[root] meta.count&#45;boundary (count boundary fixup)&#45;&gt;[root] var.do_nyc2</title>
<path fill="none" stroke="#000000" d="M551.3274,-296.9433C586.1432,-287.9454 639.8495,-272.94 693.8361,-251.9573"/>
<polygon fill="#000000" stroke="#000000" points="695.1907,-255.1855 703.2049,-248.2557 692.6184,-248.6752 695.1907,-255.1855"/>
</g>
<!-- [root] var.do_nyc3 -->
<g id="node_17" class="node">
<title>[root] var.do_nyc3</title>
<polygon fill="none" stroke="#000000" points="783.5,-234 783.5,-249 822.5,-249 822.5,-234 783.5,-234"/>
<text text-anchor="start" x="795.7988" y="-239.6" font-family="courier new" font-size="8.00" fill="#000000">var</text>
<polygon fill="none" stroke="#000000" points="783.5,-219 783.5,-234 822.5,-234 822.5,-219 783.5,-219"/>
<text text-anchor="start" x="786.1973" y="-224.6" font-family="courier new" font-size="8.00" fill="#000000">do_nyc3</text>
</g>
<!-- [root] meta.count&#45;boundary (count boundary fixup)&#45;&gt;[root] var.do_nyc3 -->
<g id="edge_16" class="edge">
<title>[root] meta.count&#45;boundary (count boundary fixup)&#45;&gt;[root] var.do_nyc3</title>
<path fill="none" stroke="#000000" d="M551.1771,-301.1122C599.0034,-294.0998 685.126,-279.2836 765.521,-251.8963"/>
<polygon fill="#000000" stroke="#000000" points="767.0007,-255.0873 775.2939,-248.4938 764.699,-248.4765 767.0007,-255.0873"/>
</g>
<!-- [root] var.do_sfo1 -->
<g id="node_18" class="node">
<title>[root] var.do_sfo1</title>
<polygon fill="none" stroke="#000000" points="855.5,-234 855.5,-249 894.5,-249 894.5,-234 855.5,-234"/>
<text text-anchor="start" x="867.7988" y="-239.6" font-family="courier new" font-size="8.00" fill="#000000">var</text>
<polygon fill="none" stroke="#000000" points="855.5,-219 855.5,-234 894.5,-234 894.5,-219 855.5,-219"/>
<text text-anchor="start" x="858.1973" y="-224.6" font-family="courier new" font-size="8.00" fill="#000000">do_sfo1</text>
</g>
<!-- [root] meta.count&#45;boundary (count boundary fixup)&#45;&gt;[root] var.do_sfo1 -->
<g id="edge_17" class="edge">
<title>[root] meta.count&#45;boundary (count boundary fixup)&#45;&gt;[root] var.do_sfo1</title>
<path fill="none" stroke="#000000" d="M551.3013,-303.453C610.5128,-298.591 730.3426,-285.593 837.6597,-251.7527"/>
<polygon fill="#000000" stroke="#000000" points="838.8969,-255.0313 847.3404,-248.6314 836.7488,-248.3691 838.8969,-255.0313"/>
</g>
<!-- [root] var.do_sgp1 -->
<g id="node_19" class="node">
<title>[root] var.do_sgp1</title>
<polygon fill="none" stroke="#000000" points="927.5,-234 927.5,-249 966.5,-249 966.5,-234 927.5,-234"/>
<text text-anchor="start" x="939.7988" y="-239.6" font-family="courier new" font-size="8.00" fill="#000000">var</text>
<polygon fill="none" stroke="#000000" points="927.5,-219 927.5,-234 966.5,-234 966.5,-219 927.5,-219"/>
<text text-anchor="start" x="930.1973" y="-224.6" font-family="courier new" font-size="8.00" fill="#000000">do_sgp1</text>
</g>
<!-- [root] meta.count&#45;boundary (count boundary fixup)&#45;&gt;[root] var.do_sgp1 -->
<g id="edge_18" class="edge">
<title>[root] meta.count&#45;boundary (count boundary fixup)&#45;&gt;[root] var.do_sgp1</title>
<path fill="none" stroke="#000000" d="M551.1213,-304.9901C620.3711,-302.238 774.9163,-292.0657 909.6999,-251.6809"/>
<polygon fill="#000000" stroke="#000000" points="910.8314,-254.9949 919.3687,-248.7207 908.7821,-248.3016 910.8314,-254.9949"/>
</g>
<!-- [root] var.do_tor1 -->
<g id="node_20" class="node">
<title>[root] var.do_tor1</title>
<polygon fill="none" stroke="#000000" points="999.5,-234 999.5,-249 1038.5,-249 1038.5,-234 999.5,-234"/>
<text text-anchor="start" x="1011.7988" y="-239.6" font-family="courier new" font-size="8.00" fill="#000000">var</text>
<polygon fill="none" stroke="#000000" points="999.5,-219 999.5,-234 1038.5,-234 1038.5,-219 999.5,-219"/>
<text text-anchor="start" x="1002.1973" y="-224.6" font-family="courier new" font-size="8.00" fill="#000000">do_tor1</text>
</g>
<!-- [root] meta.count&#45;boundary (count boundary fixup)&#45;&gt;[root] var.do_tor1 -->
<g id="edge_19" class="edge">
<title>[root] meta.count&#45;boundary (count boundary fixup)&#45;&gt;[root] var.do_tor1</title>
<path fill="none" stroke="#000000" d="M551.1475,-303.4257C643.4208,-296.6899 884.3242,-277.4645 981.6114,-251.5585"/>
<polygon fill="#000000" stroke="#000000" points="982.7236,-254.8811 991.3876,-248.7832 980.8119,-248.1472 982.7236,-254.8811"/>
</g>
<!-- [root] output.Name&#45;&gt;[root] digitalocean_droplet.mywebserver -->
<g id="edge_20" class="edge">
<title>[root] output.Name&#45;&gt;[root] digitalocean_droplet.mywebserver</title>
<path fill="none" stroke="#000000" d="M151.5843,-143.8314C155.5615,-135.8771 160.3155,-126.369 164.7139,-117.5723"/>
<polygon fill="#000000" stroke="#000000" points="167.9517,-118.9228 169.2934,-108.4133 161.6907,-115.7923 167.9517,-118.9228"/>
</g>
<!-- [root] output.Public ip&#45;&gt;[root] digitalocean_droplet.mywebserver -->
<g id="edge_21" class="edge">
<title>[root] output.Public ip&#45;&gt;[root] digitalocean_droplet.mywebserver</title>
<path fill="none" stroke="#000000" d="M205.4157,-143.8314C201.4385,-135.8771 196.6845,-126.369 192.2861,-117.5723"/>
<polygon fill="#000000" stroke="#000000" points="195.3093,-115.7923 187.7066,-108.4133 189.0483,-118.9228 195.3093,-115.7923"/>
</g>
<!-- [root] provider.digitalocean (close) -->
<g id="node_21" class="node">
<title>[root] provider.digitalocean (close)</title>
<polygon fill="none" stroke="#000000" points="211.5,-306 211.5,-321 274.5,-321 274.5,-306 211.5,-306"/>
<text text-anchor="start" x="223.7969" y="-311.6" font-family="courier new" font-size="8.00" fill="#000000">provider</text>
<polygon fill="none" stroke="#000000" points="211.5,-291 211.5,-306 274.5,-306 274.5,-291 211.5,-291"/>
<text text-anchor="start" x="214.1953" y="-296.6" font-family="courier new" font-size="8.00" fill="#000000">digitalocean</text>
</g>
<!-- [root] provider.digitalocean (close)&#45;&gt;[root] digitalocean_record.mywebserver -->
<g id="edge_22" class="edge">
<title>[root] provider.digitalocean (close)&#45;&gt;[root] digitalocean_record.mywebserver</title>
<path fill="none" stroke="#000000" d="M210.9476,-293.7862C184.1779,-283.4237 145.1133,-268.3019 112.9705,-255.8596"/>
<polygon fill="#000000" stroke="#000000" points="113.8279,-252.4384 103.2387,-252.0924 111.3009,-258.9664 113.8279,-252.4384"/>
</g>
<!-- [root] provisioner.remote&#45;exec (close) -->
<g id="node_22" class="node">
<title>[root] provisioner.remote&#45;exec (close)</title>
<polygon fill="none" stroke="#000000" points="806.5,-306 806.5,-321 864.5,-321 864.5,-306 806.5,-306"/>
<text text-anchor="start" x="809.0957" y="-311.6" font-family="courier new" font-size="8.00" fill="#000000">provisioner</text>
<polygon fill="none" stroke="#000000" points="806.5,-291 806.5,-306 864.5,-306 864.5,-291 806.5,-291"/>
<text text-anchor="start" x="809.0957" y="-296.6" font-family="courier new" font-size="8.00" fill="#000000">remote&#45;exec</text>
</g>
<!-- [root] provisioner.remote&#45;exec (close)&#45;&gt;[root] digitalocean_droplet.mywebserver -->
<g id="edge_23" class="edge">
<title>[root] provisioner.remote&#45;exec (close)&#45;&gt;[root] digitalocean_droplet.mywebserver</title>
<path fill="none" stroke="#000000" d="M864.6822,-304.2902C936.0527,-299.0878 1109.6819,-279.6869 1054.5,-216 1000.9333,-154.1772 430.2988,-108.0191 239.9232,-94.2451"/>
<polygon fill="#000000" stroke="#000000" points="240.0322,-90.744 229.8069,-93.5178 239.5302,-97.7259 240.0322,-90.744"/>
</g>
<!-- [root] root -->
<g id="node_23" class="node">
<title>[root] root</title>
<polygon fill="none" stroke="#000000" points="548.8089,-396 480.1911,-396 480.1911,-360 548.8089,-360 548.8089,-396"/>
<text text-anchor="middle" x="514.5" y="-376.1313" font-family="courier new" font-size="8.00" fill="#000000">[root] root</text>
</g>
<!-- [root] root&#45;&gt;[root] meta.count&#45;boundary (count boundary fixup) -->
<g id="edge_24" class="edge">
<title>[root] root&#45;&gt;[root] meta.count&#45;boundary (count boundary fixup)</title>
<path fill="none" stroke="#000000" d="M514.5,-359.8314C514.5,-352.131 514.5,-342.9743 514.5,-334.4166"/>
<polygon fill="#000000" stroke="#000000" points="518.0001,-334.4132 514.5,-324.4133 511.0001,-334.4133 518.0001,-334.4132"/>
</g>
<!-- [root] root&#45;&gt;[root] provider.digitalocean (close) -->
<g id="edge_25" class="edge">
<title>[root] root&#45;&gt;[root] provider.digitalocean (close)</title>
<path fill="none" stroke="#000000" d="M480.051,-368.8812C430.0927,-355.6569 337.6587,-331.1891 284.0102,-316.988"/>
<polygon fill="#000000" stroke="#000000" points="284.7051,-313.5515 274.1424,-314.3759 282.9138,-320.3184 284.7051,-313.5515"/>
</g>
<!-- [root] root&#45;&gt;[root] provisioner.remote&#45;exec (close) -->
<g id="edge_26" class="edge">
<title>[root] root&#45;&gt;[root] provisioner.remote&#45;exec (close)</title>
<path fill="none" stroke="#000000" d="M548.8526,-370.2947C608.91,-356.8239 732.6272,-329.0743 796.0761,-314.8427"/>
<polygon fill="#000000" stroke="#000000" points="797.0995,-318.2002 806.091,-312.5964 795.5674,-311.3699 797.0995,-318.2002"/>
</g>
</g>
</svg>
