<?xml version="1.0" encoding="UTF-8" standalone="no"?>
<!DOCTYPE svg PUBLIC "-//W3C//DTD SVG 1.1//EN"
 "http://www.w3.org/Graphics/SVG/1.1/DTD/svg11.dtd">
<!-- Generated by graphviz version 2.44.1 (20200629.0846)
 -->
<!-- Pages: 1 -->
<svg width="320pt" height="492pt"
 viewBox="0.00 0.00 320.00 492.00" xmlns="http://www.w3.org/2000/svg" xmlns:xlink="http://www.w3.org/1999/xlink">
<g id="graph0" class="graph" transform="scale(1 1) rotate(0) translate(4 488)">
<polygon fill="white" stroke="transparent" points="-4,4 -4,-488 316,-488 316,4 -4,4"/>
<g id="clust2" class="cluster">
<title>cluster[root] meta.count&#45;boundary (EachMode fixup)_var_</title>
</g>
<g id="clust3" class="cluster">
<title>cluster[root] output.web_dns_name_var_</title>
</g>
<g id="clust4" class="cluster">
<title>cluster[root] ibm_resource_group.web_group_var_</title>
</g>
<!-- [root] ibm_cis.web_domain -->
<g id="node_0" class="node">
<title>[root] ibm_cis.web_domain</title>
<polygon fill="none" stroke="black" points="41,-178 41,-193 93,-193 93,-178 41,-178"/>
<text text-anchor="start" x="51" y="-183.6" font-family="courier new" font-size="8.00">ibm_cis</text>
<polygon fill="none" stroke="black" points="41,-163 41,-178 93,-178 93,-163 41,-163"/>
<text text-anchor="start" x="44" y="-168.6" font-family="courier new" font-size="8.00">web_domain</text>
</g>
<!-- [root] ibm_resource_group.web_group -->
<g id="node_3" class="node">
<title>[root] ibm_resource_group.web_group</title>
<polygon fill="none" stroke="black" points="23,-106 23,-121 111,-121 111,-106 23,-106"/>
<text text-anchor="start" x="26" y="-111.6" font-family="courier new" font-size="8.00">ibm_resource_group</text>
<polygon fill="none" stroke="black" points="23,-91 23,-106 111,-106 111,-91 23,-91"/>
<text text-anchor="start" x="46.5" y="-96.6" font-family="courier new" font-size="8.00">web_group</text>
</g>
<!-- [root] ibm_cis.web_domain&#45;&gt;[root] ibm_resource_group.web_group -->
<g id="edge_0" class="edge">
<title>[root] ibm_cis.web_domain&#45;&gt;[root] ibm_resource_group.web_group</title>
<path fill="none" stroke="black" d="M67,-159.7C67,-151.98 67,-142.71 67,-134.11"/>
<polygon fill="black" stroke="black" points="70.5,-134.1 67,-124.1 63.5,-134.1 70.5,-134.1"/>
</g>
<!-- [root] ibm_cis_domain.web_domain -->
<g id="node_1" class="node">
<title>[root] ibm_cis_domain.web_domain</title>
<polygon fill="none" stroke="black" points="32,-250 32,-265 102,-265 102,-250 32,-250"/>
<text text-anchor="start" x="35" y="-255.6" font-family="courier new" font-size="8.00">ibm_cis_domain</text>
<polygon fill="none" stroke="black" points="32,-235 32,-250 102,-250 102,-235 32,-235"/>
<text text-anchor="start" x="44" y="-240.6" font-family="courier new" font-size="8.00">web_domain</text>
</g>
<!-- [root] ibm_cis_domain.web_domain&#45;&gt;[root] ibm_cis.web_domain -->
<g id="edge_1" class="edge">
<title>[root] ibm_cis_domain.web_domain&#45;&gt;[root] ibm_cis.web_domain</title>
<path fill="none" stroke="black" d="M67,-231.7C67,-223.98 67,-214.71 67,-206.11"/>
<polygon fill="black" stroke="black" points="70.5,-206.1 67,-196.1 63.5,-206.1 70.5,-206.1"/>
</g>
<!-- [root] var.domain -->
<g id="node_9" class="node">
<title>[root] var.domain</title>
<polygon fill="none" stroke="black" points="159,-178 159,-193 193,-193 193,-178 159,-178"/>
<text text-anchor="start" x="169" y="-183.6" font-family="courier new" font-size="8.00">var</text>
<polygon fill="none" stroke="black" points="159,-163 159,-178 193,-178 193,-163 159,-163"/>
<text text-anchor="start" x="162" y="-168.6" font-family="courier new" font-size="8.00">domain</text>
</g>
<!-- [root] ibm_cis_domain.web_domain&#45;&gt;[root] var.domain -->
<g id="edge_2" class="edge">
<title>[root] ibm_cis_domain.web_domain&#45;&gt;[root] var.domain</title>
<path fill="none" stroke="black" d="M93.66,-231.88C107.78,-222.81 125.31,-211.55 140.56,-201.76"/>
<polygon fill="black" stroke="black" points="142.71,-204.54 149.23,-196.19 138.93,-198.65 142.71,-204.54"/>
</g>
<!-- [root] ibm_cis_domain_settings.web_domain -->
<g id="node_2" class="node">
<title>[root] ibm_cis_domain_settings.web_domain</title>
<polygon fill="none" stroke="black" points="2,-322 2,-337 112,-337 112,-322 2,-322"/>
<text text-anchor="start" x="5" y="-327.6" font-family="courier new" font-size="8.00">ibm_cis_domain_settings</text>
<polygon fill="none" stroke="black" points="2,-307 2,-322 112,-322 112,-307 2,-307"/>
<text text-anchor="start" x="34" y="-312.6" font-family="courier new" font-size="8.00">web_domain</text>
</g>
<!-- [root] ibm_cis_domain_settings.web_domain&#45;&gt;[root] ibm_cis_domain.web_domain -->
<g id="edge_3" class="edge">
<title>[root] ibm_cis_domain_settings.web_domain&#45;&gt;[root] ibm_cis_domain.web_domain</title>
<path fill="none" stroke="black" d="M59.47,-303.7C60.57,-295.98 61.9,-286.71 63.13,-278.11"/>
<polygon fill="black" stroke="black" points="66.61,-278.5 64.56,-268.1 59.68,-277.51 66.61,-278.5"/>
</g>
<!-- [root] provider.ibm -->
<g id="node_5" class="node">
<title>[root] provider.ibm</title>
<polygon fill="none" stroke="black" points="6,-34 6,-49 49,-49 49,-34 6,-34"/>
<text text-anchor="start" x="9" y="-39.6" font-family="courier new" font-size="8.00">provider</text>
<polygon fill="none" stroke="black" points="6,-19 6,-34 49,-34 49,-19 6,-19"/>
<text text-anchor="start" x="20.5" y="-24.6" font-family="courier new" font-size="8.00">ibm</text>
</g>
<!-- [root] ibm_resource_group.web_group&#45;&gt;[root] provider.ibm -->
<g id="edge_4" class="edge">
<title>[root] ibm_resource_group.web_group&#45;&gt;[root] provider.ibm</title>
<path fill="none" stroke="black" d="M57.11,-87.7C52.51,-79.64 46.94,-69.89 41.85,-60.98"/>
<polygon fill="black" stroke="black" points="44.77,-59.05 36.77,-52.1 38.7,-62.52 44.77,-59.05"/>
</g>
<!-- [root] var.resource_group -->
<g id="node_10" class="node">
<title>[root] var.resource_group</title>
<polygon fill="none" stroke="black" points="72,-34 72,-49 142,-49 142,-34 72,-34"/>
<text text-anchor="start" x="100" y="-39.6" font-family="courier new" font-size="8.00">var</text>
<polygon fill="none" stroke="black" points="72,-19 72,-34 142,-34 142,-19 72,-19"/>
<text text-anchor="start" x="75" y="-24.6" font-family="courier new" font-size="8.00">resource_group</text>
</g>
<!-- [root] ibm_resource_group.web_group&#45;&gt;[root] var.resource_group -->
<g id="edge_5" class="edge">
<title>[root] ibm_resource_group.web_group&#45;&gt;[root] var.resource_group</title>
<path fill="none" stroke="black" d="M76.89,-87.7C81.49,-79.64 87.06,-69.89 92.15,-60.98"/>
<polygon fill="black" stroke="black" points="95.3,-62.52 97.23,-52.1 89.23,-59.05 95.3,-62.52"/>
</g>
<!-- [root] output.web_dns_name -->
<g id="node_4" class="node">
<title>[root] output.web_dns_name</title>
<polygon fill="none" stroke="black" points="205,-322 205,-337 266,-337 266,-322 205,-322"/>
<text text-anchor="start" x="221.5" y="-327.6" font-family="courier new" font-size="8.00">output</text>
<polygon fill="none" stroke="black" points="205,-307 205,-322 266,-322 266,-307 205,-307"/>
<text text-anchor="start" x="208" y="-312.6" font-family="courier new" font-size="8.00">web_dns_name</text>
</g>
<!-- [root] output.web_dns_name&#45;&gt;[root] var.domain -->
<g id="edge_11" class="edge">
<title>[root] output.web_dns_name&#45;&gt;[root] var.domain</title>
<path fill="none" stroke="black" d="M229.04,-303.99C222.08,-284.48 209.99,-251.61 198,-224 195.36,-217.93 192.35,-211.49 189.42,-205.44"/>
<polygon fill="black" stroke="black" points="192.5,-203.77 184.94,-196.35 186.22,-206.87 192.5,-203.77"/>
</g>
<!-- [root] var.dns_name -->
<g id="node_8" class="node">
<title>[root] var.dns_name</title>
<polygon fill="none" stroke="black" points="248,-250 248,-265 291,-265 291,-250 248,-250"/>
<text text-anchor="start" x="262.5" y="-255.6" font-family="courier new" font-size="8.00">var</text>
<polygon fill="none" stroke="black" points="248,-235 248,-250 291,-250 291,-235 248,-235"/>
<text text-anchor="start" x="251" y="-240.6" font-family="courier new" font-size="8.00">dns_name</text>
</g>
<!-- [root] output.web_dns_name&#45;&gt;[root] var.dns_name -->
<g id="edge_10" class="edge">
<title>[root] output.web_dns_name&#45;&gt;[root] var.dns_name</title>
<path fill="none" stroke="black" d="M243.4,-303.7C247.27,-295.73 251.95,-286.1 256.24,-277.26"/>
<polygon fill="black" stroke="black" points="259.47,-278.63 260.69,-268.1 253.17,-275.57 259.47,-278.63"/>
</g>
<!-- [root] meta.count&#45;boundary (EachMode fixup) -->
<g id="node_11" class="node">
<title>[root] meta.count&#45;boundary (EachMode fixup)</title>
<polygon fill="none" stroke="black" points="117,-394 117,-409 187,-409 187,-394 117,-394"/>
<text text-anchor="start" x="142.5" y="-399.6" font-family="courier new" font-size="8.00">meta</text>
<polygon fill="none" stroke="black" points="117,-379 117,-394 187,-394 187,-379 117,-379"/>
<text text-anchor="start" x="120" y="-384.6" font-family="courier new" font-size="8.00">count&#45;boundary</text>
</g>
<!-- [root] meta.count&#45;boundary (EachMode fixup)&#45;&gt;[root] ibm_cis_domain_settings.web_domain -->
<g id="edge_6" class="edge">
<title>[root] meta.count&#45;boundary (EachMode fixup)&#45;&gt;[root] ibm_cis_domain_settings.web_domain</title>
<path fill="none" stroke="black" d="M128.52,-375.7C116.44,-366.8 101.55,-355.82 88.48,-346.2"/>
<polygon fill="black" stroke="black" points="90.34,-343.22 80.21,-340.1 86.19,-348.85 90.34,-343.22"/>
</g>
<!-- [root] meta.count&#45;boundary (EachMode fixup)&#45;&gt;[root] output.web_dns_name -->
<g id="edge_7" class="edge">
<title>[root] meta.count&#45;boundary (EachMode fixup)&#45;&gt;[root] output.web_dns_name</title>
<path fill="none" stroke="black" d="M172.52,-375.7C182.87,-366.97 195.59,-356.24 206.84,-346.75"/>
<polygon fill="black" stroke="black" points="209.33,-349.23 214.72,-340.1 204.82,-343.88 209.33,-349.23"/>
</g>
<!-- [root] var.datacenter1 -->
<g id="node_6" class="node">
<title>[root] var.datacenter1</title>
<polygon fill="none" stroke="black" points="130,-322 130,-337 186,-337 186,-322 130,-322"/>
<text text-anchor="start" x="151" y="-327.6" font-family="courier new" font-size="8.00">var</text>
<polygon fill="none" stroke="black" points="130,-307 130,-322 186,-322 186,-307 130,-307"/>
<text text-anchor="start" x="133" y="-312.6" font-family="courier new" font-size="8.00">datacenter1</text>
</g>
<!-- [root] meta.count&#45;boundary (EachMode fixup)&#45;&gt;[root] var.datacenter1 -->
<g id="edge_8" class="edge">
<title>[root] meta.count&#45;boundary (EachMode fixup)&#45;&gt;[root] var.datacenter1</title>
<path fill="none" stroke="black" d="M153.48,-375.7C154.14,-367.98 154.94,-358.71 155.68,-350.11"/>
<polygon fill="black" stroke="black" points="159.17,-350.37 156.53,-340.1 152.19,-349.77 159.17,-350.37"/>
</g>
<!-- [root] provider.ibm (close) -->
<g id="node_12" class="node">
<title>[root] provider.ibm (close)</title>
<polygon fill="none" stroke="black" points="46,-394 46,-409 89,-409 89,-394 46,-394"/>
<text text-anchor="start" x="49" y="-399.6" font-family="courier new" font-size="8.00">provider</text>
<polygon fill="none" stroke="black" points="46,-379 46,-394 89,-394 89,-379 46,-379"/>
<text text-anchor="start" x="60.5" y="-384.6" font-family="courier new" font-size="8.00">ibm</text>
</g>
<!-- [root] provider.ibm (close)&#45;&gt;[root] ibm_cis_domain_settings.web_domain -->
<g id="edge_12" class="edge">
<title>[root] provider.ibm (close)&#45;&gt;[root] ibm_cis_domain_settings.web_domain</title>
<path fill="none" stroke="black" d="M64.53,-375.7C63.43,-367.98 62.1,-358.71 60.87,-350.11"/>
<polygon fill="black" stroke="black" points="64.32,-349.51 59.44,-340.1 57.39,-350.5 64.32,-349.51"/>
</g>
<!-- [root] root -->
<g id="node_13" class="node">
<title>[root] root</title>
<polygon fill="none" stroke="black" points="140,-484 74,-484 74,-448 140,-448 140,-484"/>
<text text-anchor="middle" x="107" y="-464.1" font-family="courier new" font-size="8.00">[root] root</text>
</g>
<!-- [root] root&#45;&gt;[root] meta.count&#45;boundary (EachMode fixup) -->
<g id="edge_13" class="edge">
<title>[root] root&#45;&gt;[root] meta.count&#45;boundary (EachMode fixup)</title>
<path fill="none" stroke="black" d="M118.12,-447.7C123.36,-439.56 129.7,-429.69 135.48,-420.7"/>
<polygon fill="black" stroke="black" points="138.54,-422.41 141,-412.1 132.65,-418.62 138.54,-422.41"/>
</g>
<!-- [root] root&#45;&gt;[root] provider.ibm (close) -->
<g id="edge_14" class="edge">
<title>[root] root&#45;&gt;[root] provider.ibm (close)</title>
<path fill="none" stroke="black" d="M97.11,-447.7C92.51,-439.64 86.94,-429.89 81.85,-420.98"/>
<polygon fill="black" stroke="black" points="84.77,-419.05 76.77,-412.1 78.7,-422.52 84.77,-419.05"/>
</g>
<!-- [root] var.datacenter2 -->
<g id="node_7" class="node">
<title>[root] var.datacenter2</title>
<polygon fill="none" stroke="black" points="130,-250 130,-265 186,-265 186,-250 130,-250"/>
<text text-anchor="start" x="151" y="-255.6" font-family="courier new" font-size="8.00">var</text>
<polygon fill="none" stroke="black" points="130,-235 130,-250 186,-250 186,-235 130,-235"/>
<text text-anchor="start" x="133" y="-240.6" font-family="courier new" font-size="8.00">datacenter2</text>
</g>
<!-- [root] var.datacenter1&#45;&gt;[root] var.datacenter2 -->
<g id="edge_15" class="edge">
<title>[root] var.datacenter1&#45;&gt;[root] var.datacenter2</title>
<path fill="none" stroke="black" stroke-dasharray="5,2" d="M158,-303.7C158,-292.85 158,-278.92 158,-268.1"/>
</g>
</g>
</svg>
