<?xml version="1.0" encoding="UTF-8" standalone="no"?>
<!DOCTYPE svg PUBLIC "-//W3C//DTD SVG 1.1//EN"
 "http://www.w3.org/Graphics/SVG/1.1/DTD/svg11.dtd">
<!-- Generated by graphviz version 2.43.0 (0)
 -->
<!-- Title: %3 Pages: 1 -->
<svg width="997pt" height="708pt"
 viewBox="0.00 0.00 997.00 708.00" xmlns="http://www.w3.org/2000/svg" xmlns:xlink="http://www.w3.org/1999/xlink">
<g id="graph0" class="graph" transform="scale(1 1) rotate(0) translate(4 704)">
<title>%3</title>
<polygon fill="white" stroke="transparent" points="-4,4 -4,-704 993,-704 993,4 -4,4"/>
<g id="clust2" class="cluster">
<title>cluster[root] provider.ibm_var_</title>
</g>
<g id="clust3" class="cluster">
<title>cluster[root] ibm_is_ssh_key.ssh1_var_</title>
</g>
<g id="clust4" class="cluster">
<title>cluster[root] ibm_is_vpc.vpc1_var_</title>
</g>
<g id="clust5" class="cluster">
<title>cluster[root] ibm_is_vpc_address_prefix.vpc&#45;ap1_var_</title>
</g>
<g id="clust6" class="cluster">
<title>cluster[root] ibm_is_vpc_address_prefix.vpc&#45;ap2_var_</title>
</g>
<g id="clust7" class="cluster">
<title>cluster[root] meta.count&#45;boundary (EachMode fixup)_output_[root] ibm_is_floating_ip.floatingip1</title>
</g>
<g id="clust8" class="cluster">
<title>cluster[root] meta.count&#45;boundary (EachMode fixup)_output_[root] ibm_is_floating_ip.floatingip2</title>
</g>
<g id="clust9" class="cluster">
<title>cluster[root] meta.count&#45;boundary (EachMode fixup)_output_[root] ibm_is_lb.lb1</title>
</g>
<!-- [root] data.template_cloudinit_config.cloud&#45;init&#45;apptier -->
<g id="node_0" class="node">
<title>[root] data.template_cloudinit_config.cloud&#45;init&#45;apptier</title>
<polygon fill="none" stroke="black" points="863,-322 863,-337 989,-337 989,-322 863,-322"/>
<text text-anchor="start" x="865.99" y="-327.6" font-family="courier new" font-size="8.00">template_cloudinit_config</text>
<polygon fill="none" stroke="black" points="863,-307 863,-322 989,-322 989,-307 863,-307"/>
<text text-anchor="start" x="882.79" y="-312.6" font-family="courier new" font-size="8.00">cloud&#45;init&#45;apptier</text>
</g>
<!-- [root] provider.template -->
<g id="node_22" class="node">
<title>[root] provider.template</title>
<polygon fill="none" stroke="black" points="904,-250 904,-265 948,-265 948,-250 904,-250"/>
<text text-anchor="start" x="906.8" y="-255.6" font-family="courier new" font-size="8.00">provider</text>
<polygon fill="none" stroke="black" points="904,-235 904,-250 948,-250 948,-235 904,-235"/>
<text text-anchor="start" x="906.8" y="-240.6" font-family="courier new" font-size="8.00">template</text>
</g>
<!-- [root] data.template_cloudinit_config.cloud&#45;init&#45;apptier&#45;&gt;[root] provider.template -->
<g id="edge_0" class="edge">
<title>[root] data.template_cloudinit_config.cloud&#45;init&#45;apptier&#45;&gt;[root] provider.template</title>
<path fill="none" stroke="black" d="M926,-303.7C926,-295.98 926,-286.71 926,-278.11"/>
<polygon fill="black" stroke="black" points="929.5,-278.1 926,-268.1 922.5,-278.1 929.5,-278.1"/>
</g>
<!-- [root] ibm_is_floating_ip.floatingip1 -->
<g id="node_1" class="node">
<title>[root] ibm_is_floating_ip.floatingip1</title>
<polygon fill="none" stroke="black" points="372,-466 372,-481 464,-481 464,-466 372,-466"/>
<text text-anchor="start" x="374.79" y="-471.6" font-family="courier new" font-size="8.00">ibm_is_floating_ip</text>
<polygon fill="none" stroke="black" points="372,-451 372,-466 464,-466 464,-451 372,-451"/>
<text text-anchor="start" x="391.6" y="-456.6" font-family="courier new" font-size="8.00">floatingip1</text>
</g>
<!-- [root] ibm_is_instance.instance1 -->
<g id="node_3" class="node">
<title>[root] ibm_is_instance.instance1</title>
<polygon fill="none" stroke="black" points="731,-394 731,-409 809,-409 809,-394 731,-394"/>
<text text-anchor="start" x="733.99" y="-399.6" font-family="courier new" font-size="8.00">ibm_is_instance</text>
<polygon fill="none" stroke="black" points="731,-379 731,-394 809,-394 809,-379 731,-379"/>
<text text-anchor="start" x="748.4" y="-384.6" font-family="courier new" font-size="8.00">instance1</text>
</g>
<!-- [root] ibm_is_floating_ip.floatingip1&#45;&gt;[root] ibm_is_instance.instance1 -->
<g id="edge_1" class="edge">
<title>[root] ibm_is_floating_ip.floatingip1&#45;&gt;[root] ibm_is_instance.instance1</title>
<path fill="none" stroke="black" d="M464.09,-459.42C522.11,-451.85 624.85,-436.67 720.99,-412.03"/>
<polygon fill="black" stroke="black" points="722.08,-415.37 730.87,-409.46 720.32,-408.59 722.08,-415.37"/>
</g>
<!-- [root] ibm_is_floating_ip.floatingip2 -->
<g id="node_2" class="node">
<title>[root] ibm_is_floating_ip.floatingip2</title>
<polygon fill="none" stroke="black" points="230,-466 230,-481 322,-481 322,-466 230,-466"/>
<text text-anchor="start" x="232.79" y="-471.6" font-family="courier new" font-size="8.00">ibm_is_floating_ip</text>
<polygon fill="none" stroke="black" points="230,-451 230,-466 322,-466 322,-451 230,-451"/>
<text text-anchor="start" x="249.6" y="-456.6" font-family="courier new" font-size="8.00">floatingip2</text>
</g>
<!-- [root] ibm_is_instance.instance2 -->
<g id="node_4" class="node">
<title>[root] ibm_is_instance.instance2</title>
<polygon fill="none" stroke="black" points="635,-394 635,-409 713,-409 713,-394 635,-394"/>
<text text-anchor="start" x="637.99" y="-399.6" font-family="courier new" font-size="8.00">ibm_is_instance</text>
<polygon fill="none" stroke="black" points="635,-379 635,-394 713,-394 713,-379 635,-379"/>
<text text-anchor="start" x="652.4" y="-384.6" font-family="courier new" font-size="8.00">instance2</text>
</g>
<!-- [root] ibm_is_floating_ip.floatingip2&#45;&gt;[root] ibm_is_instance.instance2 -->
<g id="edge_2" class="edge">
<title>[root] ibm_is_floating_ip.floatingip2&#45;&gt;[root] ibm_is_instance.instance2</title>
<path fill="none" stroke="black" d="M322,-455.72C335.22,-453.13 349.67,-450.38 363,-448 461.83,-430.37 487.15,-429.52 586,-412 598.57,-409.77 612.13,-407.22 624.74,-404.79"/>
<polygon fill="black" stroke="black" points="625.47,-408.22 634.62,-402.88 624.14,-401.34 625.47,-408.22"/>
</g>
<!-- [root] ibm_is_instance.instance1&#45;&gt;[root] data.template_cloudinit_config.cloud&#45;init&#45;apptier -->
<g id="edge_3" class="edge">
<title>[root] ibm_is_instance.instance1&#45;&gt;[root] data.template_cloudinit_config.cloud&#45;init&#45;apptier</title>
<path fill="none" stroke="black" d="M808.16,-375.88C829.39,-366.35 856.01,-354.41 878.57,-344.28"/>
<polygon fill="black" stroke="black" points="880.27,-347.36 887.96,-340.07 877.41,-340.97 880.27,-347.36"/>
</g>
<!-- [root] ibm_is_ssh_key.ssh1 -->
<g id="node_12" class="node">
<title>[root] ibm_is_ssh_key.ssh1</title>
<polygon fill="none" stroke="black" points="772,-322 772,-337 845,-337 845,-322 772,-322"/>
<text text-anchor="start" x="774.89" y="-327.6" font-family="courier new" font-size="8.00">ibm_is_ssh_key</text>
<polygon fill="none" stroke="black" points="772,-307 772,-322 845,-322 845,-307 772,-307"/>
<text text-anchor="start" x="798.9" y="-312.6" font-family="courier new" font-size="8.00">ssh1</text>
</g>
<!-- [root] ibm_is_instance.instance1&#45;&gt;[root] ibm_is_ssh_key.ssh1 -->
<g id="edge_4" class="edge">
<title>[root] ibm_is_instance.instance1&#45;&gt;[root] ibm_is_ssh_key.ssh1</title>
<path fill="none" stroke="black" d="M779.39,-375.7C783.76,-367.64 789.06,-357.89 793.9,-348.98"/>
<polygon fill="black" stroke="black" points="797.02,-350.56 798.71,-340.1 790.87,-347.22 797.02,-350.56"/>
</g>
<!-- [root] ibm_is_subnet.subnet1 -->
<g id="node_13" class="node">
<title>[root] ibm_is_subnet.subnet1</title>
<polygon fill="none" stroke="black" points="541,-322 541,-337 609,-337 609,-322 541,-322"/>
<text text-anchor="start" x="543.79" y="-327.6" font-family="courier new" font-size="8.00">ibm_is_subnet</text>
<polygon fill="none" stroke="black" points="541,-307 541,-322 609,-322 609,-307 541,-307"/>
<text text-anchor="start" x="558.2" y="-312.6" font-family="courier new" font-size="8.00">subnet1</text>
</g>
<!-- [root] ibm_is_instance.instance1&#45;&gt;[root] ibm_is_subnet.subnet1 -->
<g id="edge_5" class="edge">
<title>[root] ibm_is_instance.instance1&#45;&gt;[root] ibm_is_subnet.subnet1</title>
<path fill="none" stroke="black" d="M730.98,-379.15C727.94,-378.08 724.92,-377.02 722,-376 678.63,-360.81 665.44,-357.39 618.69,-340.19"/>
<polygon fill="black" stroke="black" points="619.81,-336.87 609.22,-336.68 617.38,-343.43 619.81,-336.87"/>
</g>
<!-- [root] var.image -->
<g id="node_24" class="node">
<title>[root] var.image</title>
<polygon fill="none" stroke="black" points="639,-322 639,-337 669,-337 669,-322 639,-322"/>
<text text-anchor="start" x="646.8" y="-327.6" font-family="courier new" font-size="8.00">var</text>
<polygon fill="none" stroke="black" points="639,-307 639,-322 669,-322 669,-307 639,-307"/>
<text text-anchor="start" x="642" y="-312.6" font-family="courier new" font-size="8.00">image</text>
</g>
<!-- [root] ibm_is_instance.instance1&#45;&gt;[root] var.image -->
<g id="edge_6" class="edge">
<title>[root] ibm_is_instance.instance1&#45;&gt;[root] var.image</title>
<path fill="none" stroke="black" d="M741.62,-375.88C726.12,-366.52 706.75,-354.83 690.17,-344.83"/>
<polygon fill="black" stroke="black" points="691.66,-341.64 681.29,-339.47 688.04,-347.63 691.66,-341.64"/>
</g>
<!-- [root] var.profile -->
<g id="node_25" class="node">
<title>[root] var.profile</title>
<polygon fill="none" stroke="black" points="707,-322 707,-337 746,-337 746,-322 707,-322"/>
<text text-anchor="start" x="719.3" y="-327.6" font-family="courier new" font-size="8.00">var</text>
<polygon fill="none" stroke="black" points="707,-307 707,-322 746,-322 746,-307 707,-307"/>
<text text-anchor="start" x="709.7" y="-312.6" font-family="courier new" font-size="8.00">profile</text>
</g>
<!-- [root] ibm_is_instance.instance1&#45;&gt;[root] var.profile -->
<g id="edge_7" class="edge">
<title>[root] ibm_is_instance.instance1&#45;&gt;[root] var.profile</title>
<path fill="none" stroke="black" d="M759.12,-375.7C754.01,-367.56 747.8,-357.69 742.16,-348.7"/>
<polygon fill="black" stroke="black" points="745.04,-346.71 736.75,-340.1 739.11,-350.43 745.04,-346.71"/>
</g>
<!-- [root] ibm_is_instance.instance2&#45;&gt;[root] data.template_cloudinit_config.cloud&#45;init&#45;apptier -->
<g id="edge_8" class="edge">
<title>[root] ibm_is_instance.instance2&#45;&gt;[root] data.template_cloudinit_config.cloud&#45;init&#45;apptier</title>
<path fill="none" stroke="black" d="M713.2,-378.81C716.17,-377.83 719.13,-376.88 722,-376 765.06,-362.81 813.86,-350.05 852.94,-340.36"/>
<polygon fill="black" stroke="black" points="853.78,-343.76 862.66,-337.96 852.11,-336.96 853.78,-343.76"/>
</g>
<!-- [root] ibm_is_instance.instance2&#45;&gt;[root] ibm_is_ssh_key.ssh1 -->
<g id="edge_9" class="edge">
<title>[root] ibm_is_instance.instance2&#45;&gt;[root] ibm_is_ssh_key.ssh1</title>
<path fill="none" stroke="black" d="M706.78,-375.88C724.63,-366.55 746.9,-354.92 766,-344.94"/>
<polygon fill="black" stroke="black" points="767.85,-347.92 775.09,-340.19 764.61,-341.72 767.85,-347.92"/>
</g>
<!-- [root] ibm_is_subnet.subnet2 -->
<g id="node_14" class="node">
<title>[root] ibm_is_subnet.subnet2</title>
<polygon fill="none" stroke="black" points="455,-322 455,-337 523,-337 523,-322 455,-322"/>
<text text-anchor="start" x="457.79" y="-327.6" font-family="courier new" font-size="8.00">ibm_is_subnet</text>
<polygon fill="none" stroke="black" points="455,-307 455,-322 523,-322 523,-307 455,-307"/>
<text text-anchor="start" x="472.2" y="-312.6" font-family="courier new" font-size="8.00">subnet2</text>
</g>
<!-- [root] ibm_is_instance.instance2&#45;&gt;[root] ibm_is_subnet.subnet2 -->
<g id="edge_10" class="edge">
<title>[root] ibm_is_instance.instance2&#45;&gt;[root] ibm_is_subnet.subnet2</title>
<path fill="none" stroke="black" d="M634.75,-378.58C608.26,-368.8 572.29,-355.41 532.59,-340.2"/>
<polygon fill="black" stroke="black" points="533.83,-336.93 523.24,-336.61 531.32,-343.46 533.83,-336.93"/>
</g>
<!-- [root] ibm_is_instance.instance2&#45;&gt;[root] var.image -->
<g id="edge_11" class="edge">
<title>[root] ibm_is_instance.instance2&#45;&gt;[root] var.image</title>
<path fill="none" stroke="black" d="M669.06,-375.7C666.83,-367.9 664.15,-358.51 661.67,-349.83"/>
<polygon fill="black" stroke="black" points="665,-348.76 658.89,-340.1 658.27,-350.68 665,-348.76"/>
</g>
<!-- [root] ibm_is_instance.instance2&#45;&gt;[root] var.profile -->
<g id="edge_12" class="edge">
<title>[root] ibm_is_instance.instance2&#45;&gt;[root] var.profile</title>
<path fill="none" stroke="black" d="M686.85,-375.7C693.03,-367.39 700.54,-357.28 707.32,-348.14"/>
<polygon fill="black" stroke="black" points="710.14,-350.22 713.29,-340.1 704.52,-346.04 710.14,-350.22"/>
</g>
<!-- [root] ibm_is_lb.lb1 -->
<g id="node_5" class="node">
<title>[root] ibm_is_lb.lb1</title>
<polygon fill="none" stroke="black" points="526,-394 526,-409 575,-409 575,-394 526,-394"/>
<text text-anchor="start" x="528.9" y="-399.6" font-family="courier new" font-size="8.00">ibm_is_lb</text>
<polygon fill="none" stroke="black" points="526,-379 526,-394 575,-394 575,-379 526,-379"/>
<text text-anchor="start" x="543.3" y="-384.6" font-family="courier new" font-size="8.00">lb1</text>
</g>
<!-- [root] ibm_is_lb.lb1&#45;&gt;[root] ibm_is_subnet.subnet1 -->
<g id="edge_13" class="edge">
<title>[root] ibm_is_lb.lb1&#45;&gt;[root] ibm_is_subnet.subnet1</title>
<path fill="none" stroke="black" d="M556.18,-375.7C559,-367.81 562.39,-358.3 565.52,-349.55"/>
<polygon fill="black" stroke="black" points="568.82,-350.7 568.89,-340.1 562.23,-348.34 568.82,-350.7"/>
</g>
<!-- [root] ibm_is_lb.lb1&#45;&gt;[root] ibm_is_subnet.subnet2 -->
<g id="edge_14" class="edge">
<title>[root] ibm_is_lb.lb1&#45;&gt;[root] ibm_is_subnet.subnet2</title>
<path fill="none" stroke="black" d="M534.92,-375.7C527.61,-367.3 518.69,-357.07 510.66,-347.86"/>
<polygon fill="black" stroke="black" points="513.11,-345.34 503.91,-340.1 507.84,-349.94 513.11,-345.34"/>
</g>
<!-- [root] ibm_is_lb_listener.lb1&#45;listener -->
<g id="node_6" class="node">
<title>[root] ibm_is_lb_listener.lb1&#45;listener</title>
<polygon fill="none" stroke="black" points="558,-538 558,-553 650,-553 650,-538 558,-538"/>
<text text-anchor="start" x="560.79" y="-543.6" font-family="courier new" font-size="8.00">ibm_is_lb_listener</text>
<polygon fill="none" stroke="black" points="558,-523 558,-538 650,-538 650,-523 558,-523"/>
<text text-anchor="start" x="575.2" y="-528.6" font-family="courier new" font-size="8.00">lb1&#45;listener</text>
</g>
<!-- [root] ibm_is_lb_pool.lb1&#45;pool -->
<g id="node_7" class="node">
<title>[root] ibm_is_lb_pool.lb1&#45;pool</title>
<polygon fill="none" stroke="black" points="581,-466 581,-481 654,-481 654,-466 581,-466"/>
<text text-anchor="start" x="583.89" y="-471.6" font-family="courier new" font-size="8.00">ibm_is_lb_pool</text>
<polygon fill="none" stroke="black" points="581,-451 581,-466 654,-466 654,-451 581,-451"/>
<text text-anchor="start" x="598.3" y="-456.6" font-family="courier new" font-size="8.00">lb1&#45;pool</text>
</g>
<!-- [root] ibm_is_lb_listener.lb1&#45;listener&#45;&gt;[root] ibm_is_lb_pool.lb1&#45;pool -->
<g id="edge_15" class="edge">
<title>[root] ibm_is_lb_listener.lb1&#45;listener&#45;&gt;[root] ibm_is_lb_pool.lb1&#45;pool</title>
<path fill="none" stroke="black" d="M607.21,-519.7C608.65,-511.98 610.37,-502.71 611.96,-494.11"/>
<polygon fill="black" stroke="black" points="615.44,-494.58 613.82,-484.1 608.56,-493.3 615.44,-494.58"/>
</g>
<!-- [root] ibm_is_lb_pool.lb1&#45;pool&#45;&gt;[root] ibm_is_lb.lb1 -->
<g id="edge_16" class="edge">
<title>[root] ibm_is_lb_pool.lb1&#45;pool&#45;&gt;[root] ibm_is_lb.lb1</title>
<path fill="none" stroke="black" d="M600.44,-447.7C592.32,-439.22 582.41,-428.86 573.53,-419.58"/>
<polygon fill="black" stroke="black" points="575.81,-416.91 566.37,-412.1 570.76,-421.75 575.81,-416.91"/>
</g>
<!-- [root] ibm_is_lb_pool_member.lb1&#45;pool&#45;member1 -->
<g id="node_8" class="node">
<title>[root] ibm_is_lb_pool_member.lb1&#45;pool&#45;member1</title>
<polygon fill="none" stroke="black" points="792,-538 792,-553 898,-553 898,-538 792,-538"/>
<text text-anchor="start" x="794.59" y="-543.6" font-family="courier new" font-size="8.00">ibm_is_lb_pool_member</text>
<polygon fill="none" stroke="black" points="792,-523 792,-538 898,-538 898,-523 792,-523"/>
<text text-anchor="start" x="806.59" y="-528.6" font-family="courier new" font-size="8.00">lb1&#45;pool&#45;member1</text>
</g>
<!-- [root] ibm_is_lb_pool_member.lb1&#45;pool&#45;member1&#45;&gt;[root] ibm_is_instance.instance1 -->
<g id="edge_17" class="edge">
<title>[root] ibm_is_lb_pool_member.lb1&#45;pool&#45;member1&#45;&gt;[root] ibm_is_instance.instance1</title>
<path fill="none" stroke="black" d="M835.95,-519.87C823,-495.35 799.07,-450.03 783.87,-421.26"/>
<polygon fill="black" stroke="black" points="786.84,-419.4 779.08,-412.19 780.65,-422.67 786.84,-419.4"/>
</g>
<!-- [root] ibm_is_lb_pool_member.lb1&#45;pool&#45;member1&#45;&gt;[root] ibm_is_lb_pool.lb1&#45;pool -->
<g id="edge_18" class="edge">
<title>[root] ibm_is_lb_pool_member.lb1&#45;pool&#45;member1&#45;&gt;[root] ibm_is_lb_pool.lb1&#45;pool</title>
<path fill="none" stroke="black" d="M804.57,-519.9C797.44,-517.11 790.04,-514.36 783,-512 743.24,-498.65 697.13,-486.4 663.62,-478.06"/>
<polygon fill="black" stroke="black" points="664.19,-474.6 653.64,-475.61 662.51,-481.4 664.19,-474.6"/>
</g>
<!-- [root] ibm_is_lb_pool_member.lb1&#45;pool&#45;member2 -->
<g id="node_9" class="node">
<title>[root] ibm_is_lb_pool_member.lb1&#45;pool&#45;member2</title>
<polygon fill="none" stroke="black" points="668,-538 668,-553 774,-553 774,-538 668,-538"/>
<text text-anchor="start" x="670.59" y="-543.6" font-family="courier new" font-size="8.00">ibm_is_lb_pool_member</text>
<polygon fill="none" stroke="black" points="668,-523 668,-538 774,-538 774,-523 668,-523"/>
<text text-anchor="start" x="682.59" y="-528.6" font-family="courier new" font-size="8.00">lb1&#45;pool&#45;member2</text>
</g>
<!-- [root] ibm_is_lb_pool_member.lb1&#45;pool&#45;member2&#45;&gt;[root] ibm_is_instance.instance2 -->
<g id="edge_19" class="edge">
<title>[root] ibm_is_lb_pool_member.lb1&#45;pool&#45;member2&#45;&gt;[root] ibm_is_instance.instance2</title>
<path fill="none" stroke="black" d="M715.33,-519.87C707.29,-495.56 692.48,-450.82 682.94,-422.01"/>
<polygon fill="black" stroke="black" points="686.15,-420.58 679.69,-412.19 679.51,-422.78 686.15,-420.58"/>
</g>
<!-- [root] ibm_is_lb_pool_member.lb1&#45;pool&#45;member2&#45;&gt;[root] ibm_is_lb_pool.lb1&#45;pool -->
<g id="edge_20" class="edge">
<title>[root] ibm_is_lb_pool_member.lb1&#45;pool&#45;member2&#45;&gt;[root] ibm_is_lb_pool.lb1&#45;pool</title>
<path fill="none" stroke="black" d="M695.56,-519.88C682.21,-510.89 665.68,-499.76 651.22,-490.03"/>
<polygon fill="black" stroke="black" points="652.79,-486.87 642.54,-484.19 648.88,-492.68 652.79,-486.87"/>
</g>
<!-- [root] ibm_is_security_group_rule.sg1_tcp_rule_22 -->
<g id="node_10" class="node">
<title>[root] ibm_is_security_group_rule.sg1_tcp_rule_22</title>
<polygon fill="none" stroke="black" points="180,-538 180,-553 310,-553 310,-538 180,-538"/>
<text text-anchor="start" x="182.59" y="-543.6" font-family="courier new" font-size="8.00">ibm_is_security_group_rule</text>
<polygon fill="none" stroke="black" points="180,-523 180,-538 310,-538 310,-523 180,-523"/>
<text text-anchor="start" x="208.99" y="-528.6" font-family="courier new" font-size="8.00">sg1_tcp_rule_22</text>
</g>
<!-- [root] ibm_is_security_group_rule.sg1_tcp_rule_22&#45;&gt;[root] ibm_is_floating_ip.floatingip1 -->
<g id="edge_21" class="edge">
<title>[root] ibm_is_security_group_rule.sg1_tcp_rule_22&#45;&gt;[root] ibm_is_floating_ip.floatingip1</title>
<path fill="none" stroke="black" d="M287.32,-519.88C311.18,-510.22 341.17,-498.09 366.4,-487.88"/>
<polygon fill="black" stroke="black" points="367.86,-491.06 375.82,-484.07 365.23,-484.57 367.86,-491.06"/>
</g>
<!-- [root] ibm_is_security_group_rule.sg1_tcp_rule_22&#45;&gt;[root] ibm_is_floating_ip.floatingip2 -->
<g id="edge_22" class="edge">
<title>[root] ibm_is_security_group_rule.sg1_tcp_rule_22&#45;&gt;[root] ibm_is_floating_ip.floatingip2</title>
<path fill="none" stroke="black" d="M252.66,-519.7C256.19,-511.73 260.46,-502.1 264.37,-493.26"/>
<polygon fill="black" stroke="black" points="267.58,-494.67 268.43,-484.1 261.18,-491.83 267.58,-494.67"/>
</g>
<!-- [root] ibm_is_security_group_rule.sg1_tcp_rule_80 -->
<g id="node_11" class="node">
<title>[root] ibm_is_security_group_rule.sg1_tcp_rule_80</title>
<polygon fill="none" stroke="black" points="410,-538 410,-553 540,-553 540,-538 410,-538"/>
<text text-anchor="start" x="412.59" y="-543.6" font-family="courier new" font-size="8.00">ibm_is_security_group_rule</text>
<polygon fill="none" stroke="black" points="410,-523 410,-538 540,-538 540,-523 410,-523"/>
<text text-anchor="start" x="438.99" y="-528.6" font-family="courier new" font-size="8.00">sg1_tcp_rule_80</text>
</g>
<!-- [root] ibm_is_security_group_rule.sg1_tcp_rule_80&#45;&gt;[root] ibm_is_floating_ip.floatingip1 -->
<g id="edge_23" class="edge">
<title>[root] ibm_is_security_group_rule.sg1_tcp_rule_80&#45;&gt;[root] ibm_is_floating_ip.floatingip1</title>
<path fill="none" stroke="black" d="M460.91,-519.7C454.08,-511.3 445.74,-501.07 438.24,-491.86"/>
<polygon fill="black" stroke="black" points="440.96,-489.65 431.93,-484.1 435.53,-494.07 440.96,-489.65"/>
</g>
<!-- [root] ibm_is_security_group_rule.sg1_tcp_rule_80&#45;&gt;[root] ibm_is_floating_ip.floatingip2 -->
<g id="edge_24" class="edge">
<title>[root] ibm_is_security_group_rule.sg1_tcp_rule_80&#45;&gt;[root] ibm_is_floating_ip.floatingip2</title>
<path fill="none" stroke="black" d="M426.5,-519.92C418.97,-517.27 411.27,-514.56 404,-512 380.39,-503.69 354.32,-494.53 331.91,-486.65"/>
<polygon fill="black" stroke="black" points="332.81,-483.26 322.21,-483.24 330.49,-489.86 332.81,-483.26"/>
</g>
<!-- [root] provider.ibm -->
<g id="node_21" class="node">
<title>[root] provider.ibm</title>
<polygon fill="none" stroke="black" points="684,-106 684,-121 728,-121 728,-106 684,-106"/>
<text text-anchor="start" x="686.8" y="-111.6" font-family="courier new" font-size="8.00">provider</text>
<polygon fill="none" stroke="black" points="684,-91 684,-106 728,-106 728,-91 684,-91"/>
<text text-anchor="start" x="698.8" y="-96.6" font-family="courier new" font-size="8.00">ibm</text>
</g>
<!-- [root] ibm_is_ssh_key.ssh1&#45;&gt;[root] provider.ibm -->
<g id="edge_25" class="edge">
<title>[root] ibm_is_ssh_key.ssh1&#45;&gt;[root] provider.ibm</title>
<path fill="none" stroke="black" d="M784.51,-303.83C775.45,-296.18 765.69,-286.53 759,-276 730.31,-230.84 716.14,-168.99 710,-134.01"/>
<polygon fill="black" stroke="black" points="713.44,-133.35 708.35,-124.06 706.53,-134.5 713.44,-133.35"/>
</g>
<!-- [root] var.ssh_public_key -->
<g id="node_26" class="node">
<title>[root] var.ssh_public_key</title>
<polygon fill="none" stroke="black" points="772,-250 772,-265 845,-265 845,-250 772,-250"/>
<text text-anchor="start" x="801.3" y="-255.6" font-family="courier new" font-size="8.00">var</text>
<polygon fill="none" stroke="black" points="772,-235 772,-250 845,-250 845,-235 772,-235"/>
<text text-anchor="start" x="774.89" y="-240.6" font-family="courier new" font-size="8.00">ssh_public_key</text>
</g>
<!-- [root] ibm_is_ssh_key.ssh1&#45;&gt;[root] var.ssh_public_key -->
<g id="edge_26" class="edge">
<title>[root] ibm_is_ssh_key.ssh1&#45;&gt;[root] var.ssh_public_key</title>
<path fill="none" stroke="black" d="M808,-303.7C808,-295.98 808,-286.71 808,-278.11"/>
<polygon fill="black" stroke="black" points="811.5,-278.1 808,-268.1 804.5,-278.1 811.5,-278.1"/>
</g>
<!-- [root] ibm_is_vpc_address_prefix.vpc&#45;ap1 -->
<g id="node_16" class="node">
<title>[root] ibm_is_vpc_address_prefix.vpc&#45;ap1</title>
<polygon fill="none" stroke="black" points="570,-250 570,-265 696,-265 696,-250 570,-250"/>
<text text-anchor="start" x="572.99" y="-255.6" font-family="courier new" font-size="8.00">ibm_is_vpc_address_prefix</text>
<polygon fill="none" stroke="black" points="570,-235 570,-250 696,-250 696,-235 570,-235"/>
<text text-anchor="start" x="616.2" y="-240.6" font-family="courier new" font-size="8.00">vpc&#45;ap1</text>
</g>
<!-- [root] ibm_is_subnet.subnet1&#45;&gt;[root] ibm_is_vpc_address_prefix.vpc&#45;ap1 -->
<g id="edge_27" class="edge">
<title>[root] ibm_is_subnet.subnet1&#45;&gt;[root] ibm_is_vpc_address_prefix.vpc&#45;ap1</title>
<path fill="none" stroke="black" d="M589.34,-303.7C596.29,-295.3 604.77,-285.07 612.4,-275.86"/>
<polygon fill="black" stroke="black" points="615.14,-278.04 618.83,-268.1 609.75,-273.57 615.14,-278.04"/>
</g>
<!-- [root] ibm_is_vpc_address_prefix.vpc&#45;ap2 -->
<g id="node_17" class="node">
<title>[root] ibm_is_vpc_address_prefix.vpc&#45;ap2</title>
<polygon fill="none" stroke="black" points="426,-250 426,-265 552,-265 552,-250 426,-250"/>
<text text-anchor="start" x="428.99" y="-255.6" font-family="courier new" font-size="8.00">ibm_is_vpc_address_prefix</text>
<polygon fill="none" stroke="black" points="426,-235 426,-250 552,-250 552,-235 426,-235"/>
<text text-anchor="start" x="472.2" y="-240.6" font-family="courier new" font-size="8.00">vpc&#45;ap2</text>
</g>
<!-- [root] ibm_is_subnet.subnet2&#45;&gt;[root] ibm_is_vpc_address_prefix.vpc&#45;ap2 -->
<g id="edge_28" class="edge">
<title>[root] ibm_is_subnet.subnet2&#45;&gt;[root] ibm_is_vpc_address_prefix.vpc&#45;ap2</title>
<path fill="none" stroke="black" d="M489,-303.7C489,-295.98 489,-286.71 489,-278.11"/>
<polygon fill="black" stroke="black" points="492.5,-278.1 489,-268.1 485.5,-278.1 492.5,-278.1"/>
</g>
<!-- [root] ibm_is_vpc.vpc1 -->
<g id="node_15" class="node">
<title>[root] ibm_is_vpc.vpc1</title>
<polygon fill="none" stroke="black" points="606,-178 606,-193 660,-193 660,-178 606,-178"/>
<text text-anchor="start" x="609" y="-183.6" font-family="courier new" font-size="8.00">ibm_is_vpc</text>
<polygon fill="none" stroke="black" points="606,-163 606,-178 660,-178 660,-163 606,-163"/>
<text text-anchor="start" x="623.4" y="-168.6" font-family="courier new" font-size="8.00">vpc1</text>
</g>
<!-- [root] ibm_is_vpc.vpc1&#45;&gt;[root] provider.ibm -->
<g id="edge_29" class="edge">
<title>[root] ibm_is_vpc.vpc1&#45;&gt;[root] provider.ibm</title>
<path fill="none" stroke="black" d="M651.04,-159.7C660.06,-151.05 671.12,-140.45 680.94,-131.03"/>
<polygon fill="black" stroke="black" points="683.37,-133.55 688.16,-124.1 678.52,-128.5 683.37,-133.55"/>
</g>
<!-- [root] var.vpc_name -->
<g id="node_27" class="node">
<title>[root] var.vpc_name</title>
<polygon fill="none" stroke="black" points="611,-106 611,-121 655,-121 655,-106 611,-106"/>
<text text-anchor="start" x="625.8" y="-111.6" font-family="courier new" font-size="8.00">var</text>
<polygon fill="none" stroke="black" points="611,-91 611,-106 655,-106 655,-91 611,-91"/>
<text text-anchor="start" x="613.8" y="-96.6" font-family="courier new" font-size="8.00">vpc_name</text>
</g>
<!-- [root] ibm_is_vpc.vpc1&#45;&gt;[root] var.vpc_name -->
<g id="edge_30" class="edge">
<title>[root] ibm_is_vpc.vpc1&#45;&gt;[root] var.vpc_name</title>
<path fill="none" stroke="black" d="M633,-159.7C633,-151.98 633,-142.71 633,-134.11"/>
<polygon fill="black" stroke="black" points="636.5,-134.1 633,-124.1 629.5,-134.1 636.5,-134.1"/>
</g>
<!-- [root] ibm_is_vpc_address_prefix.vpc&#45;ap1&#45;&gt;[root] ibm_is_vpc.vpc1 -->
<g id="edge_31" class="edge">
<title>[root] ibm_is_vpc_address_prefix.vpc&#45;ap1&#45;&gt;[root] ibm_is_vpc.vpc1</title>
<path fill="none" stroke="black" d="M633,-231.7C633,-223.98 633,-214.71 633,-206.11"/>
<polygon fill="black" stroke="black" points="636.5,-206.1 633,-196.1 629.5,-206.1 636.5,-206.1"/>
</g>
<!-- [root] var.zone1 -->
<g id="node_28" class="node">
<title>[root] var.zone1</title>
<polygon fill="none" stroke="black" points="764,-178 764,-193 794,-193 794,-178 764,-178"/>
<text text-anchor="start" x="771.8" y="-183.6" font-family="courier new" font-size="8.00">var</text>
<polygon fill="none" stroke="black" points="764,-163 764,-178 794,-178 794,-163 764,-163"/>
<text text-anchor="start" x="767" y="-168.6" font-family="courier new" font-size="8.00">zone1</text>
</g>
<!-- [root] ibm_is_vpc_address_prefix.vpc&#45;ap1&#45;&gt;[root] var.zone1 -->
<g id="edge_32" class="edge">
<title>[root] ibm_is_vpc_address_prefix.vpc&#45;ap1&#45;&gt;[root] var.zone1</title>
<path fill="none" stroke="black" d="M668.72,-231.88C691.17,-221.11 720.06,-207.26 742.64,-196.43"/>
<polygon fill="black" stroke="black" points="744.39,-199.48 751.89,-192 741.36,-193.16 744.39,-199.48"/>
</g>
<!-- [root] ibm_is_vpc_address_prefix.vpc&#45;ap2&#45;&gt;[root] ibm_is_vpc.vpc1 -->
<g id="edge_34" class="edge">
<title>[root] ibm_is_vpc_address_prefix.vpc&#45;ap2&#45;&gt;[root] ibm_is_vpc.vpc1</title>
<path fill="none" stroke="black" d="M524.23,-231.88C546.23,-221.18 574.49,-207.44 596.7,-196.65"/>
<polygon fill="black" stroke="black" points="598.34,-199.74 605.8,-192.22 595.28,-193.44 598.34,-199.74"/>
</g>
<!-- [root] var.zone2 -->
<g id="node_30" class="node">
<title>[root] var.zone2</title>
<polygon fill="none" stroke="black" points="474,-178 474,-193 504,-193 504,-178 474,-178"/>
<text text-anchor="start" x="481.8" y="-183.6" font-family="courier new" font-size="8.00">var</text>
<polygon fill="none" stroke="black" points="474,-163 474,-178 504,-178 504,-163 474,-163"/>
<text text-anchor="start" x="477" y="-168.6" font-family="courier new" font-size="8.00">zone2</text>
</g>
<!-- [root] ibm_is_vpc_address_prefix.vpc&#45;ap2&#45;&gt;[root] var.zone2 -->
<g id="edge_35" class="edge">
<title>[root] ibm_is_vpc_address_prefix.vpc&#45;ap2&#45;&gt;[root] var.zone2</title>
<path fill="none" stroke="black" d="M489,-231.7C489,-223.98 489,-214.71 489,-206.11"/>
<polygon fill="black" stroke="black" points="492.5,-206.1 489,-196.1 485.5,-206.1 492.5,-206.1"/>
</g>
<!-- [root] var.ibmcloud_region -->
<g id="node_23" class="node">
<title>[root] var.ibmcloud_region</title>
<polygon fill="none" stroke="black" points="667,-34 667,-49 745,-49 745,-34 667,-34"/>
<text text-anchor="start" x="698.8" y="-39.6" font-family="courier new" font-size="8.00">var</text>
<polygon fill="none" stroke="black" points="667,-19 667,-34 745,-34 745,-19 667,-19"/>
<text text-anchor="start" x="669.99" y="-24.6" font-family="courier new" font-size="8.00">ibmcloud_region</text>
</g>
<!-- [root] provider.ibm&#45;&gt;[root] var.ibmcloud_region -->
<g id="edge_53" class="edge">
<title>[root] provider.ibm&#45;&gt;[root] var.ibmcloud_region</title>
<path fill="none" stroke="black" d="M706,-87.7C706,-79.98 706,-70.71 706,-62.11"/>
<polygon fill="black" stroke="black" points="709.5,-62.1 706,-52.1 702.5,-62.1 709.5,-62.1"/>
</g>
<!-- [root] meta.count&#45;boundary (EachMode fixup) -->
<g id="node_32" class="node">
<title>[root] meta.count&#45;boundary (EachMode fixup)</title>
<polygon fill="none" stroke="black" points="439,-610 439,-625 512,-625 512,-610 439,-610"/>
<text text-anchor="start" x="465.9" y="-615.6" font-family="courier new" font-size="8.00">meta</text>
<polygon fill="none" stroke="black" points="439,-595 439,-610 512,-610 512,-595 439,-595"/>
<text text-anchor="start" x="441.89" y="-600.6" font-family="courier new" font-size="8.00">count&#45;boundary</text>
</g>
<!-- [root] meta.count&#45;boundary (EachMode fixup)&#45;&gt;[root] ibm_is_lb_listener.lb1&#45;listener -->
<g id="edge_37" class="edge">
<title>[root] meta.count&#45;boundary (EachMode fixup)&#45;&gt;[root] ibm_is_lb_listener.lb1&#45;listener</title>
<path fill="none" stroke="black" d="M506.56,-591.88C523.66,-582.6 544.98,-571.03 563.32,-561.08"/>
<polygon fill="black" stroke="black" points="565.2,-564.04 572.32,-556.19 561.86,-557.88 565.2,-564.04"/>
</g>
<!-- [root] meta.count&#45;boundary (EachMode fixup)&#45;&gt;[root] ibm_is_lb_pool_member.lb1&#45;pool&#45;member1 -->
<g id="edge_38" class="edge">
<title>[root] meta.count&#45;boundary (EachMode fixup)&#45;&gt;[root] ibm_is_lb_pool_member.lb1&#45;pool&#45;member1</title>
<path fill="none" stroke="black" d="M511.59,-601.86C528.69,-598.64 549.35,-594.92 568,-592 663.2,-577.11 689.79,-588.44 783,-564 787.73,-562.76 792.59,-561.25 797.4,-559.59"/>
<polygon fill="black" stroke="black" points="798.96,-562.75 807.15,-556.02 796.56,-556.17 798.96,-562.75"/>
</g>
<!-- [root] meta.count&#45;boundary (EachMode fixup)&#45;&gt;[root] ibm_is_lb_pool_member.lb1&#45;pool&#45;member2 -->
<g id="edge_39" class="edge">
<title>[root] meta.count&#45;boundary (EachMode fixup)&#45;&gt;[root] ibm_is_lb_pool_member.lb1&#45;pool&#45;member2</title>
<path fill="none" stroke="black" d="M511.74,-601.64C549.19,-593.76 608.76,-580.18 659,-564 663.04,-562.7 667.19,-561.26 671.34,-559.75"/>
<polygon fill="black" stroke="black" points="672.83,-562.93 680.95,-556.12 670.36,-556.38 672.83,-562.93"/>
</g>
<!-- [root] meta.count&#45;boundary (EachMode fixup)&#45;&gt;[root] ibm_is_security_group_rule.sg1_tcp_rule_22 -->
<g id="edge_40" class="edge">
<title>[root] meta.count&#45;boundary (EachMode fixup)&#45;&gt;[root] ibm_is_security_group_rule.sg1_tcp_rule_22</title>
<path fill="none" stroke="black" d="M438.5,-599.37C406.14,-590.67 357.7,-577.23 316,-564 311.41,-562.55 306.68,-560.99 301.93,-559.4"/>
<polygon fill="black" stroke="black" points="302.81,-556 292.22,-556.09 300.56,-562.63 302.81,-556"/>
</g>
<!-- [root] meta.count&#45;boundary (EachMode fixup)&#45;&gt;[root] ibm_is_security_group_rule.sg1_tcp_rule_80 -->
<g id="edge_41" class="edge">
<title>[root] meta.count&#45;boundary (EachMode fixup)&#45;&gt;[root] ibm_is_security_group_rule.sg1_tcp_rule_80</title>
<path fill="none" stroke="black" d="M475,-591.7C475,-583.98 475,-574.71 475,-566.11"/>
<polygon fill="black" stroke="black" points="478.5,-566.1 475,-556.1 471.5,-566.1 478.5,-566.1"/>
</g>
<!-- [root] output.FloatingIP&#45;1 -->
<g id="node_18" class="node">
<title>[root] output.FloatingIP&#45;1</title>
<polygon fill="none" stroke="black" points="329,-538 329,-553 392,-553 392,-538 329,-538"/>
<text text-anchor="start" x="346.1" y="-543.6" font-family="courier new" font-size="8.00">output</text>
<polygon fill="none" stroke="black" points="329,-523 329,-538 392,-538 392,-523 329,-523"/>
<text text-anchor="start" x="331.7" y="-528.6" font-family="courier new" font-size="8.00">FloatingIP&#45;1</text>
</g>
<!-- [root] meta.count&#45;boundary (EachMode fixup)&#45;&gt;[root] output.FloatingIP&#45;1 -->
<g id="edge_42" class="edge">
<title>[root] meta.count&#45;boundary (EachMode fixup)&#45;&gt;[root] output.FloatingIP&#45;1</title>
<path fill="none" stroke="black" d="M446.88,-591.91C433.06,-583.51 416.15,-573.23 401,-564 399.71,-563.21 398.4,-562.41 397.07,-561.61"/>
<polygon fill="black" stroke="black" points="398.59,-558.43 388.23,-556.22 394.95,-564.41 398.59,-558.43"/>
</g>
<!-- [root] output.FloatingIP&#45;2 -->
<g id="node_19" class="node">
<title>[root] output.FloatingIP&#45;2</title>
<polygon fill="none" stroke="black" points="99,-538 99,-553 162,-553 162,-538 99,-538"/>
<text text-anchor="start" x="116.1" y="-543.6" font-family="courier new" font-size="8.00">output</text>
<polygon fill="none" stroke="black" points="99,-523 99,-538 162,-538 162,-523 99,-523"/>
<text text-anchor="start" x="101.7" y="-528.6" font-family="courier new" font-size="8.00">FloatingIP&#45;2</text>
</g>
<!-- [root] meta.count&#45;boundary (EachMode fixup)&#45;&gt;[root] output.FloatingIP&#45;2 -->
<g id="edge_43" class="edge">
<title>[root] meta.count&#45;boundary (EachMode fixup)&#45;&gt;[root] output.FloatingIP&#45;2</title>
<path fill="none" stroke="black" d="M438.29,-608.25C379.97,-606.04 263.31,-597.41 171,-564 168.44,-563.07 165.87,-561.98 163.33,-560.77"/>
<polygon fill="black" stroke="black" points="164.82,-557.6 154.35,-556.01 161.55,-563.79 164.82,-557.6"/>
</g>
<!-- [root] output.LB&#45;Hostname -->
<g id="node_20" class="node">
<title>[root] output.LB&#45;Hostname</title>
<polygon fill="none" stroke="black" points="16,-538 16,-553 74,-553 74,-538 16,-538"/>
<text text-anchor="start" x="30.6" y="-543.6" font-family="courier new" font-size="8.00">output</text>
<polygon fill="none" stroke="black" points="16,-523 16,-538 74,-538 74,-523 16,-523"/>
<text text-anchor="start" x="18.6" y="-528.6" font-family="courier new" font-size="8.00">LB&#45;Hostname</text>
</g>
<!-- [root] meta.count&#45;boundary (EachMode fixup)&#45;&gt;[root] output.LB&#45;Hostname -->
<g id="edge_44" class="edge">
<title>[root] meta.count&#45;boundary (EachMode fixup)&#45;&gt;[root] output.LB&#45;Hostname</title>
<path fill="none" stroke="black" d="M438.46,-609.92C368.17,-610.59 210.07,-606.69 86,-564 83.43,-563.12 80.85,-562.05 78.3,-560.86"/>
<polygon fill="black" stroke="black" points="79.78,-557.69 69.3,-556.15 76.53,-563.89 79.78,-557.69"/>
</g>
<!-- [root] provider.ibm (close) -->
<g id="node_33" class="node">
<title>[root] provider.ibm (close)</title>
<polygon fill="none" stroke="black" points="582,-610 582,-625 626,-625 626,-610 582,-610"/>
<text text-anchor="start" x="584.8" y="-615.6" font-family="courier new" font-size="8.00">provider</text>
<polygon fill="none" stroke="black" points="582,-595 582,-610 626,-610 626,-595 582,-595"/>
<text text-anchor="start" x="596.8" y="-600.6" font-family="courier new" font-size="8.00">ibm</text>
</g>
<!-- [root] provider.ibm (close)&#45;&gt;[root] ibm_is_lb_listener.lb1&#45;listener -->
<g id="edge_48" class="edge">
<title>[root] provider.ibm (close)&#45;&gt;[root] ibm_is_lb_listener.lb1&#45;listener</title>
<path fill="none" stroke="black" d="M604,-591.7C604,-583.98 604,-574.71 604,-566.11"/>
<polygon fill="black" stroke="black" points="607.5,-566.1 604,-556.1 600.5,-566.1 607.5,-566.1"/>
</g>
<!-- [root] provider.ibm (close)&#45;&gt;[root] ibm_is_lb_pool_member.lb1&#45;pool&#45;member1 -->
<g id="edge_49" class="edge">
<title>[root] provider.ibm (close)&#45;&gt;[root] ibm_is_lb_pool_member.lb1&#45;pool&#45;member1</title>
<path fill="none" stroke="black" d="M631.01,-603.42C666.34,-595.85 729.98,-581.26 783,-564 787.03,-562.69 791.18,-561.24 795.33,-559.72"/>
<polygon fill="black" stroke="black" points="796.83,-562.89 804.94,-556.08 794.35,-556.35 796.83,-562.89"/>
</g>
<!-- [root] provider.ibm (close)&#45;&gt;[root] ibm_is_lb_pool_member.lb1&#45;pool&#45;member2 -->
<g id="edge_50" class="edge">
<title>[root] provider.ibm (close)&#45;&gt;[root] ibm_is_lb_pool_member.lb1&#45;pool&#45;member2</title>
<path fill="none" stroke="black" d="M631.14,-592.76C646.77,-583.41 666.65,-571.52 683.74,-561.29"/>
<polygon fill="black" stroke="black" points="685.59,-564.26 692.38,-556.12 682,-558.25 685.59,-564.26"/>
</g>
<!-- [root] provider.ibm (close)&#45;&gt;[root] ibm_is_security_group_rule.sg1_tcp_rule_22 -->
<g id="edge_51" class="edge">
<title>[root] provider.ibm (close)&#45;&gt;[root] ibm_is_security_group_rule.sg1_tcp_rule_22</title>
<path fill="none" stroke="black" d="M576.8,-602.95C560.63,-599.48 539.7,-595.19 521,-592 430.35,-576.54 405.38,-585.6 316,-564 310.3,-562.62 304.42,-560.96 298.6,-559.16"/>
<polygon fill="black" stroke="black" points="299.49,-555.77 288.9,-556.01 297.33,-562.42 299.49,-555.77"/>
</g>
<!-- [root] provider.ibm (close)&#45;&gt;[root] ibm_is_security_group_rule.sg1_tcp_rule_80 -->
<g id="edge_52" class="edge">
<title>[root] provider.ibm (close)&#45;&gt;[root] ibm_is_security_group_rule.sg1_tcp_rule_80</title>
<path fill="none" stroke="black" d="M576.96,-594.33C559.15,-584.66 535.5,-571.83 515.47,-560.96"/>
<polygon fill="black" stroke="black" points="517.01,-557.82 506.55,-556.12 513.67,-563.97 517.01,-557.82"/>
</g>
<!-- [root] provider.template (close) -->
<g id="node_34" class="node">
<title>[root] provider.template (close)</title>
<polygon fill="none" stroke="black" points="779,-610 779,-625 823,-625 823,-610 779,-610"/>
<text text-anchor="start" x="781.8" y="-615.6" font-family="courier new" font-size="8.00">provider</text>
<polygon fill="none" stroke="black" points="779,-595 779,-610 823,-610 823,-595 779,-595"/>
<text text-anchor="start" x="781.8" y="-600.6" font-family="courier new" font-size="8.00">template</text>
</g>
<!-- [root] provider.template (close)&#45;&gt;[root] data.template_cloudinit_config.cloud&#45;init&#45;apptier -->
<g id="edge_54" class="edge">
<title>[root] provider.template (close)&#45;&gt;[root] data.template_cloudinit_config.cloud&#45;init&#45;apptier</title>
<path fill="none" stroke="black" d="M828.07,-605.44C852.95,-600.63 888.66,-589.47 907,-564 953.51,-499.4 941.53,-398.24 932.2,-350.15"/>
<polygon fill="black" stroke="black" points="935.6,-349.28 930.16,-340.19 928.74,-350.69 935.6,-349.28"/>
</g>
<!-- [root] root -->
<g id="node_35" class="node">
<title>[root] root</title>
<polygon fill="none" stroke="black" points="638.31,-700 569.69,-700 569.69,-664 638.31,-664 638.31,-700"/>
<text text-anchor="middle" x="604" y="-680.13" font-family="courier new" font-size="8.00">[root] root</text>
</g>
<!-- [root] root&#45;&gt;[root] meta.count&#45;boundary (EachMode fixup) -->
<g id="edge_55" class="edge">
<title>[root] root&#45;&gt;[root] meta.count&#45;boundary (EachMode fixup)</title>
<path fill="none" stroke="black" d="M572.44,-663.88C555.34,-654.6 534.02,-643.03 515.68,-633.08"/>
<polygon fill="black" stroke="black" points="517.14,-629.88 506.68,-628.19 513.8,-636.04 517.14,-629.88"/>
</g>
<!-- [root] root&#45;&gt;[root] provider.ibm (close) -->
<g id="edge_56" class="edge">
<title>[root] root&#45;&gt;[root] provider.ibm (close)</title>
<path fill="none" stroke="black" d="M604,-663.7C604,-655.98 604,-646.71 604,-638.11"/>
<polygon fill="black" stroke="black" points="607.5,-638.1 604,-628.1 600.5,-638.1 607.5,-638.1"/>
</g>
<!-- [root] root&#45;&gt;[root] provider.template (close) -->
<g id="edge_57" class="edge">
<title>[root] root&#45;&gt;[root] provider.template (close)</title>
<path fill="none" stroke="black" d="M638.31,-668.81C673.48,-656.31 727.98,-636.95 764.07,-624.12"/>
<polygon fill="black" stroke="black" points="765.48,-627.34 773.73,-620.69 763.14,-620.74 765.48,-627.34"/>
</g>
<!-- [root] var.zone1_cidr -->
<g id="node_29" class="node">
<title>[root] var.zone1_cidr</title>
<polygon fill="none" stroke="black" points="752,-106 752,-121 806,-121 806,-106 752,-106"/>
<text text-anchor="start" x="771.8" y="-111.6" font-family="courier new" font-size="8.00">var</text>
<polygon fill="none" stroke="black" points="752,-91 752,-106 806,-106 806,-91 752,-91"/>
<text text-anchor="start" x="755" y="-96.6" font-family="courier new" font-size="8.00">zone1_cidr</text>
</g>
<!-- [root] var.zone1&#45;&gt;[root] var.zone1_cidr -->
<g id="edge_58" class="edge">
<title>[root] var.zone1&#45;&gt;[root] var.zone1_cidr</title>
<path fill="none" stroke="black" stroke-dasharray="5,2" d="M779,-159.7C779,-148.85 779,-134.92 779,-124.1"/>
</g>
<!-- [root] var.zone2_cidr -->
<g id="node_31" class="node">
<title>[root] var.zone2_cidr</title>
<polygon fill="none" stroke="black" points="462,-106 462,-121 516,-121 516,-106 462,-106"/>
<text text-anchor="start" x="481.8" y="-111.6" font-family="courier new" font-size="8.00">var</text>
<polygon fill="none" stroke="black" points="462,-91 462,-106 516,-106 516,-91 462,-91"/>
<text text-anchor="start" x="465" y="-96.6" font-family="courier new" font-size="8.00">zone2_cidr</text>
</g>
<!-- [root] var.zone2&#45;&gt;[root] var.zone2_cidr -->
<g id="edge_59" class="edge">
<title>[root] var.zone2&#45;&gt;[root] var.zone2_cidr</title>
<path fill="none" stroke="black" stroke-dasharray="5,2" d="M489,-159.7C489,-148.85 489,-134.92 489,-124.1"/>
</g>
<!-- [root] output.FloatingIP&#45;1&#45;&gt;[root] ibm_is_floating_ip.floatingip1 -->
<g id="edge_45" class="edge">
<title>[root] output.FloatingIP&#45;1&#45;&gt;[root] ibm_is_floating_ip.floatingip1</title>
<path fill="none" stroke="black" d="M374.34,-519.7C381.29,-511.3 389.77,-501.07 397.4,-491.86"/>
<polygon fill="black" stroke="black" points="400.14,-494.04 403.83,-484.1 394.75,-489.57 400.14,-494.04"/>
</g>
<!-- [root] output.FloatingIP&#45;2&#45;&gt;[root] ibm_is_floating_ip.floatingip2 -->
<g id="edge_46" class="edge">
<title>[root] output.FloatingIP&#45;2&#45;&gt;[root] ibm_is_floating_ip.floatingip2</title>
<path fill="none" stroke="black" d="M157.04,-519.77C161.63,-517.06 166.41,-514.37 171,-512 187.5,-503.49 205.98,-495.18 222.78,-488.07"/>
<polygon fill="black" stroke="black" points="224.57,-491.12 232.45,-484.03 221.87,-484.66 224.57,-491.12"/>
</g>
<!-- [root] output.LB&#45;Hostname&#45;&gt;[root] ibm_is_lb.lb1 -->
<g id="edge_47" class="edge">
<title>[root] output.LB&#45;Hostname&#45;&gt;[root] ibm_is_lb.lb1</title>
<path fill="none" stroke="black" d="M71.83,-519.83C105.34,-499.25 165.09,-465.37 221,-448 323.89,-416.04 451.19,-402.53 512.93,-397.54"/>
<polygon fill="black" stroke="black" points="513.28,-401.03 522.97,-396.76 512.73,-394.05 513.28,-401.03"/>
</g>
</g>
</svg>
