<?xml version="1.0" encoding="UTF-8" standalone="no"?>
<!DOCTYPE svg PUBLIC "-//W3C//DTD SVG 1.1//EN"
 "http://www.w3.org/Graphics/SVG/1.1/DTD/svg11.dtd">
<!-- Generated by graphviz version 2.43.0 (0)
 -->
<!-- Title: %3 Pages: 1 -->
<svg width="334pt" height="492pt"
 viewBox="0.00 0.00 334.00 492.00" xmlns="http://www.w3.org/2000/svg" xmlns:xlink="http://www.w3.org/1999/xlink">
<g id="graph0" class="graph" transform="scale(1 1) rotate(0) translate(4 488)">
<title>%3</title>
<polygon fill="white" stroke="transparent" points="-4,4 -4,-488 330,-488 330,4 -4,4"/>
<g id="clust2" class="cluster">
<title>cluster[root] ibm_resource_instance.cos_instance_var_</title>
</g>
<g id="clust3" class="cluster">
<title>cluster[root] ibm_kp_key.test_var_</title>
</g>
<g id="clust4" class="cluster">
<title>cluster[root] ibm_resource_instance.kp_instance_var_</title>
</g>
<!-- [root] ibm_cos_bucket.flex&#45;us&#45;south -->
<g id="node_0" class="node">
<title>[root] ibm_cos_bucket.flex&#45;us&#45;south</title>
<polygon fill="none" stroke="black" points="148,-322 148,-337 221,-337 221,-322 148,-322"/>
<text text-anchor="start" x="150.89" y="-327.6" font-family="courier new" font-size="8.00">ibm_cos_bucket</text>
<polygon fill="none" stroke="black" points="221,-307 221,-337 227,-337 227,-307 221,-307"/>
<polygon fill="none" stroke="black" points="227,-307 227,-337 237,-337 237,-307 227,-307"/>
<text text-anchor="start" x="229.6" y="-320.13" font-family="courier new" font-size="8.00">+</text>
<polygon fill="none" stroke="black" points="237,-307 237,-337 243,-337 243,-307 237,-307"/>
<polygon fill="none" stroke="black" points="148,-307 148,-322 221,-322 221,-307 148,-307"/>
<text text-anchor="start" x="153.29" y="-312.6" font-family="courier new" font-size="8.00">flex&#45;us&#45;south</text>
</g>
<!-- [root] ibm_kp_key.test -->
<g id="node_1" class="node">
<title>[root] ibm_kp_key.test</title>
<polygon fill="none" stroke="black" points="97,-250 97,-265 151,-265 151,-250 97,-250"/>
<text text-anchor="start" x="100" y="-255.6" font-family="courier new" font-size="8.00">ibm_kp_key</text>
<polygon fill="none" stroke="black" points="151,-235 151,-265 157,-265 157,-235 151,-235"/>
<polygon fill="none" stroke="black" points="157,-235 157,-265 167,-265 167,-235 157,-235"/>
<text text-anchor="start" x="159.6" y="-248.13" font-family="courier new" font-size="8.00">+</text>
<polygon fill="none" stroke="black" points="167,-235 167,-265 173,-265 173,-235 167,-235"/>
<polygon fill="none" stroke="black" points="97,-235 97,-250 151,-250 151,-235 97,-235"/>
<text text-anchor="start" x="114.4" y="-240.6" font-family="courier new" font-size="8.00">test</text>
</g>
<!-- [root] ibm_cos_bucket.flex&#45;us&#45;south&#45;&gt;[root] ibm_kp_key.test -->
<g id="edge_0" class="edge">
<title>[root] ibm_cos_bucket.flex&#45;us&#45;south&#45;&gt;[root] ibm_kp_key.test</title>
<path fill="none" stroke="black" d="M180.17,-303.7C172.98,-295.3 164.2,-285.07 156.31,-275.86"/>
<polygon fill="black" stroke="black" points="158.83,-273.42 149.66,-268.1 153.51,-277.97 158.83,-273.42"/>
</g>
<!-- [root] ibm_resource_instance.cos_instance -->
<g id="node_2" class="node">
<title>[root] ibm_resource_instance.cos_instance</title>
<polygon fill="none" stroke="black" points="191,-250 191,-265 297,-265 297,-250 191,-250"/>
<text text-anchor="start" x="193.59" y="-255.6" font-family="courier new" font-size="8.00">ibm_resource_instance</text>
<polygon fill="none" stroke="black" points="297,-235 297,-265 303,-265 303,-235 297,-235"/>
<polygon fill="none" stroke="black" points="303,-235 303,-265 313,-265 313,-235 303,-235"/>
<text text-anchor="start" x="305.6" y="-248.13" font-family="courier new" font-size="8.00">+</text>
<polygon fill="none" stroke="black" points="313,-235 313,-265 319,-265 319,-235 313,-235"/>
<polygon fill="none" stroke="black" points="191,-235 191,-250 297,-250 297,-235 191,-235"/>
<text text-anchor="start" x="215.2" y="-240.6" font-family="courier new" font-size="8.00">cos_instance</text>
</g>
<!-- [root] ibm_cos_bucket.flex&#45;us&#45;south&#45;&gt;[root] ibm_resource_instance.cos_instance -->
<g id="edge_1" class="edge">
<title>[root] ibm_cos_bucket.flex&#45;us&#45;south&#45;&gt;[root] ibm_resource_instance.cos_instance</title>
<path fill="none" stroke="black" d="M209.83,-303.7C217.02,-295.3 225.8,-285.07 233.69,-275.86"/>
<polygon fill="black" stroke="black" points="236.49,-277.97 240.34,-268.1 231.17,-273.42 236.49,-277.97"/>
</g>
<!-- [root] ibm_resource_instance.kp_instance -->
<g id="node_3" class="node">
<title>[root] ibm_resource_instance.kp_instance</title>
<polygon fill="none" stroke="black" points="0,-178 0,-193 106,-193 106,-178 0,-178"/>
<text text-anchor="start" x="2.59" y="-183.6" font-family="courier new" font-size="8.00">ibm_resource_instance</text>
<polygon fill="none" stroke="black" points="106,-163 106,-193 112,-193 112,-163 106,-163"/>
<polygon fill="none" stroke="black" points="112,-163 112,-193 122,-193 122,-163 112,-163"/>
<text text-anchor="start" x="114.6" y="-176.13" font-family="courier new" font-size="8.00">+</text>
<polygon fill="none" stroke="black" points="122,-163 122,-193 128,-193 128,-163 122,-163"/>
<polygon fill="none" stroke="black" points="0,-163 0,-178 106,-178 106,-163 0,-163"/>
<text text-anchor="start" x="26.6" y="-168.6" font-family="courier new" font-size="8.00">kp_instance</text>
</g>
<!-- [root] ibm_kp_key.test&#45;&gt;[root] ibm_resource_instance.kp_instance -->
<g id="edge_2" class="edge">
<title>[root] ibm_kp_key.test&#45;&gt;[root] ibm_resource_instance.kp_instance</title>
<path fill="none" stroke="black" d="M117.45,-231.7C108.77,-223.14 98.14,-212.66 88.65,-203.3"/>
<polygon fill="black" stroke="black" points="90.93,-200.63 81.35,-196.1 86.01,-205.62 90.93,-200.63"/>
</g>
<!-- [root] var.key_name -->
<g id="node_6" class="node">
<title>[root] var.key_name</title>
<polygon fill="none" stroke="black" points="148,-178 148,-193 192,-193 192,-178 148,-178"/>
<text text-anchor="start" x="162.8" y="-183.6" font-family="courier new" font-size="8.00">var</text>
<polygon fill="none" stroke="black" points="192,-163 192,-193 198,-193 198,-163 192,-163"/>
<polygon fill="none" stroke="black" points="148,-163 148,-178 192,-178 192,-163 148,-163"/>
<text text-anchor="start" x="150.8" y="-168.6" font-family="courier new" font-size="8.00">key_name</text>
</g>
<!-- [root] ibm_kp_key.test&#45;&gt;[root] var.key_name -->
<g id="edge_3" class="edge">
<title>[root] ibm_kp_key.test&#45;&gt;[root] var.key_name</title>
<path fill="none" stroke="black" d="M144.39,-231.7C148.76,-223.64 154.06,-213.89 158.9,-204.98"/>
<polygon fill="black" stroke="black" points="162.02,-206.56 163.71,-196.1 155.87,-203.22 162.02,-206.56"/>
</g>
<!-- [root] provider.ibm -->
<g id="node_4" class="node">
<title>[root] provider.ibm</title>
<polygon fill="none" stroke="black" points="149,-106 149,-121 193,-121 193,-106 149,-106"/>
<text text-anchor="start" x="151.8" y="-111.6" font-family="courier new" font-size="8.00">provider</text>
<polygon fill="none" stroke="black" points="193,-91 193,-121 199,-121 199,-91 193,-91"/>
<polygon fill="none" stroke="black" points="149,-91 149,-106 193,-106 193,-91 149,-91"/>
<text text-anchor="start" x="163.8" y="-96.6" font-family="courier new" font-size="8.00">ibm</text>
</g>
<!-- [root] ibm_resource_instance.cos_instance&#45;&gt;[root] provider.ibm -->
<g id="edge_4" class="edge">
<title>[root] ibm_resource_instance.cos_instance&#45;&gt;[root] provider.ibm</title>
<path fill="none" stroke="black" d="M249.07,-231.79C241.81,-211.81 228.42,-178.23 212,-152 207.65,-145.05 202.3,-138.04 197,-131.69"/>
<polygon fill="black" stroke="black" points="199.58,-129.33 190.4,-124.06 194.29,-133.91 199.58,-129.33"/>
</g>
<!-- [root] var.cos_name -->
<g id="node_5" class="node">
<title>[root] var.cos_name</title>
<polygon fill="none" stroke="black" points="258,-178 258,-193 302,-193 302,-178 258,-178"/>
<text text-anchor="start" x="272.8" y="-183.6" font-family="courier new" font-size="8.00">var</text>
<polygon fill="none" stroke="black" points="302,-163 302,-193 308,-193 308,-163 302,-163"/>
<polygon fill="none" stroke="black" points="258,-163 258,-178 302,-178 302,-163 258,-163"/>
<text text-anchor="start" x="260.8" y="-168.6" font-family="courier new" font-size="8.00">cos_name</text>
</g>
<!-- [root] ibm_resource_instance.cos_instance&#45;&gt;[root] var.cos_name -->
<g id="edge_5" class="edge">
<title>[root] ibm_resource_instance.cos_instance&#45;&gt;[root] var.cos_name</title>
<path fill="none" stroke="black" d="M261.92,-231.7C265.07,-223.81 268.88,-214.3 272.38,-205.55"/>
<polygon fill="black" stroke="black" points="275.69,-206.69 276.16,-196.1 269.19,-204.09 275.69,-206.69"/>
</g>
<!-- [root] ibm_resource_instance.kp_instance&#45;&gt;[root] provider.ibm -->
<g id="edge_8" class="edge">
<title>[root] ibm_resource_instance.kp_instance&#45;&gt;[root] provider.ibm</title>
<path fill="none" stroke="black" d="M90.91,-159.88C105.16,-150.81 122.85,-139.55 138.24,-129.76"/>
<polygon fill="black" stroke="black" points="140.43,-132.51 146.99,-124.19 136.67,-126.61 140.43,-132.51"/>
</g>
<!-- [root] var.kp_name -->
<g id="node_7" class="node">
<title>[root] var.kp_name</title>
<polygon fill="none" stroke="black" points="42,-106 42,-121 81,-121 81,-106 42,-106"/>
<text text-anchor="start" x="54.3" y="-111.6" font-family="courier new" font-size="8.00">var</text>
<polygon fill="none" stroke="black" points="81,-91 81,-121 87,-121 87,-91 81,-91"/>
<polygon fill="none" stroke="black" points="42,-91 42,-106 81,-106 81,-91 42,-91"/>
<text text-anchor="start" x="44.7" y="-96.6" font-family="courier new" font-size="8.00">kp_name</text>
</g>
<!-- [root] ibm_resource_instance.kp_instance&#45;&gt;[root] var.kp_name -->
<g id="edge_9" class="edge">
<title>[root] ibm_resource_instance.kp_instance&#45;&gt;[root] var.kp_name</title>
<path fill="none" stroke="black" d="M64,-159.7C64,-151.98 64,-142.71 64,-134.11"/>
<polygon fill="black" stroke="black" points="67.5,-134.1 64,-124.1 60.5,-134.1 67.5,-134.1"/>
</g>
<!-- [root] meta.count&#45;boundary (EachMode fixup) -->
<g id="node_10" class="node">
<title>[root] meta.count&#45;boundary (EachMode fixup)</title>
<polygon fill="none" stroke="black" points="114,-394 114,-409 187,-409 187,-394 114,-394"/>
<text text-anchor="start" x="140.9" y="-399.6" font-family="courier new" font-size="8.00">meta</text>
<polygon fill="none" stroke="black" points="187,-379 187,-409 193,-409 193,-379 187,-379"/>
<polygon fill="none" stroke="black" points="114,-379 114,-394 187,-394 187,-379 114,-379"/>
<text text-anchor="start" x="116.89" y="-384.6" font-family="courier new" font-size="8.00">count&#45;boundary</text>
</g>
<!-- [root] meta.count&#45;boundary (EachMode fixup)&#45;&gt;[root] ibm_cos_bucket.flex&#45;us&#45;south -->
<g id="edge_10" class="edge">
<title>[root] meta.count&#45;boundary (EachMode fixup)&#45;&gt;[root] ibm_cos_bucket.flex&#45;us&#45;south</title>
<path fill="none" stroke="black" d="M163.38,-375.7C168.26,-367.56 174.19,-357.69 179.58,-348.7"/>
<polygon fill="black" stroke="black" points="182.59,-350.48 184.74,-340.1 176.59,-346.88 182.59,-350.48"/>
</g>
<!-- [root] provider.ibm (close) -->
<g id="node_11" class="node">
<title>[root] provider.ibm (close)</title>
<polygon fill="none" stroke="black" points="213,-394 213,-409 257,-409 257,-394 213,-394"/>
<text text-anchor="start" x="215.8" y="-399.6" font-family="courier new" font-size="8.00">provider</text>
<polygon fill="none" stroke="black" points="257,-379 257,-409 263,-409 263,-379 257,-379"/>
<polygon fill="none" stroke="black" points="213,-379 213,-394 257,-394 257,-379 213,-379"/>
<text text-anchor="start" x="227.8" y="-384.6" font-family="courier new" font-size="8.00">ibm</text>
</g>
<!-- [root] provider.ibm (close)&#45;&gt;[root] ibm_cos_bucket.flex&#45;us&#45;south -->
<g id="edge_11" class="edge">
<title>[root] provider.ibm (close)&#45;&gt;[root] ibm_cos_bucket.flex&#45;us&#45;south</title>
<path fill="none" stroke="black" d="M227.37,-375.7C222.37,-367.56 216.31,-357.69 210.79,-348.7"/>
<polygon fill="black" stroke="black" points="213.72,-346.79 205.51,-340.1 207.76,-350.46 213.72,-346.79"/>
</g>
<!-- [root] root -->
<g id="node_12" class="node">
<title>[root] root</title>
<polygon fill="none" stroke="black" points="229.31,-484 160.69,-484 160.69,-448 229.31,-448 229.31,-484"/>
<text text-anchor="middle" x="195" y="-464.13" font-family="courier new" font-size="8.00">[root] root</text>
</g>
<!-- [root] root&#45;&gt;[root] meta.count&#45;boundary (EachMode fixup) -->
<g id="edge_12" class="edge">
<title>[root] root&#45;&gt;[root] meta.count&#45;boundary (EachMode fixup)</title>
<path fill="none" stroke="black" d="M184.62,-447.7C179.74,-439.56 173.81,-429.69 168.42,-420.7"/>
<polygon fill="black" stroke="black" points="171.41,-418.88 163.26,-412.1 165.41,-422.48 171.41,-418.88"/>
</g>
<!-- [root] root&#45;&gt;[root] provider.ibm (close) -->
<g id="edge_13" class="edge">
<title>[root] root&#45;&gt;[root] provider.ibm (close)</title>
<path fill="none" stroke="black" d="M205.63,-447.7C210.63,-439.56 216.69,-429.69 222.21,-420.7"/>
<polygon fill="black" stroke="black" points="225.24,-422.46 227.49,-412.1 219.28,-418.79 225.24,-422.46"/>
</g>
<!-- [root] var.location -->
<g id="node_8" class="node">
<title>[root] var.location</title>
<polygon fill="none" stroke="black" points="258,-106 258,-121 302,-121 302,-106 258,-106"/>
<text text-anchor="start" x="272.8" y="-111.6" font-family="courier new" font-size="8.00">var</text>
<polygon fill="none" stroke="black" points="302,-91 302,-121 308,-121 308,-91 302,-91"/>
<polygon fill="none" stroke="black" points="258,-91 258,-106 302,-106 302,-91 258,-91"/>
<text text-anchor="start" x="260.8" y="-96.6" font-family="courier new" font-size="8.00">location</text>
</g>
<!-- [root] var.cos_name&#45;&gt;[root] var.location -->
<g id="edge_14" class="edge">
<title>[root] var.cos_name&#45;&gt;[root] var.location</title>
<path fill="none" stroke="black" stroke-dasharray="5,2" d="M283,-159.7C283,-148.85 283,-134.92 283,-124.1"/>
</g>
<!-- [root] var.pln -->
<g id="node_9" class="node">
<title>[root] var.pln</title>
<polygon fill="none" stroke="black" points="270,-34 270,-49 290,-49 290,-34 270,-34"/>
<text text-anchor="start" x="272.8" y="-39.6" font-family="courier new" font-size="8.00">var</text>
<polygon fill="none" stroke="black" points="290,-19 290,-49 296,-49 296,-19 290,-19"/>
<polygon fill="none" stroke="black" points="270,-19 270,-34 290,-34 290,-19 270,-19"/>
<text text-anchor="start" x="272.8" y="-24.6" font-family="courier new" font-size="8.00">pln</text>
</g>
<!-- [root] var.location&#45;&gt;[root] var.pln -->
<g id="edge_15" class="edge">
<title>[root] var.location&#45;&gt;[root] var.pln</title>
<path fill="none" stroke="black" stroke-dasharray="5,2" d="M283,-87.7C283,-76.85 283,-62.92 283,-52.1"/>
</g>
</g>
</svg>
