<svg xmlns="http://www.w3.org/2000/svg" xmlns:xlink="http://www.w3.org/1999/xlink" width="345pt" height="564pt" viewBox="0.00 0.00 345.00 564.00">
<g id="graph0" class="graph" transform="scale(1 1) rotate(0) translate(4 560)">
<title>%3</title>
<polygon fill="#ffffff" stroke="transparent" points="-4,4 -4,-560 341,-560 341,4 -4,4"/>
<g id="clust2" class="cluster">
<title>cluster[root] azurerm_resource_group.rg_var_</title>
</g>
<g id="clust3" class="cluster">
<title>cluster[root] azurerm_search_service.search_var_</title>
</g>
<g id="clust4" class="cluster">
<title>cluster[root] meta.count-boundary (count boundary fixup)_var_</title>
</g>
<g id="clust5" class="cluster">
<title>cluster[root] meta.count-boundary (count boundary fixup)_output_[root] azurerm_search_service.search</title>
</g>
<!-- [root] azurerm_resource_group.rg -->
<g id="node_0" class="node">
<title>[root] azurerm_resource_group.rg</title>
<polygon fill="none" stroke="#000000" points="165,-250 165,-265 276,-265 276,-250 165,-250"/>
<text text-anchor="start" x="167.6914" y="-255.6" font-family="courier new" font-size="8.00" fill="#000000">azurerm_resource_group</text>
<polygon fill="none" stroke="#000000" points="165,-235 165,-250 276,-250 276,-235 165,-235"/>
<text text-anchor="start" x="215.6992" y="-240.6" font-family="courier new" font-size="8.00" fill="#000000">rg</text>
</g>
<!-- [root] provider.azurerm -->
<g id="node_2" class="node">
<title>[root] provider.azurerm</title>
<polygon fill="none" stroke="#000000" points="182,-178 182,-193 226,-193 226,-178 182,-178"/>
<text text-anchor="start" x="184.7969" y="-183.6" font-family="courier new" font-size="8.00" fill="#000000">provider</text>
<polygon fill="none" stroke="#000000" points="182,-163 182,-178 226,-178 226,-163 182,-163"/>
<text text-anchor="start" x="187.1973" y="-168.6" font-family="courier new" font-size="8.00" fill="#000000">azurerm</text>
</g>
<!-- [root] azurerm_resource_group.rg&#45;&gt;[root] provider.azurerm -->
<g id="edge_0" class="edge">
<title>[root] azurerm_resource_group.rg-&gt;[root] provider.azurerm</title>
<path fill="none" stroke="#000000" d="M215.9625,-231.8314C214.2513,-224.131 212.2165,-214.9743 210.3148,-206.4166"/>
<polygon fill="#000000" stroke="#000000" points="213.6779,-205.4159 208.0918,-196.4133 206.8446,-206.9344 213.6779,-205.4159"/>
</g>
<!-- [root] var.location -->
<g id="node_3" class="node">
<title>[root] var.location</title>
<polygon fill="none" stroke="#000000" points="258,-178 258,-193 302,-193 302,-178 258,-178"/>
<text text-anchor="start" x="272.7988" y="-183.6" font-family="courier new" font-size="8.00" fill="#000000">var</text>
<polygon fill="none" stroke="#000000" points="258,-163 258,-178 302,-178 302,-163 258,-163"/>
<text text-anchor="start" x="260.7969" y="-168.6" font-family="courier new" font-size="8.00" fill="#000000">location</text>
</g>
<!-- [root] azurerm_resource_group.rg&#45;&gt;[root] var.location -->
<g id="edge_1" class="edge">
<title>[root] azurerm_resource_group.rg-&gt;[root] var.location</title>
<path fill="none" stroke="#000000" d="M235.1405,-231.8314C242.1217,-223.454 250.5391,-213.3531 258.1876,-204.1749"/>
<polygon fill="#000000" stroke="#000000" points="260.9425,-206.3362 264.6556,-196.4133 255.5649,-201.8548 260.9425,-206.3362"/>
</g>
<!-- [root] azurerm_search_service.search -->
<g id="node_1" class="node">
<title>[root] azurerm_search_service.search</title>
<polygon fill="none" stroke="#000000" points="103,-322 103,-337 214,-337 214,-322 103,-322"/>
<text text-anchor="start" x="105.6914" y="-327.6" font-family="courier new" font-size="8.00" fill="#000000">azurerm_search_service</text>
<polygon fill="none" stroke="#000000" points="103,-307 103,-322 214,-322 214,-307 103,-307"/>
<text text-anchor="start" x="144.0977" y="-312.6" font-family="courier new" font-size="8.00" fill="#000000">search</text>
</g>
<!-- [root] azurerm_search_service.search&#45;&gt;[root] azurerm_resource_group.rg -->
<g id="edge_3" class="edge">
<title>[root] azurerm_search_service.search-&gt;[root] azurerm_resource_group.rg</title>
<path fill="none" stroke="#000000" d="M173.6452,-303.8314C180.8591,-295.454 189.557,-285.3531 197.4605,-276.1749"/>
<polygon fill="#000000" stroke="#000000" points="200.2711,-278.2748 204.1441,-268.4133 194.9667,-273.7071 200.2711,-278.2748"/>
</g>
<!-- [root] var.partition_count -->
<g id="node_5" class="node">
<title>[root] var.partition_count</title>
<polygon fill="none" stroke="#000000" points="68,-250 68,-265 146,-265 146,-250 68,-250"/>
<text text-anchor="start" x="99.7988" y="-255.6" font-family="courier new" font-size="8.00" fill="#000000">var</text>
<polygon fill="none" stroke="#000000" points="68,-235 68,-250 146,-250 146,-235 68,-235"/>
<text text-anchor="start" x="70.9941" y="-240.6" font-family="courier new" font-size="8.00" fill="#000000">partition_count</text>
</g>
<!-- [root] azurerm_search_service.search&#45;&gt;[root] var.partition_count -->
<g id="edge_4" class="edge">
<title>[root] azurerm_search_service.search-&gt;[root] var.partition_count</title>
<path fill="none" stroke="#000000" d="M145.1305,-303.8314C139.3165,-295.6232 132.3304,-285.7606 125.9354,-276.7323"/>
<polygon fill="#000000" stroke="#000000" points="128.679,-274.5505 120.0427,-268.4133 122.9669,-278.5966 128.679,-274.5505"/>
</g>
<!-- [root] meta.count&#45;boundary (count boundary fixup) -->
<g id="node_9" class="node">
<title>[root] meta.count-boundary (count boundary fixup)</title>
<polygon fill="none" stroke="#000000" points="68,-466 68,-481 141,-481 141,-466 68,-466"/>
<text text-anchor="start" x="94.8984" y="-471.6" font-family="courier new" font-size="8.00" fill="#000000">meta</text>
<polygon fill="none" stroke="#000000" points="68,-451 68,-466 141,-466 141,-451 68,-451"/>
<text text-anchor="start" x="70.8945" y="-456.6" font-family="courier new" font-size="8.00" fill="#000000">count-boundary</text>
</g>
<!-- [root] var.hosting_mode -->
<g id="node_11" class="node">
<title>[root] var.hosting_mode</title>
<polygon fill="none" stroke="#000000" points="17,-394 17,-409 80,-409 80,-394 17,-394"/>
<text text-anchor="start" x="41.2988" y="-399.6" font-family="courier new" font-size="8.00" fill="#000000">var</text>
<polygon fill="none" stroke="#000000" points="17,-379 17,-394 80,-394 80,-379 17,-379"/>
<text text-anchor="start" x="19.6953" y="-384.6" font-family="courier new" font-size="8.00" fill="#000000">hosting_mode</text>
</g>
<!-- [root] meta.count&#45;boundary (count boundary fixup)&#45;&gt;[root] var.hosting_mode -->
<g id="edge_9" class="edge">
<title>[root] meta.count-boundary (count boundary fixup)-&gt;[root] var.hosting_mode</title>
<path fill="none" stroke="#000000" d="M89.8688,-447.8314C83.4189,-439.5386 75.6555,-429.557 68.5748,-420.4533"/>
<polygon fill="#000000" stroke="#000000" points="71.2236,-418.158 62.3214,-412.4133 65.6981,-422.4556 71.2236,-418.158"/>
</g>
<!-- [root] output.Azure Search Service -->
<g id="node_10" class="node">
<title>[root] output.Azure Search Service</title>
<polygon fill="none" stroke="#000000" points="114,-394 114,-409 148,-409 148,-394 114,-394"/>
<text text-anchor="start" x="116.5977" y="-399.6" font-family="courier new" font-size="8.00" fill="#000000">output</text>
<polygon fill="none" stroke="#000000" points="114,-379 114,-394 148,-394 148,-379 114,-379"/>
<text text-anchor="start" x="118.998" y="-384.6" font-family="courier new" font-size="8.00" fill="#000000">Azure</text>
</g>
<!-- [root] meta.count&#45;boundary (count boundary fixup)&#45;&gt;[root] output.Azure Search Service -->
<g id="edge_8" class="edge">
<title>[root] meta.count-boundary (count boundary fixup)-&gt;[root] output.Azure Search Service</title>
<path fill="none" stroke="#000000" d="M110.8132,-447.8314C113.7644,-439.9617 117.2858,-430.5712 120.555,-421.8533"/>
<polygon fill="#000000" stroke="#000000" points="123.8609,-423.0055 124.095,-412.4133 117.3066,-420.5476 123.8609,-423.0055"/>
</g>
<!-- [root] provider.azurerm (close) -->
<g id="node_12" class="node">
<title>[root] provider.azurerm (close)</title>
<polygon fill="none" stroke="#000000" points="164,-466 164,-481 208,-481 208,-466 164,-466"/>
<text text-anchor="start" x="166.7969" y="-471.6" font-family="courier new" font-size="8.00" fill="#000000">provider</text>
<polygon fill="none" stroke="#000000" points="164,-451 164,-466 208,-466 208,-451 164,-451"/>
<text text-anchor="start" x="169.1973" y="-456.6" font-family="courier new" font-size="8.00" fill="#000000">azurerm</text>
</g>
<!-- [root] provider.azurerm (close)&#45;&gt;[root] azurerm_search_service.search -->
<g id="edge_11" class="edge">
<title>[root] provider.azurerm (close)-&gt;[root] azurerm_search_service.search</title>
<path fill="none" stroke="#000000" d="M183.5535,-447.8437C180.7728,-428.0998 175.8524,-395.6599 170,-368 168.7827,-362.2468 167.3135,-356.1329 165.8268,-350.3046"/>
<polygon fill="#000000" stroke="#000000" points="169.1135,-349.0411 163.1827,-340.2618 162.3442,-350.8234 169.1135,-349.0411"/>
</g>
<!-- [root] root -->
<g id="node_13" class="node">
<title>[root] root</title>
<polygon fill="none" stroke="#000000" points="179.3089,-556 110.6911,-556 110.6911,-520 179.3089,-520 179.3089,-556"/>
<text text-anchor="middle" x="145" y="-536.1313" font-family="courier new" font-size="8.00" fill="#000000">[root] root</text>
</g>
<!-- [root] root&#45;&gt;[root] meta.count&#45;boundary (count boundary fixup) -->
<g id="edge_12" class="edge">
<title>[root] root-&gt;[root] meta.count-boundary (count boundary fixup)</title>
<path fill="none" stroke="#000000" d="M134.654,-519.8314C130.0763,-511.7925 124.5948,-502.1666 119.5412,-493.2918"/>
<polygon fill="#000000" stroke="#000000" points="122.4752,-491.3712 114.4853,-484.4133 116.3923,-494.8351 122.4752,-491.3712"/>
</g>
<!-- [root] root&#45;&gt;[root] provider.azurerm (close) -->
<g id="edge_13" class="edge">
<title>[root] root-&gt;[root] provider.azurerm (close)</title>
<path fill="none" stroke="#000000" d="M155.346,-519.8314C159.9237,-511.7925 165.4052,-502.1666 170.4588,-493.2918"/>
<polygon fill="#000000" stroke="#000000" points="173.6077,-494.8351 175.5147,-484.4133 167.5248,-491.3712 173.6077,-494.8351"/>
</g>
<!-- [root] var.resource_group -->
<g id="node_4" class="node">
<title>[root] var.resource_group</title>
<polygon fill="none" stroke="#000000" points="248,-106 248,-121 321,-121 321,-106 248,-106"/>
<text text-anchor="start" x="277.2988" y="-111.6" font-family="courier new" font-size="8.00" fill="#000000">var</text>
<polygon fill="none" stroke="#000000" points="248,-91 248,-106 321,-106 321,-91 248,-91"/>
<text text-anchor="start" x="250.8945" y="-96.6" font-family="courier new" font-size="8.00" fill="#000000">resource_group</text>
</g>
<!-- [root] var.location&#45;&gt;[root] var.resource_group -->
<g id="edge_14" class="edge">
<title>[root] var.location-&gt;[root] var.resource_group</title>
<path fill="none" stroke="#000000" stroke-dasharray="5,2" d="M281.0094,-159.8314C281.6111,-149 282.3729,-135.2876 282.977,-124.4133"/>
</g>
<!-- [root] var.replica_count -->
<g id="node_6" class="node">
<title>[root] var.replica_count</title>
<polygon fill="none" stroke="#000000" points="73,-178 73,-193 141,-193 141,-178 73,-178"/>
<text text-anchor="start" x="99.7988" y="-183.6" font-family="courier new" font-size="8.00" fill="#000000">var</text>
<polygon fill="none" stroke="#000000" points="73,-163 73,-178 141,-178 141,-163 73,-163"/>
<text text-anchor="start" x="75.7949" y="-168.6" font-family="courier new" font-size="8.00" fill="#000000">replica_count</text>
</g>
<!-- [root] var.partition_count&#45;&gt;[root] var.replica_count -->
<g id="edge_15" class="edge">
<title>[root] var.partition_count-&gt;[root] var.replica_count</title>
<path fill="none" stroke="#000000" stroke-dasharray="5,2" d="M107,-231.8314C107,-221 107,-207.2876 107,-196.4133"/>
</g>
<!-- [root] var.search_name -->
<g id="node_7" class="node">
<title>[root] var.search_name</title>
<polygon fill="none" stroke="#000000" points="78,-106 78,-121 136,-121 136,-106 78,-106"/>
<text text-anchor="start" x="99.7988" y="-111.6" font-family="courier new" font-size="8.00" fill="#000000">var</text>
<polygon fill="none" stroke="#000000" points="78,-91 78,-106 136,-106 136,-91 78,-91"/>
<text text-anchor="start" x="80.5957" y="-96.6" font-family="courier new" font-size="8.00" fill="#000000">search_name</text>
</g>
<!-- [root] var.replica_count&#45;&gt;[root] var.search_name -->
<g id="edge_16" class="edge">
<title>[root] var.replica_count-&gt;[root] var.search_name</title>
<path fill="none" stroke="#000000" stroke-dasharray="5,2" d="M107,-159.8314C107,-149 107,-135.2876 107,-124.4133"/>
</g>
<!-- [root] var.sku -->
<g id="node_8" class="node">
<title>[root] var.sku</title>
<polygon fill="none" stroke="#000000" points="97,-34 97,-49 117,-49 117,-34 97,-34"/>
<text text-anchor="start" x="99.7988" y="-39.6" font-family="courier new" font-size="8.00" fill="#000000">var</text>
<polygon fill="none" stroke="#000000" points="97,-19 97,-34 117,-34 117,-19 97,-19"/>
<text text-anchor="start" x="99.7988" y="-24.6" font-family="courier new" font-size="8.00" fill="#000000">sku</text>
</g>
<!-- [root] var.search_name&#45;&gt;[root] var.sku -->
<g id="edge_17" class="edge">
<title>[root] var.search_name-&gt;[root] var.sku</title>
<path fill="none" stroke="#000000" stroke-dasharray="5,2" d="M107,-87.8314C107,-77 107,-63.2876 107,-52.4133"/>
</g>
<!-- [root] output.Azure Search Service&#45;&gt;[root] azurerm_search_service.search -->
<g id="edge_10" class="edge">
<title>[root] output.Azure Search Service-&gt;[root] azurerm_search_service.search</title>
<path fill="none" stroke="#000000" d="M137.8132,-375.8314C140.7644,-367.9617 144.2858,-358.5712 147.555,-349.8533"/>
<polygon fill="#000000" stroke="#000000" points="150.8609,-351.0055 151.095,-340.4133 144.3066,-348.5476 150.8609,-351.0055"/>
</g>
</g>
</svg>