<?xml version="1.0" encoding="UTF-8" standalone="no"?>
<!DOCTYPE svg PUBLIC "-//W3C//DTD SVG 1.1//EN"
 "http://www.w3.org/Graphics/SVG/1.1/DTD/svg11.dtd">
<!-- Generated by graphviz version 2.44.1 (20200629.0846)
 -->
<!-- Pages: 1 -->
<svg width="118pt" height="452pt"
 viewBox="0.00 0.00 118.00 452.00" xmlns="http://www.w3.org/2000/svg" xmlns:xlink="http://www.w3.org/1999/xlink">
<g id="graph0" class="graph" transform="scale(1 1) rotate(0) translate(4 448)">
<polygon fill="white" stroke="transparent" points="-4,4 -4,-448 114,-448 114,4 -4,4"/>
<!-- [root] ibm_cis.web_domain -->
<g id="node_0" class="node">
<title>[root] ibm_cis.web_domain</title>
<polygon fill="none" stroke="black" points="21,-153 21,-168 90,-168 90,-153 21,-153"/>
<text text-anchor="start" x="39.5" y="-158.6" font-family="courier new" font-size="8.00">ibm_cis</text>
<polygon fill="none" stroke="black" points="21,-138 21,-153 90,-153 90,-138 21,-138"/>
<text text-anchor="start" x="32.5" y="-143.6" font-family="courier new" font-size="8.00">web_domain</text>
<polygon fill="none" stroke="black" points="21,-123 21,-138 50,-138 50,-123 21,-123"/>
<text text-anchor="start" x="24" y="-128.6" font-family="courier new" font-size="8.00">state</text>
<polygon fill="none" stroke="black" points="50,-123 50,-138 61,-138 61,-123 50,-123"/>
<text text-anchor="start" x="53" y="-128.6" font-family="courier new" font-size="8.00">+</text>
<polygon fill="none" stroke="black" points="61,-123 61,-138 90,-138 90,-123 61,-123"/>
<text text-anchor="start" x="64" y="-128.6" font-family="courier new" font-size="8.00">apply</text>
<polygon fill="none" stroke="black" points="21,-117 21,-123 90,-123 90,-117 21,-117"/>
<polygon fill="none" stroke="black" points="21,-102 21,-117 90,-117 90,-102 21,-102"/>
<text text-anchor="start" x="37" y="-107.6" font-family="courier new" font-size="8.00">controls</text>
</g>
<!-- [root] ibm_resource_group.web_group -->
<g id="node_3" class="node">
<title>[root] ibm_resource_group.web_group</title>
<polygon fill="none" stroke="black" points="11,-51 11,-66 99,-66 99,-51 11,-51"/>
<text text-anchor="start" x="14" y="-56.6" font-family="courier new" font-size="8.00">ibm_resource_group</text>
<polygon fill="none" stroke="black" points="11,-36 11,-51 99,-51 99,-36 11,-36"/>
<text text-anchor="start" x="34.5" y="-41.6" font-family="courier new" font-size="8.00">web_group</text>
<polygon fill="none" stroke="black" points="11,-21 11,-36 49,-36 49,-21 11,-21"/>
<text text-anchor="start" x="18.5" y="-26.6" font-family="courier new" font-size="8.00">state</text>
<polygon fill="none" stroke="black" points="49,-21 49,-36 65,-36 65,-21 49,-21"/>
<text text-anchor="start" x="54.5" y="-26.6" font-family="courier new" font-size="8.00">+</text>
<polygon fill="none" stroke="black" points="65,-21 65,-36 99,-36 99,-21 65,-21"/>
<text text-anchor="start" x="70.5" y="-26.6" font-family="courier new" font-size="8.00">apply</text>
<polygon fill="none" stroke="black" points="11,-15 11,-21 99,-21 99,-15 11,-15"/>
<polygon fill="none" stroke="black" points="11,0 11,-15 99,-15 99,0 11,0"/>
<text text-anchor="start" x="36.5" y="-5.6" font-family="courier new" font-size="8.00">controls</text>
</g>
<!-- [root] ibm_cis.web_domain&#45;&gt;[root] ibm_resource_group.web_group -->
<g id="edge_0" class="edge">
<title>[root] ibm_cis.web_domain&#45;&gt;[root] ibm_resource_group.web_group</title>
<path fill="none" stroke="black" d="M55,-101.81C55,-93.69 55,-84.85 55,-76.32"/>
<polygon fill="black" stroke="black" points="58.5,-76.13 55,-66.13 51.5,-76.13 58.5,-76.13"/>
</g>
<!-- [root] ibm_cis_domain.web_domain -->
<g id="node_1" class="node">
<title>[root] ibm_cis_domain.web_domain</title>
<polygon fill="none" stroke="black" points="20,-255 20,-270 90,-270 90,-255 20,-255"/>
<text text-anchor="start" x="23" y="-260.6" font-family="courier new" font-size="8.00">ibm_cis_domain</text>
<polygon fill="none" stroke="black" points="20,-240 20,-255 90,-255 90,-240 20,-240"/>
<text text-anchor="start" x="32" y="-245.6" font-family="courier new" font-size="8.00">web_domain</text>
<polygon fill="none" stroke="black" points="20,-225 20,-240 49,-240 49,-225 20,-225"/>
<text text-anchor="start" x="23" y="-230.6" font-family="courier new" font-size="8.00">state</text>
<polygon fill="none" stroke="black" points="49,-225 49,-240 60,-240 60,-225 49,-225"/>
<text text-anchor="start" x="52" y="-230.6" font-family="courier new" font-size="8.00">+</text>
<polygon fill="none" stroke="black" points="60,-225 60,-240 90,-240 90,-225 60,-225"/>
<text text-anchor="start" x="63.5" y="-230.6" font-family="courier new" font-size="8.00">apply</text>
<polygon fill="none" stroke="black" points="20,-219 20,-225 90,-225 90,-219 20,-219"/>
<polygon fill="none" stroke="black" points="20,-204 20,-219 90,-219 90,-204 20,-204"/>
<text text-anchor="start" x="36.5" y="-209.6" font-family="courier new" font-size="8.00">controls</text>
</g>
<!-- [root] ibm_cis_domain.web_domain&#45;&gt;[root] ibm_cis.web_domain -->
<g id="edge_1" class="edge">
<title>[root] ibm_cis_domain.web_domain&#45;&gt;[root] ibm_cis.web_domain</title>
<path fill="none" stroke="black" d="M55,-203.81C55,-195.69 55,-186.85 55,-178.32"/>
<polygon fill="black" stroke="black" points="58.5,-178.13 55,-168.13 51.5,-178.13 58.5,-178.13"/>
</g>
<!-- [root] ibm_cis_domain_settings.web_domain -->
<g id="node_2" class="node">
<title>[root] ibm_cis_domain_settings.web_domain</title>
<polygon fill="none" stroke="black" points="0,-357 0,-372 110,-372 110,-357 0,-357"/>
<text text-anchor="start" x="3" y="-362.6" font-family="courier new" font-size="8.00">ibm_cis_domain_settings</text>
<polygon fill="none" stroke="black" points="0,-342 0,-357 110,-357 110,-342 0,-342"/>
<text text-anchor="start" x="32" y="-347.6" font-family="courier new" font-size="8.00">web_domain</text>
<polygon fill="none" stroke="black" points="0,-327 0,-342 49,-342 49,-327 0,-327"/>
<text text-anchor="start" x="13" y="-332.6" font-family="courier new" font-size="8.00">state</text>
<polygon fill="none" stroke="black" points="49,-327 49,-342 70,-342 70,-327 49,-327"/>
<text text-anchor="start" x="57" y="-332.6" font-family="courier new" font-size="8.00">+</text>
<polygon fill="none" stroke="black" points="70,-327 70,-342 110,-342 110,-327 70,-327"/>
<text text-anchor="start" x="78.5" y="-332.6" font-family="courier new" font-size="8.00">apply</text>
<polygon fill="none" stroke="black" points="0,-321 0,-327 110,-327 110,-321 0,-321"/>
<polygon fill="none" stroke="black" points="0,-306 0,-321 110,-321 110,-306 0,-306"/>
<text text-anchor="start" x="36.5" y="-311.6" font-family="courier new" font-size="8.00">controls</text>
</g>
<!-- [root] ibm_cis_domain_settings.web_domain&#45;&gt;[root] ibm_cis_domain.web_domain -->
<g id="edge_2" class="edge">
<title>[root] ibm_cis_domain_settings.web_domain&#45;&gt;[root] ibm_cis_domain.web_domain</title>
<path fill="none" stroke="black" d="M55,-305.81C55,-297.69 55,-288.85 55,-280.32"/>
<polygon fill="black" stroke="black" points="58.5,-280.13 55,-270.13 51.5,-280.13 58.5,-280.13"/>
</g>
<!-- [root] root -->
<g id="node_4" class="node">
<title>[root] root</title>
<polygon fill="none" stroke="black" points="88,-444 22,-444 22,-408 88,-408 88,-444"/>
<text text-anchor="middle" x="55" y="-424.1" font-family="courier new" font-size="8.00">[root] root</text>
</g>
<!-- [root] root&#45;&gt;[root] ibm_cis_domain_settings.web_domain -->
<g id="edge_3" class="edge">
<title>[root] root&#45;&gt;[root] ibm_cis_domain_settings.web_domain</title>
<path fill="none" stroke="black" d="M55,-407.8C55,-400.4 55,-391.39 55,-382.38"/>
<polygon fill="black" stroke="black" points="58.5,-382.31 55,-372.31 51.5,-382.31 58.5,-382.31"/>
</g>
</g>
</svg>
