<?xml version="1.0" encoding="UTF-8" standalone="no"?>
<!DOCTYPE svg PUBLIC "-//W3C//DTD SVG 1.1//EN"
 "http://www.w3.org/Graphics/SVG/1.1/DTD/svg11.dtd">
<!-- Generated by graphviz version 2.40.1 (20161225.0304)
 -->
<!-- Title: %3 Pages: 1 -->
<svg width="485pt" height="620pt"
 viewBox="0.00 0.00 485.00 620.00" xmlns="http://www.w3.org/2000/svg" xmlns:xlink="http://www.w3.org/1999/xlink">
<g id="graph0" class="graph" transform="scale(1 1) rotate(0) translate(4 616)">
<title>%3</title>
<polygon fill="#ffffff" stroke="transparent" points="-4,4 -4,-616 481,-616 481,4 -4,4"/>
<!-- [root] aws_elb.web -->
<g id="node_0" class="node">
<title>[root] aws_elb.web</title>
<polygon fill="none" stroke="#000000" points="156,-378 156,-393 195,-393 195,-378 156,-378"/>
<text text-anchor="start" x="158.6973" y="-383.6" font-family="courier new" font-size="8.00" fill="#000000">aws_elb</text>
<polygon fill="none" stroke="#000000" points="156,-363 156,-378 195,-378 195,-363 156,-363"/>
<text text-anchor="start" x="168.2988" y="-368.6" font-family="courier new" font-size="8.00" fill="#000000">web</text>
</g>
<!-- [root] aws_instance.web -->
<g id="node_1" class="node">
<title>[root] aws_instance.web</title>
<polygon fill="none" stroke="#000000" points="234,-306 234,-321 297,-321 297,-306 234,-306"/>
<text text-anchor="start" x="236.6953" y="-311.6" font-family="courier new" font-size="8.00" fill="#000000">aws_instance</text>
<polygon fill="none" stroke="#000000" points="234,-291 234,-306 297,-306 297,-291 234,-291"/>
<text text-anchor="start" x="258.2988" y="-296.6" font-family="courier new" font-size="8.00" fill="#000000">web</text>
</g>
<!-- [root] aws_elb.web&#45;&gt;[root] aws_instance.web -->
<g id="edge_0" class="edge">
<title>[root] aws_elb.web&#45;&gt;[root] aws_instance.web</title>
<path fill="none" stroke="#000000" d="M197.7108,-359.8314C208.796,-350.9632 222.2954,-340.1637 234.2852,-330.5718"/>
<polygon fill="#000000" stroke="#000000" points="236.6742,-333.1429 242.2965,-324.1628 232.3013,-327.6768 236.6742,-333.1429"/>
</g>
<!-- [root] aws_security_group.elb -->
<g id="node_6" class="node">
<title>[root] aws_security_group.elb</title>
<polygon fill="none" stroke="#000000" points="114,-306 114,-321 206,-321 206,-306 114,-306"/>
<text text-anchor="start" x="116.793" y="-311.6" font-family="courier new" font-size="8.00" fill="#000000">aws_security_group</text>
<polygon fill="none" stroke="#000000" points="114,-291 114,-306 206,-306 206,-291 114,-291"/>
<text text-anchor="start" x="152.7988" y="-296.6" font-family="courier new" font-size="8.00" fill="#000000">elb</text>
</g>
<!-- [root] aws_elb.web&#45;&gt;[root] aws_security_group.elb -->
<g id="edge_1" class="edge">
<title>[root] aws_elb.web&#45;&gt;[root] aws_security_group.elb</title>
<path fill="none" stroke="#000000" d="M171.2149,-359.8314C169.6106,-352.131 167.703,-342.9743 165.9201,-334.4166"/>
<polygon fill="#000000" stroke="#000000" points="169.3021,-333.4892 163.8361,-324.4133 162.4493,-334.9169 169.3021,-333.4892"/>
</g>
<!-- [root] aws_key_pair.auth -->
<g id="node_3" class="node">
<title>[root] aws_key_pair.auth</title>
<polygon fill="none" stroke="#000000" points="392,-234 392,-249 455,-249 455,-234 392,-234"/>
<text text-anchor="start" x="394.6953" y="-239.6" font-family="courier new" font-size="8.00" fill="#000000">aws_key_pair</text>
<polygon fill="none" stroke="#000000" points="392,-219 392,-234 455,-234 455,-219 392,-219"/>
<text text-anchor="start" x="413.8984" y="-224.6" font-family="courier new" font-size="8.00" fill="#000000">auth</text>
</g>
<!-- [root] aws_instance.web&#45;&gt;[root] aws_key_pair.auth -->
<g id="edge_2" class="edge">
<title>[root] aws_instance.web&#45;&gt;[root] aws_key_pair.auth</title>
<path fill="none" stroke="#000000" d="M296.5939,-291.6028C321.1369,-280.4186 355.3666,-264.8203 382.0171,-252.6757"/>
<polygon fill="#000000" stroke="#000000" points="383.8125,-255.7039 391.4608,-248.3723 380.9097,-249.3341 383.8125,-255.7039"/>
</g>
<!-- [root] aws_security_group.default -->
<g id="node_5" class="node">
<title>[root] aws_security_group.default</title>
<polygon fill="none" stroke="#000000" points="137,-234 137,-249 229,-249 229,-234 137,-234"/>
<text text-anchor="start" x="139.793" y="-239.6" font-family="courier new" font-size="8.00" fill="#000000">aws_security_group</text>
<polygon fill="none" stroke="#000000" points="137,-219 137,-234 229,-234 229,-219 137,-219"/>
<text text-anchor="start" x="166.1973" y="-224.6" font-family="courier new" font-size="8.00" fill="#000000">default</text>
</g>
<!-- [root] aws_instance.web&#45;&gt;[root] aws_security_group.default -->
<g id="edge_3" class="edge">
<title>[root] aws_instance.web&#45;&gt;[root] aws_security_group.default</title>
<path fill="none" stroke="#000000" d="M244.3079,-287.8314C234.3052,-279.0485 222.145,-268.3712 211.3001,-258.8489"/>
<polygon fill="#000000" stroke="#000000" points="213.5092,-256.1308 203.6854,-252.1628 208.8906,-261.3909 213.5092,-256.1308"/>
</g>
<!-- [root] aws_subnet.default -->
<g id="node_7" class="node">
<title>[root] aws_subnet.default</title>
<polygon fill="none" stroke="#000000" points="247,-234 247,-249 301,-249 301,-234 247,-234"/>
<text text-anchor="start" x="249.9961" y="-239.6" font-family="courier new" font-size="8.00" fill="#000000">aws_subnet</text>
<polygon fill="none" stroke="#000000" points="247,-219 247,-234 301,-234 301,-219 247,-219"/>
<text text-anchor="start" x="257.1973" y="-224.6" font-family="courier new" font-size="8.00" fill="#000000">default</text>
</g>
<!-- [root] aws_instance.web&#45;&gt;[root] aws_subnet.default -->
<g id="edge_4" class="edge">
<title>[root] aws_instance.web&#45;&gt;[root] aws_subnet.default</title>
<path fill="none" stroke="#000000" d="M267.2711,-287.8314C268.2336,-280.131 269.3782,-270.9743 270.4479,-262.4166"/>
<polygon fill="#000000" stroke="#000000" points="273.9309,-262.7702 271.6983,-252.4133 266.9849,-261.9019 273.9309,-262.7702"/>
</g>
<!-- [root] var.aws_amis -->
<g id="node_10" class="node">
<title>[root] var.aws_amis</title>
<polygon fill="none" stroke="#000000" points="324,-234 324,-249 368,-249 368,-234 324,-234"/>
<text text-anchor="start" x="338.7988" y="-239.6" font-family="courier new" font-size="8.00" fill="#000000">var</text>
<polygon fill="none" stroke="#000000" points="324,-219 324,-234 368,-234 368,-219 324,-219"/>
<text text-anchor="start" x="326.7969" y="-224.6" font-family="courier new" font-size="8.00" fill="#000000">aws_amis</text>
</g>
<!-- [root] aws_instance.web&#45;&gt;[root] var.aws_amis -->
<g id="edge_5" class="edge">
<title>[root] aws_instance.web&#45;&gt;[root] var.aws_amis</title>
<path fill="none" stroke="#000000" d="M285.4397,-287.8314C295.3205,-279.0485 307.3324,-268.3712 318.045,-258.8489"/>
<polygon fill="#000000" stroke="#000000" points="320.418,-261.4224 325.5668,-252.1628 315.7674,-256.1906 320.418,-261.4224"/>
</g>
<!-- [root] aws_internet_gateway.default -->
<g id="node_2" class="node">
<title>[root] aws_internet_gateway.default</title>
<polygon fill="none" stroke="#000000" points="25,-378 25,-393 127,-393 127,-378 25,-378"/>
<text text-anchor="start" x="27.9922" y="-383.6" font-family="courier new" font-size="8.00" fill="#000000">aws_internet_gateway</text>
<polygon fill="none" stroke="#000000" points="25,-363 25,-378 127,-378 127,-363 25,-363"/>
<text text-anchor="start" x="59.1973" y="-368.6" font-family="courier new" font-size="8.00" fill="#000000">default</text>
</g>
<!-- [root] aws_vpc.default -->
<g id="node_8" class="node">
<title>[root] aws_vpc.default</title>
<polygon fill="none" stroke="#000000" points="164,-162 164,-177 203,-177 203,-162 164,-162"/>
<text text-anchor="start" x="166.6973" y="-167.6" font-family="courier new" font-size="8.00" fill="#000000">aws_vpc</text>
<polygon fill="none" stroke="#000000" points="164,-147 164,-162 203,-162 203,-147 164,-147"/>
<text text-anchor="start" x="166.6973" y="-152.6" font-family="courier new" font-size="8.00" fill="#000000">default</text>
</g>
<!-- [root] aws_internet_gateway.default&#45;&gt;[root] aws_vpc.default -->
<g id="edge_6" class="edge">
<title>[root] aws_internet_gateway.default&#45;&gt;[root] aws_vpc.default</title>
<path fill="none" stroke="#000000" d="M77.6427,-359.6072C81.1811,-328.0277 91.7293,-262.4189 121,-216 128.029,-204.8532 138.0514,-194.7232 147.9942,-186.3264"/>
<polygon fill="#000000" stroke="#000000" points="150.2911,-188.9708 155.8924,-179.9776 145.9055,-183.5149 150.2911,-188.9708"/>
</g>
<!-- [root] provider.aws -->
<g id="node_9" class="node">
<title>[root] provider.aws</title>
<polygon fill="none" stroke="#000000" points="253,-90 253,-105 297,-105 297,-90 253,-90"/>
<text text-anchor="start" x="255.7969" y="-95.6" font-family="courier new" font-size="8.00" fill="#000000">provider</text>
<polygon fill="none" stroke="#000000" points="253,-75 253,-90 297,-90 297,-75 253,-75"/>
<text text-anchor="start" x="267.7988" y="-80.6" font-family="courier new" font-size="8.00" fill="#000000">aws</text>
</g>
<!-- [root] aws_key_pair.auth&#45;&gt;[root] provider.aws -->
<g id="edge_7" class="edge">
<title>[root] aws_key_pair.auth&#45;&gt;[root] provider.aws</title>
<path fill="none" stroke="#000000" d="M417.1638,-215.8022C410.0749,-196.08 396.4661,-164.6659 376,-144 358.0031,-125.8273 332.5928,-112.2837 311.7624,-103.3051"/>
<polygon fill="#000000" stroke="#000000" points="312.8369,-99.9623 302.2579,-99.3826 310.1664,-106.4329 312.8369,-99.9623"/>
</g>
<!-- [root] var.key_name -->
<g id="node_11" class="node">
<title>[root] var.key_name</title>
<polygon fill="none" stroke="#000000" points="428,-162 428,-177 472,-177 472,-162 428,-162"/>
<text text-anchor="start" x="442.7988" y="-167.6" font-family="courier new" font-size="8.00" fill="#000000">var</text>
<polygon fill="none" stroke="#000000" points="428,-147 428,-162 472,-162 472,-147 428,-147"/>
<text text-anchor="start" x="430.7969" y="-152.6" font-family="courier new" font-size="8.00" fill="#000000">key_name</text>
</g>
<!-- [root] aws_key_pair.auth&#45;&gt;[root] var.key_name -->
<g id="edge_8" class="edge">
<title>[root] aws_key_pair.auth&#45;&gt;[root] var.key_name</title>
<path fill="none" stroke="#000000" d="M429.8132,-215.8314C432.7644,-207.9617 436.2858,-198.5712 439.555,-189.8533"/>
<polygon fill="#000000" stroke="#000000" points="442.8609,-191.0055 443.095,-180.4133 436.3066,-188.5476 442.8609,-191.0055"/>
</g>
<!-- [root] var.public_key_path -->
<g id="node_12" class="node">
<title>[root] var.public_key_path</title>
<polygon fill="none" stroke="#000000" points="289,-162 289,-177 367,-177 367,-162 289,-162"/>
<text text-anchor="start" x="320.7988" y="-167.6" font-family="courier new" font-size="8.00" fill="#000000">var</text>
<polygon fill="none" stroke="#000000" points="289,-147 289,-162 367,-162 367,-147 289,-147"/>
<text text-anchor="start" x="291.9941" y="-152.6" font-family="courier new" font-size="8.00" fill="#000000">public_key_path</text>
</g>
<!-- [root] aws_key_pair.auth&#45;&gt;[root] var.public_key_path -->
<g id="edge_9" class="edge">
<title>[root] aws_key_pair.auth&#45;&gt;[root] var.public_key_path</title>
<path fill="none" stroke="#000000" d="M399.0275,-215.8314C387.2139,-206.8779 372.8028,-195.9558 360.0565,-186.2955"/>
<polygon fill="#000000" stroke="#000000" points="362.0486,-183.4137 351.9648,-180.1628 357.8205,-188.9925 362.0486,-183.4137"/>
</g>
<!-- [root] aws_route.internet_access -->
<g id="node_4" class="node">
<title>[root] aws_route.internet_access</title>
<polygon fill="none" stroke="#000000" points="72,-450 72,-465 150,-465 150,-450 72,-450"/>
<text text-anchor="start" x="89.3965" y="-455.6" font-family="courier new" font-size="8.00" fill="#000000">aws_route</text>
<polygon fill="none" stroke="#000000" points="72,-435 72,-450 150,-450 150,-435 72,-435"/>
<text text-anchor="start" x="74.9941" y="-440.6" font-family="courier new" font-size="8.00" fill="#000000">internet_access</text>
</g>
<!-- [root] aws_route.internet_access&#45;&gt;[root] aws_internet_gateway.default -->
<g id="edge_10" class="edge">
<title>[root] aws_route.internet_access&#45;&gt;[root] aws_internet_gateway.default</title>
<path fill="none" stroke="#000000" d="M102.168,-431.8314C98.3014,-423.8771 93.6794,-414.369 89.4032,-405.5723"/>
<polygon fill="#000000" stroke="#000000" points="92.4707,-403.8768 84.9509,-396.4133 86.1751,-406.9371 92.4707,-403.8768"/>
</g>
<!-- [root] aws_security_group.default&#45;&gt;[root] aws_vpc.default -->
<g id="edge_11" class="edge">
<title>[root] aws_security_group.default&#45;&gt;[root] aws_vpc.default</title>
<path fill="none" stroke="#000000" d="M183,-215.8314C183,-208.131 183,-198.9743 183,-190.4166"/>
<polygon fill="#000000" stroke="#000000" points="186.5001,-190.4132 183,-180.4133 179.5001,-190.4133 186.5001,-190.4132"/>
</g>
<!-- [root] aws_security_group.elb&#45;&gt;[root] aws_vpc.default -->
<g id="edge_12" class="edge">
<title>[root] aws_security_group.elb&#45;&gt;[root] aws_vpc.default</title>
<path fill="none" stroke="#000000" d="M145.544,-287.8453C132.8004,-269.5063 117.7338,-240.4667 128,-216 132.6052,-205.0247 140.6497,-195.1573 149.1877,-186.9529"/>
<polygon fill="#000000" stroke="#000000" points="151.6301,-189.464 156.7437,-180.1849 146.9597,-184.2497 151.6301,-189.464"/>
</g>
<!-- [root] aws_subnet.default&#45;&gt;[root] aws_vpc.default -->
<g id="edge_13" class="edge">
<title>[root] aws_subnet.default&#45;&gt;[root] aws_vpc.default</title>
<path fill="none" stroke="#000000" d="M251.0369,-215.8314C239.8285,-206.9632 226.1791,-196.1637 214.0561,-186.5718"/>
<polygon fill="#000000" stroke="#000000" points="215.9697,-183.6229 205.9558,-180.1628 211.6263,-189.1125 215.9697,-183.6229"/>
</g>
<!-- [root] aws_vpc.default&#45;&gt;[root] provider.aws -->
<g id="edge_14" class="edge">
<title>[root] aws_vpc.default&#45;&gt;[root] provider.aws</title>
<path fill="none" stroke="#000000" d="M206.2155,-143.8314C217.547,-134.9632 231.3464,-124.1637 243.6027,-114.5718"/>
<polygon fill="#000000" stroke="#000000" points="246.074,-117.0822 251.7919,-108.1628 241.7598,-111.5697 246.074,-117.0822"/>
</g>
<!-- [root] var.aws_region -->
<g id="node_16" class="node">
<title>[root] var.aws_region</title>
<polygon fill="none" stroke="#000000" points="248,-18 248,-33 302,-33 302,-18 248,-18"/>
<text text-anchor="start" x="267.7988" y="-23.6" font-family="courier new" font-size="8.00" fill="#000000">var</text>
<polygon fill="none" stroke="#000000" points="248,-3 248,-18 302,-18 302,-3 248,-3"/>
<text text-anchor="start" x="250.9961" y="-8.6" font-family="courier new" font-size="8.00" fill="#000000">aws_region</text>
</g>
<!-- [root] provider.aws&#45;&gt;[root] var.aws_region -->
<g id="edge_20" class="edge">
<title>[root] provider.aws&#45;&gt;[root] var.aws_region</title>
<path fill="none" stroke="#000000" d="M275,-71.8314C275,-64.131 275,-54.9743 275,-46.4166"/>
<polygon fill="#000000" stroke="#000000" points="278.5001,-46.4132 275,-36.4133 271.5001,-46.4133 278.5001,-46.4132"/>
</g>
<!-- [root] meta.count&#45;boundary (count boundary fixup) -->
<g id="node_13" class="node">
<title>[root] meta.count&#45;boundary (count boundary fixup)</title>
<polygon fill="none" stroke="#000000" points="60,-522 60,-537 133,-537 133,-522 60,-522"/>
<text text-anchor="start" x="86.8984" y="-527.6" font-family="courier new" font-size="8.00" fill="#000000">meta</text>
<polygon fill="none" stroke="#000000" points="60,-507 60,-522 133,-522 133,-507 60,-507"/>
<text text-anchor="start" x="62.8945" y="-512.6" font-family="courier new" font-size="8.00" fill="#000000">count&#45;boundary</text>
</g>
<!-- [root] meta.count&#45;boundary (count boundary fixup)&#45;&gt;[root] aws_route.internet_access -->
<g id="edge_15" class="edge">
<title>[root] meta.count&#45;boundary (count boundary fixup)&#45;&gt;[root] aws_route.internet_access</title>
<path fill="none" stroke="#000000" d="M99.7851,-503.8314C101.3894,-496.131 103.297,-486.9743 105.0799,-478.4166"/>
<polygon fill="#000000" stroke="#000000" points="108.5507,-478.9169 107.1639,-468.4133 101.6979,-477.4892 108.5507,-478.9169"/>
</g>
<!-- [root] output.address -->
<g id="node_14" class="node">
<title>[root] output.address</title>
<polygon fill="none" stroke="#000000" points="8,-450 8,-465 47,-465 47,-450 8,-450"/>
<text text-anchor="start" x="13.0977" y="-455.6" font-family="courier new" font-size="8.00" fill="#000000">output</text>
<polygon fill="none" stroke="#000000" points="8,-435 8,-450 47,-450 47,-435 8,-435"/>
<text text-anchor="start" x="10.6973" y="-440.6" font-family="courier new" font-size="8.00" fill="#000000">address</text>
</g>
<!-- [root] meta.count&#45;boundary (count boundary fixup)&#45;&gt;[root] output.address -->
<g id="edge_16" class="edge">
<title>[root] meta.count&#45;boundary (count boundary fixup)&#45;&gt;[root] output.address</title>
<path fill="none" stroke="#000000" d="M78.5884,-503.8314C70.479,-495.3694 60.6844,-485.1489 51.818,-475.8971"/>
<polygon fill="#000000" stroke="#000000" points="54.0921,-473.2115 44.646,-468.4133 49.0382,-478.0549 54.0921,-473.2115"/>
</g>
<!-- [root] output.address&#45;&gt;[root] aws_elb.web -->
<g id="edge_17" class="edge">
<title>[root] output.address&#45;&gt;[root] aws_elb.web</title>
<path fill="none" stroke="#000000" d="M54.1061,-436.3948C57.104,-434.9056 60.1147,-433.4168 63,-432 88.1493,-419.6507 116.587,-405.9428 138.5138,-395.4284"/>
<polygon fill="#000000" stroke="#000000" points="140.2824,-398.4621 147.7887,-390.9851 137.258,-392.1492 140.2824,-398.4621"/>
</g>
<!-- [root] provider.aws (close) -->
<g id="node_15" class="node">
<title>[root] provider.aws (close)</title>
<polygon fill="none" stroke="#000000" points="156,-522 156,-537 200,-537 200,-522 156,-522"/>
<text text-anchor="start" x="158.7969" y="-527.6" font-family="courier new" font-size="8.00" fill="#000000">provider</text>
<polygon fill="none" stroke="#000000" points="156,-507 156,-522 200,-522 200,-507 156,-507"/>
<text text-anchor="start" x="170.7988" y="-512.6" font-family="courier new" font-size="8.00" fill="#000000">aws</text>
</g>
<!-- [root] provider.aws (close)&#45;&gt;[root] aws_elb.web -->
<g id="edge_18" class="edge">
<title>[root] provider.aws (close)&#45;&gt;[root] aws_elb.web</title>
<path fill="none" stroke="#000000" d="M177.62,-503.7623C177.1084,-479.201 176.1927,-435.2474 175.5907,-406.3541"/>
<polygon fill="#000000" stroke="#000000" points="179.0845,-406.0145 175.3769,-396.0896 172.086,-406.1604 179.0845,-406.0145"/>
</g>
<!-- [root] provider.aws (close)&#45;&gt;[root] aws_route.internet_access -->
<g id="edge_19" class="edge">
<title>[root] provider.aws (close)&#45;&gt;[root] aws_route.internet_access</title>
<path fill="none" stroke="#000000" d="M161.0931,-503.8314C153.2187,-495.3694 143.708,-485.1489 135.0987,-475.8971"/>
<polygon fill="#000000" stroke="#000000" points="137.5092,-473.3497 128.1346,-468.4133 132.3847,-478.1183 137.5092,-473.3497"/>
</g>
<!-- [root] provisioner.remote&#45;exec (close) -->
<g id="node_17" class="node">
<title>[root] provisioner.remote&#45;exec (close)</title>
<polygon fill="none" stroke="#000000" points="212,-450 212,-465 270,-465 270,-450 212,-450"/>
<text text-anchor="start" x="214.5957" y="-455.6" font-family="courier new" font-size="8.00" fill="#000000">provisioner</text>
<polygon fill="none" stroke="#000000" points="212,-435 212,-450 270,-450 270,-435 212,-435"/>
<text text-anchor="start" x="214.5957" y="-440.6" font-family="courier new" font-size="8.00" fill="#000000">remote&#45;exec</text>
</g>
<!-- [root] provisioner.remote&#45;exec (close)&#45;&gt;[root] aws_instance.web -->
<g id="edge_21" class="edge">
<title>[root] provisioner.remote&#45;exec (close)&#45;&gt;[root] aws_instance.web</title>
<path fill="none" stroke="#000000" d="M244.0396,-431.7623C248.1512,-407.0928 255.5234,-362.8598 260.3378,-333.9731"/>
<polygon fill="#000000" stroke="#000000" points="263.7934,-334.529 261.9851,-324.0896 256.8886,-333.3781 263.7934,-334.529"/>
</g>
<!-- [root] root -->
<g id="node_18" class="node">
<title>[root] root</title>
<polygon fill="none" stroke="#000000" points="212.3089,-612 143.6911,-612 143.6911,-576 212.3089,-576 212.3089,-612"/>
<text text-anchor="middle" x="178" y="-592.1313" font-family="courier new" font-size="8.00" fill="#000000">[root] root</text>
</g>
<!-- [root] root&#45;&gt;[root] meta.count&#45;boundary (count boundary fixup) -->
<g id="edge_22" class="edge">
<title>[root] root&#45;&gt;[root] meta.count&#45;boundary (count boundary fixup)</title>
<path fill="none" stroke="#000000" d="M157.3079,-575.8314C147.3052,-567.0485 135.145,-556.3712 124.3001,-546.8489"/>
<polygon fill="#000000" stroke="#000000" points="126.5092,-544.1308 116.6854,-540.1628 121.8906,-549.3909 126.5092,-544.1308"/>
</g>
<!-- [root] root&#45;&gt;[root] provider.aws (close) -->
<g id="edge_23" class="edge">
<title>[root] root&#45;&gt;[root] provider.aws (close)</title>
<path fill="none" stroke="#000000" d="M178,-575.8314C178,-568.131 178,-558.9743 178,-550.4166"/>
<polygon fill="#000000" stroke="#000000" points="181.5001,-550.4132 178,-540.4133 174.5001,-550.4133 181.5001,-550.4132"/>
</g>
<!-- [root] root&#45;&gt;[root] provisioner.remote&#45;exec (close) -->
<g id="edge_24" class="edge">
<title>[root] root&#45;&gt;[root] provisioner.remote&#45;exec (close)</title>
<path fill="none" stroke="#000000" d="M192.0996,-575.8184C199.4202,-565.7069 208.0524,-552.6424 214,-540 223.3461,-520.1337 230.3277,-496.2809 234.8478,-478.1241"/>
<polygon fill="#000000" stroke="#000000" points="238.3076,-478.7043 237.224,-468.165 231.4987,-477.0797 238.3076,-478.7043"/>
</g>
</g>
</svg>
