<?xml version="1.0" encoding="UTF-8" standalone="no"?>
<!DOCTYPE svg PUBLIC "-//W3C//DTD SVG 1.1//EN"
 "http://www.w3.org/Graphics/SVG/1.1/DTD/svg11.dtd">
<!-- Generated by graphviz version 2.43.0 (0)
 -->
<!-- Title: %3 Pages: 1 -->
<svg width="160pt" height="332pt"
 viewBox="0.00 0.00 159.50 332.00" xmlns="http://www.w3.org/2000/svg" xmlns:xlink="http://www.w3.org/1999/xlink">
<g id="graph0" class="graph" transform="scale(1 1) rotate(0) translate(4 328)">
<title>%3</title>
<polygon fill="white" stroke="transparent" points="-4,4 -4,-328 155.5,-328 155.5,4 -4,4"/>
<!-- [root] ibm_kp_key.test -->
<g id="node_0" class="node">
<title>[root] ibm_kp_key.test</title>
<polygon fill="none" stroke="black" points="43.5,-162 43.5,-177 97.5,-177 97.5,-162 43.5,-162"/>
<text text-anchor="start" x="46.5" y="-167.6" font-family="courier new" font-size="8.00">ibm_kp_key</text>
<polygon fill="none" stroke="black" points="97.5,-147 97.5,-177 103.5,-177 103.5,-147 97.5,-147"/>
<polygon fill="none" stroke="black" points="103.5,-147 103.5,-177 113.5,-177 113.5,-147 103.5,-147"/>
<text text-anchor="start" x="106.1" y="-160.13" font-family="courier new" font-size="8.00">+</text>
<polygon fill="none" stroke="black" points="113.5,-147 113.5,-177 119.5,-177 119.5,-147 113.5,-147"/>
<polygon fill="none" stroke="black" points="43.5,-147 43.5,-162 97.5,-162 97.5,-147 43.5,-147"/>
<text text-anchor="start" x="60.9" y="-152.6" font-family="courier new" font-size="8.00">test</text>
</g>
<!-- [root] ibm_resource_instance.kp_instance -->
<g id="node_1" class="node">
<title>[root] ibm_resource_instance.kp_instance</title>
<polygon fill="none" stroke="black" points="17.5,-90 17.5,-105 123.5,-105 123.5,-90 17.5,-90"/>
<text text-anchor="start" x="20.09" y="-95.6" font-family="courier new" font-size="8.00">ibm_resource_instance</text>
<polygon fill="none" stroke="black" points="123.5,-75 123.5,-105 129.5,-105 129.5,-75 123.5,-75"/>
<polygon fill="none" stroke="black" points="129.5,-75 129.5,-105 139.5,-105 139.5,-75 129.5,-75"/>
<text text-anchor="start" x="132.1" y="-88.13" font-family="courier new" font-size="8.00">+</text>
<polygon fill="none" stroke="black" points="139.5,-75 139.5,-105 145.5,-105 145.5,-75 139.5,-75"/>
<polygon fill="none" stroke="black" points="17.5,-75 17.5,-90 123.5,-90 123.5,-75 17.5,-75"/>
<text text-anchor="start" x="44.1" y="-80.6" font-family="courier new" font-size="8.00">kp_instance</text>
</g>
<!-- [root] ibm_kp_key.test&#45;&gt;[root] ibm_resource_instance.kp_instance -->
<g id="edge_0" class="edge">
<title>[root] ibm_kp_key.test&#45;&gt;[root] ibm_resource_instance.kp_instance</title>
<path fill="none" stroke="black" d="M81.5,-143.7C81.5,-135.98 81.5,-126.71 81.5,-118.11"/>
<polygon fill="black" stroke="black" points="85,-118.1 81.5,-108.1 78,-118.1 85,-118.1"/>
</g>
<!-- [root] provider.ibm -->
<g id="node_2" class="node">
<title>[root] provider.ibm</title>
<polygon fill="none" stroke="black" points="56.5,-18 56.5,-33 100.5,-33 100.5,-18 56.5,-18"/>
<text text-anchor="start" x="59.3" y="-23.6" font-family="courier new" font-size="8.00">provider</text>
<polygon fill="none" stroke="black" points="100.5,-3 100.5,-33 106.5,-33 106.5,-3 100.5,-3"/>
<polygon fill="none" stroke="black" points="56.5,-3 56.5,-18 100.5,-18 100.5,-3 56.5,-3"/>
<text text-anchor="start" x="71.3" y="-8.6" font-family="courier new" font-size="8.00">ibm</text>
</g>
<!-- [root] ibm_resource_instance.kp_instance&#45;&gt;[root] provider.ibm -->
<g id="edge_1" class="edge">
<title>[root] ibm_resource_instance.kp_instance&#45;&gt;[root] provider.ibm</title>
<path fill="none" stroke="black" d="M81.5,-71.7C81.5,-63.98 81.5,-54.71 81.5,-46.11"/>
<polygon fill="black" stroke="black" points="85,-46.1 81.5,-36.1 78,-46.1 85,-46.1"/>
</g>
<!-- [root] meta.count&#45;boundary (EachMode fixup) -->
<g id="node_3" class="node">
<title>[root] meta.count&#45;boundary (EachMode fixup)</title>
<polygon fill="none" stroke="black" points="0.5,-234 0.5,-249 73.5,-249 73.5,-234 0.5,-234"/>
<text text-anchor="start" x="27.4" y="-239.6" font-family="courier new" font-size="8.00">meta</text>
<polygon fill="none" stroke="black" points="73.5,-219 73.5,-249 79.5,-249 79.5,-219 73.5,-219"/>
<polygon fill="none" stroke="black" points="0.5,-219 0.5,-234 73.5,-234 73.5,-219 0.5,-219"/>
<text text-anchor="start" x="3.39" y="-224.6" font-family="courier new" font-size="8.00">count&#45;boundary</text>
</g>
<!-- [root] meta.count&#45;boundary (EachMode fixup)&#45;&gt;[root] ibm_kp_key.test -->
<g id="edge_2" class="edge">
<title>[root] meta.count&#45;boundary (EachMode fixup)&#45;&gt;[root] ibm_kp_key.test</title>
<path fill="none" stroke="black" d="M49.88,-215.7C54.76,-207.56 60.69,-197.69 66.08,-188.7"/>
<polygon fill="black" stroke="black" points="69.09,-190.48 71.24,-180.1 63.09,-186.88 69.09,-190.48"/>
</g>
<!-- [root] provider.ibm (close) -->
<g id="node_4" class="node">
<title>[root] provider.ibm (close)</title>
<polygon fill="none" stroke="black" points="99.5,-234 99.5,-249 143.5,-249 143.5,-234 99.5,-234"/>
<text text-anchor="start" x="102.3" y="-239.6" font-family="courier new" font-size="8.00">provider</text>
<polygon fill="none" stroke="black" points="143.5,-219 143.5,-249 149.5,-249 149.5,-219 143.5,-219"/>
<polygon fill="none" stroke="black" points="99.5,-219 99.5,-234 143.5,-234 143.5,-219 99.5,-219"/>
<text text-anchor="start" x="114.3" y="-224.6" font-family="courier new" font-size="8.00">ibm</text>
</g>
<!-- [root] provider.ibm (close)&#45;&gt;[root] ibm_kp_key.test -->
<g id="edge_3" class="edge">
<title>[root] provider.ibm (close)&#45;&gt;[root] ibm_kp_key.test</title>
<path fill="none" stroke="black" d="M113.87,-215.7C108.87,-207.56 102.81,-197.69 97.29,-188.7"/>
<polygon fill="black" stroke="black" points="100.22,-186.79 92.01,-180.1 94.26,-190.46 100.22,-186.79"/>
</g>
<!-- [root] root -->
<g id="node_5" class="node">
<title>[root] root</title>
<polygon fill="none" stroke="black" points="115.81,-324 47.19,-324 47.19,-288 115.81,-288 115.81,-324"/>
<text text-anchor="middle" x="81.5" y="-304.13" font-family="courier new" font-size="8.00">[root] root</text>
</g>
<!-- [root] root&#45;&gt;[root] meta.count&#45;boundary (EachMode fixup) -->
<g id="edge_4" class="edge">
<title>[root] root&#45;&gt;[root] meta.count&#45;boundary (EachMode fixup)</title>
<path fill="none" stroke="black" d="M71.12,-287.7C66.24,-279.56 60.31,-269.69 54.92,-260.7"/>
<polygon fill="black" stroke="black" points="57.91,-258.88 49.76,-252.1 51.91,-262.48 57.91,-258.88"/>
</g>
<!-- [root] root&#45;&gt;[root] provider.ibm (close) -->
<g id="edge_5" class="edge">
<title>[root] root&#45;&gt;[root] provider.ibm (close)</title>
<path fill="none" stroke="black" d="M92.13,-287.7C97.13,-279.56 103.19,-269.69 108.71,-260.7"/>
<polygon fill="black" stroke="black" points="111.74,-262.46 113.99,-252.1 105.78,-258.79 111.74,-262.46"/>
</g>
</g>
</svg>
