<?xml version="1.0" encoding="UTF-8" standalone="no"?>
<!DOCTYPE svg PUBLIC "-//W3C//DTD SVG 1.1//EN"
 "http://www.w3.org/Graphics/SVG/1.1/DTD/svg11.dtd">
<!-- Generated by graphviz version 2.43.0 (0)
 -->
<!-- Title: %3 Pages: 1 -->
<svg width="154pt" height="332pt"
 viewBox="0.00 0.00 153.50 332.00" xmlns="http://www.w3.org/2000/svg" xmlns:xlink="http://www.w3.org/1999/xlink">
<g id="graph0" class="graph" transform="scale(1 1) rotate(0) translate(4 328)">
<title>%3</title>
<polygon fill="white" stroke="transparent" points="-4,4 -4,-328 149.5,-328 149.5,4 -4,4"/>
<!-- [root] ibm_kp_key.test -->
<g id="node_0" class="node">
<title>[root] ibm_kp_key.test</title>
<polygon fill="none" stroke="black" points="50.5,-162 50.5,-177 104.5,-177 104.5,-162 50.5,-162"/>
<text text-anchor="start" x="53.5" y="-167.6" font-family="courier new" font-size="8.00">ibm_kp_key</text>
<polygon fill="none" stroke="black" points="50.5,-147 50.5,-162 104.5,-162 104.5,-147 50.5,-147"/>
<text text-anchor="start" x="67.9" y="-152.6" font-family="courier new" font-size="8.00">test</text>
</g>
<!-- [root] ibm_resource_instance.kp_instance -->
<g id="node_1" class="node">
<title>[root] ibm_resource_instance.kp_instance</title>
<polygon fill="none" stroke="black" points="24.5,-90 24.5,-105 130.5,-105 130.5,-90 24.5,-90"/>
<text text-anchor="start" x="27.09" y="-95.6" font-family="courier new" font-size="8.00">ibm_resource_instance</text>
<polygon fill="none" stroke="black" points="24.5,-75 24.5,-90 130.5,-90 130.5,-75 24.5,-75"/>
<text text-anchor="start" x="51.1" y="-80.6" font-family="courier new" font-size="8.00">kp_instance</text>
</g>
<!-- [root] ibm_kp_key.test&#45;&gt;[root] ibm_resource_instance.kp_instance -->
<g id="edge_0" class="edge">
<title>[root] ibm_kp_key.test&#45;&gt;[root] ibm_resource_instance.kp_instance</title>
<path fill="none" stroke="black" d="M77.5,-143.7C77.5,-135.98 77.5,-126.71 77.5,-118.11"/>
<polygon fill="black" stroke="black" points="81,-118.1 77.5,-108.1 74,-118.1 81,-118.1"/>
</g>
<!-- [root] provider.ibm -->
<g id="node_2" class="node">
<title>[root] provider.ibm</title>
<polygon fill="none" stroke="black" points="55.5,-18 55.5,-33 99.5,-33 99.5,-18 55.5,-18"/>
<text text-anchor="start" x="58.3" y="-23.6" font-family="courier new" font-size="8.00">provider</text>
<polygon fill="none" stroke="black" points="55.5,-3 55.5,-18 99.5,-18 99.5,-3 55.5,-3"/>
<text text-anchor="start" x="70.3" y="-8.6" font-family="courier new" font-size="8.00">ibm</text>
</g>
<!-- [root] ibm_resource_instance.kp_instance&#45;&gt;[root] provider.ibm -->
<g id="edge_1" class="edge">
<title>[root] ibm_resource_instance.kp_instance&#45;&gt;[root] provider.ibm</title>
<path fill="none" stroke="black" d="M77.5,-71.7C77.5,-63.98 77.5,-54.71 77.5,-46.11"/>
<polygon fill="black" stroke="black" points="81,-46.1 77.5,-36.1 74,-46.1 81,-46.1"/>
</g>
<!-- [root] meta.count&#45;boundary (EachMode fixup) -->
<g id="node_3" class="node">
<title>[root] meta.count&#45;boundary (EachMode fixup)</title>
<polygon fill="none" stroke="black" points="0.5,-234 0.5,-249 73.5,-249 73.5,-234 0.5,-234"/>
<text text-anchor="start" x="27.4" y="-239.6" font-family="courier new" font-size="8.00">meta</text>
<polygon fill="none" stroke="black" points="0.5,-219 0.5,-234 73.5,-234 73.5,-219 0.5,-219"/>
<text text-anchor="start" x="3.39" y="-224.6" font-family="courier new" font-size="8.00">count&#45;boundary</text>
</g>
<!-- [root] meta.count&#45;boundary (EachMode fixup)&#45;&gt;[root] ibm_kp_key.test -->
<g id="edge_2" class="edge">
<title>[root] meta.count&#45;boundary (EachMode fixup)&#45;&gt;[root] ibm_kp_key.test</title>
<path fill="none" stroke="black" d="M46.63,-215.7C51.35,-207.64 57.06,-197.89 62.28,-188.98"/>
<polygon fill="black" stroke="black" points="65.45,-190.5 67.48,-180.1 59.41,-186.96 65.45,-190.5"/>
</g>
<!-- [root] provider.ibm (close) -->
<g id="node_4" class="node">
<title>[root] provider.ibm (close)</title>
<polygon fill="none" stroke="black" points="96.5,-234 96.5,-249 140.5,-249 140.5,-234 96.5,-234"/>
<text text-anchor="start" x="99.3" y="-239.6" font-family="courier new" font-size="8.00">provider</text>
<polygon fill="none" stroke="black" points="96.5,-219 96.5,-234 140.5,-234 140.5,-219 96.5,-219"/>
<text text-anchor="start" x="111.3" y="-224.6" font-family="courier new" font-size="8.00">ibm</text>
</g>
<!-- [root] provider.ibm (close)&#45;&gt;[root] ibm_kp_key.test -->
<g id="edge_3" class="edge">
<title>[root] provider.ibm (close)&#45;&gt;[root] ibm_kp_key.test</title>
<path fill="none" stroke="black" d="M108.37,-215.7C103.65,-207.64 97.94,-197.89 92.72,-188.98"/>
<polygon fill="black" stroke="black" points="95.59,-186.96 87.52,-180.1 89.55,-190.5 95.59,-186.96"/>
</g>
<!-- [root] root -->
<g id="node_5" class="node">
<title>[root] root</title>
<polygon fill="none" stroke="black" points="111.81,-324 43.19,-324 43.19,-288 111.81,-288 111.81,-324"/>
<text text-anchor="middle" x="77.5" y="-304.13" font-family="courier new" font-size="8.00">[root] root</text>
</g>
<!-- [root] root&#45;&gt;[root] meta.count&#45;boundary (EachMode fixup) -->
<g id="edge_4" class="edge">
<title>[root] root&#45;&gt;[root] meta.count&#45;boundary (EachMode fixup)</title>
<path fill="none" stroke="black" d="M67.37,-287.7C62.65,-279.64 56.94,-269.89 51.72,-260.98"/>
<polygon fill="black" stroke="black" points="54.59,-258.96 46.52,-252.1 48.55,-262.5 54.59,-258.96"/>
</g>
<!-- [root] root&#45;&gt;[root] provider.ibm (close) -->
<g id="edge_5" class="edge">
<title>[root] root&#45;&gt;[root] provider.ibm (close)</title>
<path fill="none" stroke="black" d="M87.63,-287.7C92.35,-279.64 98.06,-269.89 103.28,-260.98"/>
<polygon fill="black" stroke="black" points="106.45,-262.5 108.48,-252.1 100.41,-258.96 106.45,-262.5"/>
</g>
</g>
</svg>
